{"glyphs":{"0":{"ha":726,"x_min":46,"x_max":674,"o":"m 666 444 q 670 426 669 435 q 673 408 672 417 q 670 384 674 395 q 659 365 666 372 q 670 326 672 348 q 670 314 670 320 q 668 301 669 307 q 663 273 667 291 q 651 231 660 254 l 651 231 q 623 170 642 206 q 567 94 605 135 q 524 56 549 75 q 467 19 499 37 q 398 -13 435 1 q 315 -38 360 -28 q 296 -40 306 -40 q 270 -41 285 -41 q 235 -39 249 -41 q 199 -28 217 -35 q 167 -10 182 -21 l 167 -11 q 120 30 137 7 q 92 74 103 53 q 77 112 83 92 q 65 151 71 132 q 58 181 62 166 q 52 209 54 196 q 47 251 49 229 q 46 296 46 273 l 46 322 q 47 326 47 324 q 47 328 47 327 q 47 331 47 330 q 50 358 49 344 q 56 389 52 373 l 55 388 q 66 432 58 408 q 88 482 73 456 q 129 537 109 515 q 169 576 149 559 q 207 602 190 592 q 242 623 225 613 q 275 638 258 631 q 310 652 292 646 q 347 662 328 658 q 386 668 365 666 q 398 669 392 669 q 410 669 403 669 q 461 664 436 669 q 509 651 487 659 q 556 624 536 638 q 590 597 576 610 q 631 540 618 566 q 651 496 644 514 q 667 443 663 460 l 666 444 m 581 329 q 594 368 581 354 q 586 382 589 374 q 583 398 584 390 l 583 415 q 582 426 583 419 q 579 448 582 433 q 575 465 578 456 q 569 483 573 473 q 561 505 566 493 q 545 531 556 517 q 522 558 536 545 q 490 581 508 572 q 451 594 472 590 q 406 599 431 599 q 396 599 401 599 q 385 599 391 599 q 314 581 351 596 q 240 538 277 565 q 206 508 222 524 q 175 471 189 491 q 150 427 160 451 q 137 376 140 403 q 130 308 131 337 q 128 258 128 280 q 129 216 128 235 q 133 175 130 197 l 132 175 q 132 173 132 174 q 133 172 133 172 l 133 171 q 142 134 137 152 q 142 135 142 135 l 142 134 q 152 107 147 120 q 165 84 158 94 l 164 84 q 184 59 172 72 q 215 38 197 47 q 267 26 236 26 q 306 31 281 26 q 331 38 319 34 q 353 45 342 41 q 355 46 354 46 q 358 47 357 46 l 359 47 q 360 47 360 47 q 386 59 373 53 q 411 72 399 66 q 457 99 437 86 q 490 124 476 113 l 490 124 q 536 181 519 152 q 562 231 553 209 q 575 272 572 253 q 579 301 578 290 q 581 319 581 313 q 581 329 581 326 z "},"1":{"ha":496,"x_min":36,"x_max":449,"o":"m 103 193 q 85 190 94 190 q 67 194 76 190 q 52 204 59 198 q 42 218 45 210 q 41 251 36 235 q 62 276 47 267 l 61 275 q 69 278 65 276 q 78 279 74 279 q 87 283 83 281 l 86 283 q 91 285 88 284 q 95 286 93 285 q 97 287 95 286 q 116 299 104 291 q 147 322 127 306 l 146 322 q 189 361 165 338 q 239 420 213 385 q 266 464 253 439 q 294 518 280 488 q 308 548 301 533 q 321 580 314 563 l 321 579 q 323 585 322 583 q 325 589 324 587 l 324 587 q 326 590 325 588 q 327 593 326 592 q 331 601 329 598 q 335 609 332 604 l 335 610 q 335 611 336 611 q 336 613 335 611 q 342 623 337 615 q 355 640 348 631 q 367 657 361 649 q 375 668 374 665 l 449 638 l 373 469 q 371 465 372 468 q 369 460 370 462 q 368 458 368 459 q 342 383 358 429 q 308 272 326 337 q 279 131 290 195 q 263 30 268 67 q 258 -2 260 10 q 256 -24 257 -15 q 255 -28 255 -26 q 254 -39 254 -34 q 252 -48 253 -44 l 253 -47 q 234 -73 249 -62 q 201 -82 219 -84 q 172 -64 183 -79 q 163 -30 161 -49 q 168 -16 165 -26 q 176 25 170 -6 q 177 28 176 26 q 178 32 178 30 q 179 36 178 35 q 201 132 187 70 q 242 289 216 194 q 247 305 245 297 q 251 320 249 313 q 253 325 252 322 q 254 329 253 327 q 193 263 219 285 q 153 228 168 240 q 142 219 147 222 l 140 217 q 139 217 140 217 q 136 214 138 215 q 133 212 134 213 l 133 213 q 119 202 125 206 q 101 192 113 197 l 103 193 z "},"2":{"ha":756,"x_min":27,"x_max":721,"o":"m 627 -190 q 640 -190 635 -190 q 653 -188 646 -190 q 675 -186 663 -186 q 691 -188 683 -186 q 708 -195 699 -190 q 719 -220 717 -208 q 714 -247 721 -232 q 695 -266 708 -258 q 670 -277 683 -275 l 671 -276 q 660 -278 665 -278 q 647 -278 655 -278 q 625 -277 639 -278 q 588 -267 612 -275 l 588 -267 q 532 -246 567 -261 q 458 -212 496 -231 q 390 -175 428 -197 q 306 -127 351 -153 q 291 -118 301 -124 q 276 -110 281 -113 l 276 -110 q 255 -98 267 -105 q 231 -85 243 -92 l 232 -85 q 227 -83 230 -84 q 222 -80 224 -81 l 217 -77 l 217 -77 q 202 -69 208 -73 q 198 -68 199 -68 q 194 -65 197 -67 q 180 -71 187 -69 q 165 -76 173 -74 q 115 -83 138 -83 q 100 -83 108 -83 q 84 -79 92 -82 q 44 -47 58 -70 q 36 -31 40 -40 q 31 -13 33 -22 q 31 12 27 -1 q 51 44 32 28 q 77 51 67 51 q 99 51 87 52 q 135 40 117 48 q 174 22 154 31 q 176 20 174 20 q 178 19 177 19 q 183 19 178 19 q 184 17 184 17 q 231 47 206 30 q 281 83 256 64 q 348 141 319 115 q 394 185 378 168 q 430 223 414 205 q 463 260 447 240 q 498 307 480 280 q 538 374 516 333 l 538 374 q 560 417 549 394 q 576 465 570 440 q 585 500 582 481 q 588 540 588 519 q 581 589 588 565 q 570 618 576 605 q 553 642 563 632 q 535 652 545 649 q 514 653 524 654 q 489 646 501 651 q 465 634 476 640 q 447 624 455 629 q 429 613 438 619 q 425 610 427 612 q 420 608 422 609 l 422 609 q 421 608 422 608 q 420 608 421 608 q 419 607 419 607 q 415 605 418 606 q 345 544 374 572 q 294 494 316 517 l 288 488 l 289 488 q 242 435 260 457 q 214 400 224 413 q 210 396 213 399 q 207 392 208 393 q 201 384 203 388 q 196 379 198 381 q 159 356 178 360 q 126 363 140 352 q 112 397 112 377 q 126 438 112 417 l 130 442 q 137 450 133 445 q 149 462 141 454 q 170 483 157 470 q 203 516 183 496 q 259 573 224 539 q 340 642 295 606 l 339 641 q 340 641 337 639 q 348 648 343 644 q 360 656 353 651 q 370 663 366 660 q 372 665 369 662 q 379 670 376 668 q 383 673 381 672 q 387 675 385 674 q 390 677 388 676 q 393 679 391 678 l 399 683 q 434 701 415 692 q 476 717 452 710 q 477 718 477 717 q 478 718 476 718 q 501 723 490 721 q 526 726 513 726 q 555 720 540 724 q 583 708 569 717 l 582 708 q 624 664 609 692 q 647 608 639 637 q 654 574 652 590 q 656 544 656 559 q 655 525 656 535 q 653 507 655 515 q 647 466 652 486 q 633 426 641 445 l 634 428 q 609 363 624 392 q 581 309 594 333 q 528 229 551 261 q 487 173 506 197 l 487 174 q 446 125 468 149 q 400 76 424 100 q 374 52 388 65 q 345 27 360 40 q 342 24 344 26 q 338 21 340 23 q 335 18 336 19 q 303 -5 320 7 q 268 -28 287 -16 q 382 -91 333 -65 q 465 -133 430 -117 q 530 -162 503 -152 q 578 -178 558 -173 q 606 -186 594 -184 q 627 -190 617 -188 m 92 -15 q 95 -14 94 -14 q 97 -13 96 -14 q 97 -11 97 -12 q 98 -9 97 -10 l 101 -6 l 101 -3 l 81 -3 l 88 -15 l 89 -15 l 85 -19 l 88 -19 l 92 -15 m 89 -15 l 92 -15 l 98 -9 l 98 -6 l 89 -15 z "},"3":{"ha":772,"x_min":-176,"x_max":642,"o":"m -146 -66 q -163 -49 -156 -59 q -173 -29 -169 -40 q -175 -9 -176 -19 q -167 8 -174 1 q -136 22 -154 22 q -115 17 -126 22 q -92 6 -103 13 q -81 -4 -87 1 q -67 -18 -76 -10 q -40 -40 -58 -26 q 4 -73 -26 -52 q 74 -117 34 -93 q 120 -141 92 -128 q 180 -166 149 -154 q 236 -183 205 -175 q 299 -191 267 -191 q 311 -191 305 -191 q 326 -190 318 -191 q 369 -180 348 -188 q 409 -157 391 -172 q 442 -118 428 -141 q 465 -69 456 -96 q 483 58 485 -12 q 480 89 483 74 q 471 117 477 104 q 456 138 465 128 q 435 153 447 147 q 411 159 424 158 q 386 161 399 161 q 375 161 381 161 q 365 160 370 161 q 340 158 353 160 q 315 153 327 156 q 310 152 313 152 q 306 151 309 151 q 303 150 305 150 q 300 150 301 150 q 285 147 292 149 q 272 142 278 145 q 256 140 265 140 q 226 143 247 140 l 216 145 l 211 207 l 240 221 l 251 224 l 252 224 q 260 226 256 226 q 279 233 269 229 q 298 240 289 236 q 355 264 324 250 q 427 307 385 278 q 468 336 447 319 q 508 373 489 352 q 547 423 528 393 q 572 490 565 452 l 572 489 q 574 511 574 501 q 572 537 574 524 q 567 562 570 550 l 568 560 q 558 584 565 574 q 542 599 552 594 q 524 603 535 603 q 513 602 521 603 q 499 600 506 601 l 500 601 q 474 591 488 597 q 447 578 461 585 q 399 551 421 565 q 360 523 378 537 q 332 501 347 513 q 303 476 317 489 l 301 475 q 298 473 299 474 q 296 471 297 472 q 237 418 260 440 q 202 383 214 396 q 197 377 199 379 q 185 365 190 369 q 166 353 177 358 q 145 348 156 349 q 124 350 134 347 q 106 360 113 353 q 101 374 102 365 q 103 394 101 383 q 113 415 106 404 q 128 436 119 426 q 131 438 131 438 q 134 441 133 440 q 138 443 136 442 q 163 466 146 451 q 212 507 180 481 l 211 507 q 229 522 219 514 q 250 539 240 531 q 274 558 262 548 q 319 590 294 573 q 374 625 344 607 q 377 627 375 625 q 381 630 378 628 q 385 631 383 631 l 389 633 q 414 647 401 640 q 440 658 427 653 q 484 672 458 666 q 533 676 510 678 q 565 668 549 674 q 593 652 581 663 q 615 625 606 640 q 631 593 624 609 q 640 559 637 577 q 642 521 642 541 q 639 480 642 499 q 623 427 634 453 q 598 381 612 401 l 599 381 q 570 342 585 359 q 541 310 556 324 q 490 268 515 285 q 443 236 466 251 q 455 233 449 235 q 467 228 460 231 q 522 188 497 217 q 542 156 534 174 q 556 117 551 138 q 560 88 559 102 q 561 62 561 74 q 561 42 561 52 q 559 24 560 31 q 554 -9 557 8 q 547 -47 551 -26 q 527 -105 539 -78 q 501 -156 516 -132 q 427 -227 469 -200 q 326 -259 385 -253 q 310 -260 319 -260 q 295 -260 302 -260 q 228 -253 260 -260 q 169 -239 197 -247 q 112 -217 138 -228 q 65 -196 86 -206 q 3 -164 28 -178 q -41 -137 -22 -149 q -49 -133 -45 -135 q -56 -128 -53 -131 q -87 -108 -75 -117 q -110 -93 -100 -100 q -128 -81 -119 -87 q -147 -66 -136 -74 l -146 -66 z "},"4":{"ha":616,"x_min":48,"x_max":560,"o":"m 326 -401 q 318 -437 328 -422 q 290 -459 308 -453 q 272 -456 281 -460 q 255 -446 263 -453 q 243 -431 248 -440 q 236 -411 238 -422 l 236 -412 q 234 -401 235 -406 q 236 -388 234 -396 q 236 -372 236 -382 q 239 -347 237 -362 q 245 -303 240 -331 q 258 -235 249 -275 q 282 -142 267 -195 q 319 -23 297 -90 q 326 -2 323 -13 q 333 18 330 8 l 333 17 q 340 40 337 28 q 348 62 344 51 q 351 70 349 66 q 353 78 352 74 l 353 77 q 368 123 362 102 q 383 165 375 144 q 400 211 390 187 q 424 269 410 236 q 423 268 423 269 q 422 268 422 268 q 420 267 420 267 q 418 266 419 267 l 419 267 q 414 264 416 265 q 410 261 413 263 q 402 258 406 260 q 397 254 399 256 q 375 242 387 249 q 350 228 363 235 l 351 228 q 341 223 347 225 q 331 217 336 220 q 322 213 326 215 q 313 208 318 210 q 305 203 309 206 q 296 198 301 201 q 257 179 277 188 q 213 160 237 169 l 213 161 q 182 149 197 153 q 153 142 167 145 l 154 143 q 131 140 142 140 q 108 141 119 140 q 80 152 92 142 q 64 167 70 158 q 53 186 58 176 q 49 209 49 199 q 48 233 48 220 l 48 241 q 48 247 48 244 q 49 251 49 249 q 49 260 49 256 q 49 269 49 264 q 60 332 53 301 q 60 336 60 335 q 63 340 61 338 q 63 343 63 342 q 64 345 63 344 q 69 365 66 356 q 80 402 75 384 q 89 435 84 420 q 101 476 95 456 q 114 516 108 497 q 126 552 120 535 q 135 581 131 568 q 144 605 140 594 q 152 626 149 616 q 159 645 156 637 q 165 661 163 654 q 172 679 169 671 q 176 690 175 687 q 205 722 185 712 q 242 724 224 731 q 263 697 256 717 q 260 658 269 677 l 261 659 q 257 649 259 653 q 252 638 256 644 q 241 616 248 630 q 224 578 235 602 q 213 551 218 566 q 201 519 208 536 q 180 469 191 496 l 181 469 q 171 446 176 458 q 154 395 163 423 q 137 338 145 367 l 137 339 q 136 336 136 337 q 135 332 135 335 q 132 323 132 326 q 131 318 132 321 q 127 299 129 310 q 122 272 124 288 q 119 252 121 262 q 118 233 118 243 q 116 220 117 226 q 117 210 116 215 q 118 208 117 209 q 119 208 119 208 q 134 208 126 207 q 150 211 142 208 q 178 218 165 214 q 201 227 191 222 q 241 245 223 236 q 275 264 259 254 l 274 264 q 283 268 276 265 q 292 272 289 271 q 344 305 321 288 q 388 335 368 321 q 391 337 390 337 q 393 338 392 338 q 398 342 395 340 q 409 350 403 346 q 419 358 414 353 q 431 365 424 361 q 442 373 437 369 q 453 380 447 376 q 464 388 458 384 q 473 395 469 392 q 483 401 478 398 q 485 408 484 405 q 488 414 487 410 q 490 419 489 415 q 493 427 492 423 l 497 438 q 503 433 499 437 q 512 426 508 430 q 522 417 517 422 q 529 411 526 413 q 541 401 533 408 q 554 383 549 393 q 559 362 560 373 q 546 342 559 351 q 544 338 545 340 q 542 335 543 336 l 533 316 q 531 313 531 315 q 530 310 531 312 q 518 285 524 299 q 503 258 511 271 q 467 175 483 212 q 441 110 452 138 l 441 111 q 439 104 440 106 q 433 93 439 102 q 431 86 432 90 q 428 81 429 83 l 428 81 q 405 17 416 49 q 382 -49 393 -14 q 338 -224 350 -154 q 322 -327 325 -294 q 322 -333 322 -330 q 322 -338 322 -335 l 322 -347 q 322 -365 322 -357 q 324 -381 323 -373 l 324 -379 q 325 -386 325 -383 q 325 -392 325 -390 l 324 -392 q 325 -394 325 -393 q 326 -396 325 -395 q 326 -398 326 -397 q 326 -400 326 -399 l 326 -401 m 429 83 q 429 82 429 82 q 428 81 428 82 l 428 81 l 428 81 q 429 83 428 82 z "},"5":{"ha":756,"x_min":-266,"x_max":735,"o":"m -226 -414 q -258 -377 -250 -399 q -256 -339 -266 -356 q -222 -324 -242 -324 q -203 -326 -213 -324 q -183 -334 -192 -329 q -176 -337 -178 -336 q -173 -340 -174 -338 q -169 -343 -171 -343 q -168 -344 -168 -344 q -167 -344 -167 -344 q -152 -353 -162 -348 q -123 -365 -142 -358 l -124 -365 q -71 -381 -103 -372 q 9 -392 -39 -390 q 64 -388 35 -392 q 125 -374 94 -384 q 193 -344 157 -365 q 267 -297 230 -324 l 266 -297 q 344 -218 305 -265 q 416 -116 383 -171 q 451 -55 434 -88 q 484 11 469 -22 q 512 83 498 43 q 530 159 526 122 q 532 183 532 172 q 529 210 532 198 q 522 232 526 223 l 522 231 q 506 254 515 244 q 488 271 497 263 l 488 270 q 443 291 467 284 q 393 302 419 298 q 362 304 378 303 q 328 305 347 305 q 289 304 310 305 q 242 300 267 303 l 243 300 q 185 291 215 296 q 128 278 156 285 l 128 278 q 120 275 125 276 q 111 273 115 273 q 108 273 110 272 q 108 276 107 273 q 93 267 103 270 q 74 267 83 264 q 59 280 65 270 q 55 309 53 290 q 69 359 57 328 q 109 433 81 389 l 109 432 q 144 518 128 472 q 171 624 159 565 l 166 640 q 178 649 171 642 q 195 665 186 656 l 304 658 l 310 658 q 343 657 328 657 q 374 656 359 656 q 447 658 414 656 q 508 660 480 659 q 587 664 556 663 q 638 667 619 665 q 648 667 643 667 q 657 667 653 667 q 664 668 661 667 q 669 668 667 668 q 691 665 680 668 q 711 657 702 663 q 726 645 720 652 q 733 630 733 638 q 717 595 735 610 q 671 579 699 581 q 659 579 666 579 q 640 579 653 579 q 607 578 628 578 q 552 577 585 578 q 468 577 517 577 q 349 580 418 578 q 331 580 341 580 q 310 581 320 581 q 289 583 299 582 q 272 584 279 583 q 254 584 264 584 q 236 586 244 585 q 228 547 233 566 q 217 506 223 527 q 195 454 207 480 q 171 401 183 428 q 161 384 166 392 q 151 367 156 375 l 152 367 q 147 358 149 362 q 142 349 145 353 q 213 363 180 358 q 274 371 246 368 q 316 374 294 373 q 356 375 338 375 q 414 372 388 375 q 465 363 440 369 l 465 363 q 505 350 485 358 q 540 332 524 342 l 540 332 q 573 302 558 321 q 599 260 589 284 q 610 223 606 242 q 614 183 614 203 q 614 167 614 176 q 613 152 614 158 q 601 94 610 125 q 577 28 592 63 l 578 28 q 550 -29 566 -1 q 521 -81 535 -57 q 517 -89 519 -85 q 513 -96 515 -93 l 513 -95 q 509 -102 511 -99 q 506 -109 507 -106 q 504 -112 504 -110 q 502 -116 503 -115 q 470 -165 487 -140 q 437 -210 453 -190 q 407 -249 422 -231 q 376 -285 392 -267 q 341 -320 360 -303 q 301 -355 323 -337 q 231 -403 265 -383 q 163 -436 196 -424 q 101 -455 131 -448 q 44 -465 70 -462 q 22 -467 33 -467 q 0 -467 10 -467 q -63 -462 -36 -467 q -108 -455 -90 -458 q -149 -444 -133 -449 q -180 -435 -166 -440 l -181 -434 l -195 -428 l -197 -428 q -198 -427 -197 -428 q -209 -423 -203 -425 q -226 -415 -215 -420 l -226 -414 z "},"6":{"ha":876,"x_min":63,"x_max":771,"o":"m 438 593 q 393 600 413 590 q 371 628 374 609 l 372 626 q 372 644 369 635 q 383 661 375 653 q 401 675 390 669 q 426 683 413 681 q 433 685 430 685 q 440 684 436 685 l 443 684 q 445 684 444 684 q 448 683 447 683 l 453 683 q 465 684 458 684 q 478 684 472 684 q 492 684 483 684 q 506 683 500 684 q 532 680 515 683 q 568 674 548 678 q 611 662 588 669 q 660 639 635 655 q 713 592 687 622 q 753 524 738 563 q 766 475 761 502 q 771 420 771 447 q 763 338 771 378 q 748 283 757 313 q 725 224 738 254 q 694 164 712 194 q 656 106 677 133 q 604 48 635 77 q 535 -4 573 18 q 461 -36 502 -24 q 376 -49 420 -49 q 364 -49 370 -49 q 352 -48 357 -49 q 295 -35 325 -45 q 246 -16 266 -26 q 213 2 230 -8 q 183 23 197 13 q 181 24 182 24 q 178 26 180 25 l 177 28 q 127 78 148 53 q 90 135 106 103 q 70 188 78 158 q 63 254 63 217 q 67 309 63 283 q 105 430 75 363 q 190 575 134 497 q 300 708 247 651 q 401 811 354 766 q 485 889 447 855 q 553 947 524 923 q 644 1020 615 997 q 680 1047 673 1042 l 680 1047 q 722 1060 700 1060 q 758 1044 744 1060 q 761 1028 762 1038 q 757 1009 761 1019 q 747 989 753 999 q 730 972 740 979 q 723 967 726 969 q 715 962 719 964 q 714 961 715 961 q 713 960 714 961 l 713 960 q 686 942 703 953 q 638 908 669 930 q 573 858 611 888 q 488 786 535 828 q 434 739 462 764 q 376 682 406 713 q 313 615 348 654 q 246 535 278 575 q 160 386 190 456 q 130 265 130 317 q 134 220 129 240 q 147 184 139 200 q 164 151 154 165 q 185 126 174 137 q 233 87 202 105 q 258 70 244 78 q 287 55 271 63 l 286 55 q 318 43 300 48 q 358 35 337 39 q 370 34 363 35 q 381 34 377 34 q 458 46 417 34 l 457 46 q 523 80 495 60 q 572 119 551 99 q 607 159 592 140 q 635 199 622 178 l 635 198 q 656 235 647 217 q 673 274 665 253 q 697 358 688 311 q 701 389 700 374 q 702 415 702 403 q 699 452 702 435 q 691 486 697 470 q 683 508 688 497 q 670 529 677 519 q 656 548 663 539 q 642 563 649 556 q 612 580 627 573 q 585 591 597 587 l 585 591 q 561 596 574 594 q 537 599 548 598 q 534 600 535 599 q 531 600 533 600 q 522 601 526 601 q 514 601 517 601 q 503 600 508 601 q 492 599 498 600 q 488 599 490 599 q 483 599 485 599 q 482 598 482 599 q 480 598 482 598 q 472 597 476 597 q 464 596 467 597 q 461 595 463 596 q 458 595 459 595 q 448 594 453 594 q 438 593 442 594 z "},"7":{"ha":812,"x_min":-241,"x_max":715,"o":"m 453 152 q 475 151 460 155 q 501 133 491 147 q 510 112 508 123 q 511 92 513 101 q 502 76 521 86 q 499 74 501 75 q 494 72 497 73 q 491 69 492 70 q 484 69 489 69 q 478 67 483 68 q 472 64 476 65 q 464 61 468 63 l 465 62 q 437 51 453 57 q 394 37 420 45 l 394 37 q 381 31 388 34 q 367 24 375 28 q 332 8 352 17 q 288 -7 312 -1 q 278 -9 281 -8 q 271 -10 275 -10 q 214 -83 238 -52 q 169 -142 190 -114 q 158 -156 163 -149 q 147 -171 152 -163 q 127 -197 137 -184 q 105 -225 117 -210 q 28 -323 61 -281 q -30 -397 -6 -365 q -71 -451 -54 -428 q -100 -489 -88 -473 l -107 -499 l -106 -498 q -122 -521 -116 -512 q -134 -538 -128 -531 q -145 -552 -140 -545 q -156 -565 -150 -558 l -156 -565 q -191 -589 -170 -583 q -228 -580 -212 -594 q -238 -566 -235 -574 q -241 -549 -241 -558 q -237 -528 -241 -540 q -226 -508 -233 -517 l -219 -500 q -208 -490 -215 -497 q -185 -463 -201 -483 q -152 -427 -172 -449 q -104 -371 -133 -405 q -36 -290 -75 -337 q 53 -178 2 -242 q 82 -142 69 -159 q 109 -107 95 -125 q 138 -68 122 -89 q 172 -20 153 -47 q 158 -23 165 -22 q 142 -26 151 -24 q 52 -40 83 -35 q 13 -47 22 -45 q 10 -47 12 -47 q 6 -47 8 -47 q -17 -35 -6 -47 q -30 -5 -28 -23 q -26 20 -31 8 q -12 38 -22 33 q 3 44 -4 44 q 17 41 10 44 q 22 41 19 41 q 28 40 25 40 q 40 39 33 40 q 56 39 47 39 q 88 40 69 39 q 134 43 106 41 q 191 51 169 47 q 222 59 212 55 l 232 63 q 280 129 255 95 q 333 199 306 163 q 393 279 367 244 q 438 338 419 314 q 453 358 446 348 q 468 378 460 368 l 481 394 q 514 439 496 415 q 555 499 531 464 q 582 539 569 519 q 610 583 596 560 q 616 594 613 588 q 622 606 619 600 q 624 609 623 608 q 625 611 624 610 l 637 633 l 636 631 q 639 639 638 635 q 641 644 640 642 q 643 649 642 647 q 645 656 644 652 q 631 660 637 658 l 631 659 q 613 661 622 660 q 596 663 604 663 q 563 666 578 665 q 532 666 547 666 q 490 665 510 666 q 452 663 471 665 q 433 662 442 663 q 416 661 424 662 l 417 661 q 362 655 388 658 q 314 650 336 653 q 278 646 295 648 l 279 646 q 272 645 276 645 q 264 644 267 645 q 249 642 256 643 q 219 638 233 640 q 194 633 206 635 q 172 630 181 631 q 155 628 163 629 q 149 626 151 627 q 143 625 146 626 q 139 624 140 624 l 140 625 q 131 623 134 624 q 119 622 127 622 q 97 623 108 621 q 77 631 86 626 q 63 643 69 635 q 56 658 57 650 q 68 692 54 676 q 104 713 82 708 q 108 713 106 713 q 112 713 110 713 q 130 715 118 714 q 163 717 142 715 q 182 719 171 719 q 206 722 194 720 q 208 722 207 722 q 211 722 210 722 q 226 723 217 723 q 242 724 234 723 q 299 729 267 726 q 373 734 332 731 l 379 734 q 382 734 381 734 q 384 735 383 735 q 441 738 409 736 q 506 739 474 739 q 546 738 525 739 q 588 736 567 738 q 603 734 596 735 q 617 732 610 733 q 619 731 618 731 q 622 731 621 731 q 624 731 622 731 q 626 730 625 730 q 628 730 626 731 q 632 730 630 730 q 635 729 633 729 q 660 723 647 728 q 688 710 674 718 q 699 702 692 707 q 708 694 705 698 q 715 679 714 686 q 715 667 715 672 q 715 651 715 660 q 710 635 714 643 q 702 615 708 627 q 692 596 697 603 q 676 565 685 581 q 655 532 667 549 l 656 533 q 632 495 644 514 q 610 460 620 476 q 605 453 606 456 q 601 447 603 450 l 602 448 q 594 435 599 442 l 594 435 q 572 401 583 417 q 553 372 562 385 q 531 340 541 355 q 512 310 521 324 q 481 265 497 288 q 447 216 465 242 q 405 159 428 190 q 353 92 383 129 q 359 95 356 94 q 364 97 361 96 q 368 98 365 98 q 372 99 370 99 q 408 117 396 110 q 424 128 419 124 q 434 136 432 134 q 438 140 435 138 q 444 145 441 143 q 451 151 447 148 l 449 149 l 453 152 z "},"8":{"ha":824,"x_min":-29,"x_max":722,"o":"m 634 413 q 627 429 631 422 q 622 443 624 436 l 622 442 l 619 447 l 617 453 l 615 456 q 598 498 601 478 q 606 532 594 519 q 624 541 613 540 q 647 538 635 542 q 672 524 660 534 q 694 499 684 514 l 694 499 q 697 491 696 496 q 701 482 699 487 q 705 474 703 477 q 708 468 707 470 q 710 462 708 465 q 710 460 710 460 q 713 454 711 458 q 715 446 714 449 q 717 441 715 445 q 720 419 719 433 q 722 384 722 406 q 714 340 721 365 q 692 290 708 315 q 649 243 676 266 q 590 201 623 221 q 514 165 558 182 q 424 133 469 147 q 410 129 417 131 q 395 124 403 127 q 430 103 413 113 q 460 82 447 92 l 460 82 q 511 43 488 63 q 551 2 534 23 q 584 -45 571 -22 q 606 -92 597 -69 q 619 -138 615 -115 q 624 -183 623 -161 q 620 -259 626 -224 q 606 -326 614 -294 q 560 -433 590 -387 q 480 -503 527 -478 q 369 -533 433 -529 q 308 -529 340 -533 q 242 -511 276 -524 l 242 -511 q 167 -479 206 -499 q 92 -425 129 -458 q 15 -330 44 -381 q -24 -233 -15 -278 q -28 -207 -27 -221 q -29 -181 -29 -192 q -21 -119 -29 -148 q -1 -66 -13 -90 q 36 -8 15 -35 q 83 41 58 19 q 135 81 107 61 q 194 117 163 101 q 205 122 199 119 q 217 128 210 124 q 230 134 224 131 q 240 139 236 137 q 206 167 224 151 q 160 213 181 188 q 127 267 139 238 l 127 267 q 114 309 118 288 q 110 351 110 330 q 113 385 110 371 q 125 437 117 414 q 142 481 133 460 q 228 624 176 565 q 289 673 256 654 q 353 699 322 692 q 371 701 362 700 q 392 702 381 702 q 428 698 410 702 q 461 691 446 694 q 491 681 479 686 q 514 670 503 676 q 517 668 514 669 l 515 669 q 522 666 519 668 q 528 663 524 664 q 557 644 548 651 q 570 635 565 638 q 572 634 571 634 q 576 630 573 633 q 578 629 576 629 q 581 627 580 628 l 585 624 q 606 601 599 614 q 616 576 614 588 q 616 552 619 563 q 607 535 614 542 q 589 527 599 528 q 569 529 579 526 q 548 538 558 532 q 527 553 538 544 q 522 557 526 554 q 516 563 519 560 q 509 568 513 565 q 502 574 505 571 l 496 580 q 494 581 495 581 q 493 581 494 581 l 497 578 q 486 586 491 581 q 476 592 482 588 q 464 598 469 595 q 440 608 453 603 q 408 616 426 613 q 388 618 396 618 q 359 615 374 618 q 328 603 344 612 l 328 604 q 281 565 304 590 q 238 504 258 540 q 218 465 228 486 q 198 421 208 443 l 199 422 q 189 384 193 404 q 184 344 184 365 q 184 336 184 342 q 185 325 185 330 q 202 278 189 303 q 233 235 215 254 q 274 203 251 219 q 319 172 296 186 q 352 183 337 178 q 384 194 368 189 q 458 220 424 207 q 520 247 491 233 q 564 273 544 260 q 598 301 584 286 q 620 327 612 315 q 632 350 628 340 l 632 349 q 637 370 635 360 q 638 386 638 379 q 635 410 638 398 l 635 410 q 634 412 635 411 q 634 414 634 413 l 634 413 m 313 96 q 266 76 290 87 q 217 53 242 65 l 218 53 q 160 16 190 37 q 104 -34 131 -6 l 104 -33 q 63 -93 81 -60 q 43 -166 45 -127 q 58 -245 42 -205 q 101 -320 75 -286 l 101 -319 q 174 -384 132 -353 q 265 -432 217 -415 l 264 -432 q 322 -446 292 -442 q 374 -449 352 -451 q 417 -441 398 -447 q 451 -428 437 -436 q 478 -408 467 -419 q 499 -385 490 -397 q 517 -357 509 -372 q 531 -326 526 -341 q 543 -288 538 -309 q 551 -245 549 -267 q 556 -194 556 -220 q 554 -169 556 -182 q 549 -140 553 -156 q 527 -79 544 -110 q 482 -21 511 -49 q 409 38 452 10 q 313 97 365 66 l 313 96 m 634 412 q 635 410 635 410 q 634 412 634 411 z "},"9":{"ha":664,"x_min":74,"x_max":592,"o":"m 234 -576 q 223 -618 234 -601 q 191 -636 212 -635 q 159 -619 172 -636 q 145 -576 145 -601 q 145 -565 145 -571 q 147 -552 145 -560 l 147 -554 q 147 -549 147 -556 q 149 -536 148 -542 q 150 -524 149 -531 q 151 -509 150 -517 l 151 -510 q 157 -456 153 -489 q 170 -375 161 -423 q 194 -261 178 -326 q 233 -112 209 -197 q 242 -84 238 -99 q 250 -55 246 -70 q 276 40 262 -10 q 307 143 290 90 q 344 254 324 197 q 388 367 365 310 q 424 451 408 417 q 453 514 440 486 q 420 495 438 505 q 385 476 403 485 l 385 476 q 322 441 356 460 q 251 408 288 423 q 209 393 231 400 q 162 385 188 387 q 131 387 148 384 q 99 403 115 390 q 84 421 90 410 q 77 442 78 432 q 75 458 76 449 q 77 474 74 466 q 84 497 78 485 q 97 519 90 509 l 97 519 q 110 537 103 530 q 127 552 117 544 q 153 574 141 565 q 179 591 166 583 q 222 615 200 604 q 264 636 244 626 q 269 639 265 637 q 275 642 274 641 q 314 656 295 649 l 326 661 q 339 666 332 664 q 350 671 345 669 q 430 698 400 689 q 474 712 460 708 l 473 712 q 479 714 476 713 q 484 715 483 715 q 486 716 485 715 q 488 716 487 716 q 533 711 513 722 q 559 681 553 701 q 549 653 560 667 q 551 649 550 650 q 559 642 556 647 q 568 635 563 639 q 576 627 572 631 q 586 616 581 622 q 591 604 591 610 q 586 592 592 598 q 566 579 581 585 q 555 553 560 566 q 544 527 549 540 q 528 488 536 507 q 513 448 521 468 q 495 405 504 427 q 474 355 485 382 l 475 356 q 466 333 471 344 q 456 310 461 322 q 449 294 453 302 q 442 276 445 285 q 434 258 438 267 q 426 240 430 249 q 398 171 410 202 q 376 114 386 140 q 358 65 366 88 q 343 21 350 42 q 319 -56 331 -17 q 296 -139 306 -96 q 266 -264 277 -210 q 248 -360 254 -319 q 238 -432 241 -402 q 234 -482 235 -462 l 234 -576 m 489 616 q 497 622 493 619 q 505 626 501 624 l 503 626 q 499 625 503 626 q 493 623 495 624 q 465 617 483 621 q 412 603 447 613 l 413 603 q 407 602 410 602 q 401 600 404 601 l 392 598 l 393 598 q 334 578 369 590 q 251 542 300 566 q 224 530 237 537 q 199 514 211 522 q 174 496 186 506 q 155 474 163 487 q 148 456 148 465 q 185 459 161 455 q 186 459 185 459 q 188 460 188 460 q 207 466 197 463 q 227 474 217 470 q 298 504 265 488 q 357 535 331 521 q 360 537 358 536 q 363 538 362 538 l 363 538 q 365 540 364 539 q 369 542 367 541 q 377 547 374 545 q 385 551 381 549 q 392 555 388 553 q 399 559 396 558 q 441 584 422 573 q 472 604 459 595 q 477 608 475 606 q 482 611 480 610 q 488 616 488 617 q 489 616 488 615 z "}," ":{"ha":1302,"x_min":0,"x_max":0,"o":""},"e":{"ha":961,"x_min":-83,"x_max":1149,"o":"m 47 367 q 74 378 63 374 q 92 385 84 383 q 107 390 100 388 q 122 394 114 392 l 124 395 q 163 389 145 400 q 183 358 180 378 q 174 326 185 340 q 145 306 163 311 l 146 306 q 138 304 141 304 q 132 303 135 303 q 122 303 128 303 q 100 299 115 302 q 92 297 94 297 q 63 288 80 294 q 26 267 47 281 l 26 267 q 7 249 17 260 q -9 224 -3 239 q -11 214 -10 219 q -12 203 -12 209 q -9 176 -12 190 q 3 145 -5 161 q 40 107 13 124 q 72 89 55 97 q 106 76 88 81 q 290 49 183 51 q 343 50 320 48 q 386 53 367 51 l 394 53 q 431 56 414 54 q 467 61 447 58 q 511 69 489 65 q 560 81 534 74 l 560 81 q 630 105 590 90 q 722 143 669 119 l 721 143 q 815 193 773 169 q 890 239 857 217 q 951 280 926 262 q 994 312 976 298 q 1042 350 1025 336 q 1067 371 1060 364 q 1071 374 1069 372 q 1103 385 1086 385 q 1123 381 1114 385 q 1139 369 1133 376 q 1149 341 1149 356 q 1143 319 1149 330 q 1128 301 1138 308 q 1127 300 1128 300 q 1126 299 1126 300 q 1116 292 1123 297 q 1098 280 1110 288 q 1092 276 1095 278 q 1086 272 1090 274 q 1076 265 1081 268 q 1064 257 1070 261 q 1056 252 1060 254 q 1047 246 1051 249 q 1041 242 1044 244 q 1036 239 1039 240 l 1037 239 q 1001 217 1021 229 q 956 189 981 204 q 869 139 919 167 q 750 81 819 111 q 638 36 685 52 q 556 9 591 20 q 492 -8 520 -1 q 442 -21 465 -15 q 400 -28 422 -25 q 351 -34 377 -31 q 329 -36 341 -35 q 305 -36 317 -36 q 261 -34 285 -36 q 211 -28 237 -33 q 113 -5 157 -20 q 41 26 69 11 q 13 42 28 33 q -14 62 -3 52 q -40 87 -28 73 q -60 120 -51 101 l -60 119 q -77 164 -72 142 q -83 208 -83 186 q -81 234 -83 224 q -62 281 -76 261 q -35 313 -49 300 q 11 348 -11 335 q 48 368 33 360 l 47 367 l 47 367 z "},"f":{"ha":1007,"x_min":-32,"x_max":1198,"o":"m 64 -694 q 64 -697 64 -695 q 63 -701 63 -698 l 63 -701 q 51 -733 58 -718 q 36 -759 44 -749 q 18 -775 28 -770 q -1 -778 8 -781 q -24 -759 -15 -774 q -32 -721 -32 -744 q -31 -702 -32 -712 q -28 -682 -31 -692 q -25 -670 -27 -676 q -21 -654 -24 -663 q -16 -631 -19 -644 q -8 -597 -12 -617 q -1 -571 -4 -585 q 5 -540 1 -556 l 5 -540 q 21 -418 12 -492 q 43 -231 31 -344 q 69 15 60 -85 q 84 182 78 116 q 91 283 89 247 q 93 333 92 318 q 93 337 93 335 q 94 342 94 340 l 94 347 q 112 375 97 365 q 146 383 126 385 q 176 366 164 381 q 186 332 188 352 q 185 332 185 331 q 185 329 185 331 q 185 326 185 327 q 180 302 183 319 q 169 244 176 284 q 153 135 163 203 q 131 -42 144 66 q 193 184 158 60 q 279 458 229 308 q 336 623 309 547 q 390 764 364 699 q 439 882 415 828 q 485 981 463 936 q 530 1067 508 1028 q 573 1139 552 1106 q 616 1199 594 1172 q 659 1249 637 1226 q 710 1294 683 1274 q 769 1326 736 1314 l 768 1325 q 789 1333 780 1331 q 804 1336 797 1335 l 803 1335 q 815 1338 810 1338 q 823 1340 819 1339 l 831 1340 q 850 1335 839 1340 q 867 1319 862 1329 q 874 1303 873 1310 q 876 1286 876 1294 q 876 1273 876 1278 q 874 1265 875 1269 q 872 1254 873 1260 q 868 1240 870 1248 q 864 1226 866 1233 l 862 1219 q 835 1151 850 1186 q 801 1075 820 1115 q 759 989 782 1035 q 707 890 735 943 q 627 741 663 807 q 560 620 590 675 q 549 601 554 610 q 538 581 544 591 q 526 559 533 572 q 513 537 519 547 q 498 509 506 523 q 483 483 490 495 q 462 446 472 464 q 442 410 452 428 l 415 362 l 416 362 q 378 293 398 328 q 335 219 358 257 q 392 215 365 215 l 395 215 q 422 214 409 214 q 447 213 434 213 q 478 214 463 213 q 508 215 493 214 q 609 222 560 217 q 699 235 657 227 q 832 265 778 249 q 924 294 887 281 q 961 308 946 302 q 988 319 976 314 q 1008 328 999 324 q 1024 335 1017 332 l 1025 336 q 1027 338 1026 336 q 1060 353 1045 346 q 1094 370 1076 360 q 1127 383 1110 378 q 1158 388 1144 388 q 1194 370 1184 388 l 1194 371 q 1195 352 1198 363 q 1185 330 1193 342 q 1164 307 1177 319 q 1135 288 1151 296 q 1121 281 1129 284 q 1103 274 1113 277 l 1102 274 q 1095 270 1099 272 q 1088 267 1091 268 l 1088 267 q 1059 255 1076 262 q 1017 239 1042 249 q 916 206 978 225 q 763 169 854 186 q 662 153 718 160 q 538 144 606 147 q 507 143 523 143 q 474 142 490 142 q 396 144 436 142 q 357 147 377 146 q 316 151 336 149 l 301 153 q 283 156 296 154 q 262 160 269 158 q 227 30 243 91 q 197 -87 210 -31 q 159 -245 176 -173 q 130 -376 143 -317 q 124 -405 126 -391 q 117 -432 121 -419 l 118 -431 q 95 -539 105 -492 q 79 -619 86 -586 q 76 -635 78 -628 q 73 -649 74 -643 l 64 -694 m 345 438 q 322 365 333 400 q 301 295 311 329 q 384 447 341 367 q 474 618 426 526 q 593 847 531 726 q 722 1106 656 967 l 722 1106 q 754 1177 739 1143 q 781 1244 769 1211 q 746 1220 763 1234 q 713 1193 728 1207 q 650 1120 680 1160 q 587 1022 620 1078 q 517 889 554 965 q 436 698 480 809 q 345 438 393 587 z "},"a":{"ha":1021,"x_min":-134,"x_max":1206,"o":"m 108 380 q 144 394 125 394 q 164 390 154 394 q 180 378 173 385 q 187 343 191 363 q 166 308 183 324 q 163 306 164 308 q 160 304 161 305 q 158 303 159 303 q 147 295 154 301 q 125 278 139 290 l 126 279 q 93 250 113 268 q 48 206 74 233 l 45 203 l 46 203 q 19 173 33 190 q -8 138 5 156 l -8 138 q -33 99 -20 121 q -57 49 -47 77 q -23 68 -41 57 q 14 91 -5 79 q 103 151 57 118 q 106 152 105 152 q 108 154 107 153 q 128 169 119 163 l 141 178 q 144 181 142 179 q 148 184 147 183 l 161 185 l 192 185 l 203 176 q 205 175 205 176 q 207 174 206 174 q 214 170 209 172 q 233 159 218 167 q 279 136 248 151 q 365 92 310 120 q 403 77 383 85 q 445 63 424 70 q 491 52 465 58 q 551 43 517 47 q 565 42 557 42 q 581 42 574 42 q 603 43 590 42 q 631 46 617 44 q 680 57 653 49 q 733 78 706 65 q 843 138 796 107 q 926 194 890 168 q 993 245 964 222 q 1042 287 1022 269 q 1089 331 1069 311 q 1118 361 1108 351 l 1124 366 q 1143 379 1132 374 q 1164 383 1153 383 q 1179 381 1172 383 q 1192 373 1186 378 q 1206 342 1206 361 q 1201 320 1206 331 q 1187 299 1197 309 q 1181 294 1184 297 q 1170 285 1177 291 q 1151 269 1163 278 q 1119 243 1139 259 q 1070 204 1101 227 q 1000 152 1040 181 q 955 122 981 138 q 898 87 928 105 q 833 50 867 69 q 763 15 799 32 q 689 -11 726 -1 q 622 -24 652 -21 q 600 -25 613 -25 q 578 -26 588 -26 q 546 -25 563 -26 q 516 -22 529 -24 q 442 -11 477 -18 q 381 4 408 -3 q 331 20 355 12 q 278 40 306 28 q 248 54 264 47 q 216 72 233 62 l 217 71 q 215 72 215 72 q 213 73 215 72 q 197 82 206 77 q 179 92 188 87 q 175 95 176 94 q 171 98 175 95 q 81 44 122 67 q 8 4 40 21 q -25 -11 -7 -3 q -62 -24 -43 -19 q -76 -27 -69 -26 q -92 -28 -84 -28 q -112 -21 -101 -26 q -126 -8 -121 -16 q -133 10 -132 0 l -133 8 q -133 24 -134 17 q -131 40 -133 32 l -132 40 q -130 50 -131 43 q -126 63 -128 56 l -126 62 q -101 123 -115 97 q -74 169 -87 149 q -47 207 -60 190 q -23 238 -35 224 q 14 283 -3 263 q 42 315 31 302 l 48 319 q 56 328 53 324 q 62 335 58 331 q 87 360 78 351 q 108 380 96 369 m -78 42 q -78 41 -78 42 q -79 41 -78 41 q -78 42 -78 41 m -64 31 q -63 32 -63 31 q -64 31 -63 31 z "},"b":{"ha":1007,"x_min":-12,"x_max":1197,"o":"m 1191 372 q 1197 353 1197 365 q 1189 329 1196 342 q 1171 304 1183 317 q 1142 280 1159 291 q 1124 269 1135 275 q 1094 251 1114 263 q 1039 221 1074 240 q 949 177 1003 201 q 809 118 892 151 q 608 53 725 85 l 608 53 q 475 18 548 35 q 328 -13 403 1 q 319 -15 322 -15 q 316 -15 318 -15 q 312 -15 313 -15 q 308 -16 310 -16 q 306 -17 307 -16 q 298 -18 301 -17 q 290 -19 295 -19 q 283 -22 288 -21 q 276 -24 279 -23 l 269 -26 q 266 -28 268 -27 q 258 -31 263 -29 q 256 -31 257 -31 q 253 -31 254 -31 l 224 3 q 219 10 222 3 q 219 27 217 18 q 229 43 221 36 q 256 50 238 51 q 258 50 258 50 q 260 51 259 51 q 267 52 264 51 q 274 53 271 52 l 276 53 q 317 73 297 62 q 393 121 353 92 q 465 182 433 150 q 489 215 478 198 q 504 249 500 231 q 506 265 506 256 q 502 286 506 276 q 492 306 498 297 q 486 313 489 310 q 482 318 483 316 q 480 321 478 319 q 470 321 474 322 q 460 318 465 319 q 428 302 444 310 q 401 283 413 293 q 357 250 379 269 q 313 213 335 231 l 300 202 q 274 179 288 191 q 249 156 261 167 q 236 144 243 150 q 223 132 228 138 l 221 130 q 218 128 219 128 q 216 126 217 127 q 196 107 206 116 q 177 88 187 97 q 129 44 153 65 q 79 2 105 22 q 75 -1 77 1 q 71 -5 73 -3 q 64 -10 67 -7 q 60 -14 61 -12 l 55 -15 l 52 -16 l 53 -15 q 44 -20 48 -18 q 34 -24 40 -23 q 20 -23 28 -24 q 3 -17 11 -22 q -8 -2 -6 -8 q -10 10 -10 4 q -10 29 -12 22 q -8 37 -9 33 q -6 46 -7 42 q -2 59 -4 52 q 1 72 0 65 q 3 81 3 77 q 6 90 4 85 q 7 97 6 94 q 8 102 8 100 q 10 108 9 105 q 13 114 11 110 q 47 220 30 169 q 85 330 64 272 q 89 344 86 336 q 97 361 92 353 l 96 359 q 123 429 108 392 q 155 508 138 466 q 192 600 172 551 q 238 705 213 649 q 355 961 304 854 q 447 1140 406 1067 l 446 1140 l 448 1144 q 449 1146 449 1145 q 451 1148 450 1147 l 460 1163 q 475 1190 467 1177 q 491 1216 483 1203 q 515 1251 502 1233 q 547 1288 528 1269 q 557 1296 552 1292 q 568 1303 563 1300 q 590 1311 578 1310 q 615 1308 603 1313 q 634 1297 624 1305 q 649 1281 643 1290 q 661 1249 659 1265 q 663 1219 663 1236 q 660 1182 663 1200 q 654 1147 658 1164 q 634 1074 646 1110 q 610 1006 622 1038 q 584 944 598 974 q 558 888 570 914 q 509 791 535 838 q 461 706 483 744 q 381 578 417 631 q 321 492 345 526 q 277 435 297 459 q 245 394 258 410 l 235 382 q 215 358 225 370 q 192 333 204 347 q 180 321 186 327 q 167 310 173 315 q 123 192 142 244 q 106 147 114 168 q 90 105 98 126 l 105 117 l 126 136 q 140 149 133 142 q 155 163 147 156 l 155 163 q 160 168 158 166 q 165 172 162 169 q 193 197 178 183 q 224 224 208 211 q 261 257 240 239 q 301 290 281 274 l 301 290 q 344 325 321 307 q 400 362 367 342 q 417 371 408 366 q 433 379 426 376 q 454 386 443 383 q 480 389 465 390 q 500 386 490 389 q 519 375 510 383 q 528 366 523 372 q 537 358 533 361 q 549 340 542 350 q 562 320 556 331 q 571 293 567 308 q 574 265 574 278 q 566 218 574 239 l 566 219 q 545 175 558 195 q 517 136 533 155 q 497 115 506 124 q 476 96 488 106 q 491 100 483 98 q 506 104 499 102 q 700 164 616 133 q 847 223 784 194 q 952 273 908 249 q 1025 315 996 297 q 1067 341 1049 330 q 1092 358 1084 353 q 1122 375 1107 369 q 1151 383 1138 381 q 1174 383 1164 385 q 1191 372 1185 381 m 453 997 q 359 785 407 897 q 261 549 312 674 q 311 617 284 579 q 369 699 339 654 q 424 789 394 740 q 482 894 453 839 q 510 954 496 922 q 540 1023 525 985 q 568 1096 555 1058 q 589 1175 581 1133 q 595 1219 594 1199 q 593 1238 595 1229 q 580 1222 587 1231 q 567 1206 572 1213 l 567 1206 q 509 1107 536 1160 q 453 997 481 1055 l 453 997 z "},"c":{"ha":1032,"x_min":6,"x_max":1218,"o":"m 1141 381 q 1174 392 1156 392 q 1209 376 1194 392 q 1218 349 1218 365 q 1213 327 1218 338 q 1198 308 1208 316 q 1192 304 1194 305 q 1190 303 1190 303 q 1188 301 1190 302 l 1182 297 q 1161 285 1175 293 q 1122 259 1147 276 l 1122 258 l 1116 254 q 1114 253 1115 253 q 1112 251 1113 252 q 1107 248 1110 250 q 1103 245 1104 247 q 1042 206 1078 228 q 949 153 1005 183 l 950 153 q 880 118 919 137 q 791 79 840 99 q 688 41 743 60 q 566 7 632 22 q 441 -15 501 -8 q 322 -23 380 -22 q 212 -16 263 -23 q 117 10 161 -8 l 118 9 q 72 33 93 19 q 35 65 51 47 q 13 111 19 84 l 13 110 q 7 134 8 122 q 7 158 6 147 q 18 228 8 195 q 40 286 27 261 q 70 331 53 310 q 100 365 86 352 q 126 386 112 376 q 155 404 141 396 q 184 420 173 415 q 201 428 195 425 q 210 431 204 431 q 231 433 221 434 q 250 427 242 432 q 264 415 258 422 q 272 398 269 407 q 265 365 275 381 q 236 342 255 349 l 238 344 q 233 342 236 343 q 228 340 230 340 q 224 339 228 340 q 218 336 221 338 q 214 335 216 335 q 208 333 211 334 q 195 328 202 331 q 181 320 188 325 l 181 320 q 159 305 171 314 q 135 283 147 297 q 109 250 122 269 q 89 206 97 231 q 79 144 81 178 q 84 120 78 132 q 102 98 90 108 q 136 76 117 85 q 177 61 155 67 q 226 50 199 54 q 283 44 253 46 q 305 43 292 44 q 326 43 317 43 q 435 50 378 43 q 551 71 491 57 q 658 101 608 84 q 752 135 708 117 q 828 169 792 151 q 894 203 865 188 l 894 203 q 990 261 950 234 q 1052 305 1029 288 q 1090 336 1074 323 q 1115 358 1105 349 q 1118 361 1116 360 q 1122 364 1119 363 q 1131 374 1127 369 q 1141 381 1135 378 z "},"d":{"ha":1091,"x_min":-91,"x_max":1288,"o":"m 1284 369 q 1285 351 1288 361 q 1274 330 1282 340 q 1252 308 1265 319 q 1223 290 1240 298 q 1216 288 1219 289 q 1211 285 1213 286 q 1206 283 1208 283 q 1201 281 1204 282 q 1190 276 1197 278 q 1173 269 1183 274 q 1146 258 1162 265 q 1108 242 1131 251 q 1081 230 1096 236 q 1050 217 1067 224 q 1025 205 1038 211 q 997 194 1011 199 q 939 168 971 182 q 871 139 907 155 q 851 131 861 135 q 831 122 841 126 l 806 111 q 739 83 774 98 q 665 52 703 68 q 601 28 634 40 q 532 3 567 15 l 526 1 q 523 1 524 1 q 520 0 522 1 l 521 0 q 515 -2 518 -1 q 509 -3 512 -2 q 478 -13 493 -9 q 453 -19 463 -17 l 454 -19 q 441 -21 447 -20 q 430 -22 435 -22 l 422 -22 l 418 -22 q 410 -21 414 -22 q 401 -18 407 -21 q 386 -5 392 -13 q 378 10 380 3 l 378 9 q 373 34 374 21 q 373 58 372 47 l 373 60 q 373 63 373 62 q 374 66 374 65 q 391 162 378 108 q 415 267 403 215 q 421 286 419 278 q 424 301 423 295 q 332 194 376 242 q 246 107 288 147 q 162 36 204 69 q 72 -17 120 4 q 46 -27 60 -23 q 19 -33 31 -31 q -13 -32 5 -34 q -45 -21 -31 -29 l -44 -22 q -60 -11 -52 -17 q -75 3 -69 -5 q -89 39 -87 21 q -89 67 -91 53 q -84 92 -87 81 q -70 130 -77 115 q -57 159 -64 145 q -42 185 -49 172 q -27 209 -34 199 q 0 247 -13 230 q 22 278 13 265 q 54 318 41 302 q 74 341 67 334 q 99 364 85 354 q 125 378 113 374 q 149 383 138 383 q 167 376 160 383 q 175 359 174 369 q 173 335 176 348 q 162 308 169 322 q 144 282 154 294 q 138 274 141 278 q 130 265 134 270 q 127 262 128 264 q 123 258 125 260 q 119 253 122 256 q 115 248 117 250 q 109 242 111 244 q 93 223 101 233 q 74 199 85 213 l 72 197 q 70 195 71 196 q 69 192 70 194 q 45 160 58 178 q 22 125 32 142 l 22 124 q 9 101 16 114 q -2 74 3 88 q -5 64 -3 69 q -6 53 -6 58 l -6 51 q 7 49 -1 49 q 48 59 27 49 l 49 59 q 89 82 67 68 q 133 113 111 97 q 178 151 155 130 q 227 197 202 173 q 276 247 251 221 q 325 299 301 272 q 399 386 360 339 q 475 483 437 433 q 477 488 475 485 q 559 739 515 606 q 662 1012 604 871 q 729 1166 697 1099 q 792 1289 760 1233 l 792 1290 q 793 1293 793 1291 q 795 1296 794 1294 q 796 1296 795 1296 q 810 1319 803 1308 q 824 1340 817 1331 l 824 1339 q 835 1353 830 1347 q 844 1364 841 1360 q 857 1373 850 1369 q 872 1381 864 1378 l 872 1381 q 885 1384 877 1383 q 902 1383 893 1385 l 902 1383 q 920 1376 913 1381 q 932 1364 926 1371 q 950 1329 944 1348 q 957 1294 956 1310 q 958 1263 958 1279 q 955 1232 957 1246 q 942 1172 951 1203 q 921 1108 933 1140 q 893 1040 909 1077 q 858 963 877 1002 q 813 876 838 922 q 757 777 788 830 q 687 664 726 724 q 601 536 649 604 l 590 522 l 590 522 q 567 488 578 505 q 544 456 556 472 q 539 440 542 448 q 534 425 536 433 q 528 406 531 415 q 522 388 525 397 l 522 389 l 518 374 q 513 358 516 365 q 490 280 500 317 q 469 204 479 243 q 461 167 465 185 q 453 128 457 148 q 452 125 453 126 q 452 123 452 124 q 445 86 449 105 q 442 49 442 68 q 470 57 455 52 q 501 67 485 62 q 559 88 532 78 q 613 109 587 98 q 710 149 665 130 q 792 186 754 169 q 922 246 869 221 q 1011 289 974 271 q 1070 318 1047 306 q 1113 339 1094 330 q 1148 356 1132 349 q 1183 374 1163 364 q 1215 385 1199 381 q 1244 388 1231 388 q 1284 370 1274 388 l 1284 369 m 666 794 q 655 765 658 775 q 649 750 651 756 q 646 743 647 745 q 644 738 645 741 q 640 727 642 734 q 632 706 637 720 q 745 897 697 807 q 825 1054 794 986 q 855 1136 841 1094 q 877 1214 869 1178 q 883 1277 885 1249 q 882 1291 883 1287 q 880 1281 881 1294 l 856 1237 q 829 1183 842 1210 q 802 1125 816 1156 q 741 980 776 1066 q 666 794 706 893 z "},"g":{"ha":1120,"x_min":-240,"x_max":1315,"o":"m 1310 370 q 1313 351 1315 362 q 1305 330 1312 341 q 1287 309 1298 319 q 1262 290 1276 298 q 1257 287 1260 288 q 1252 285 1255 286 q 1247 282 1250 283 q 1237 276 1244 279 l 1238 277 q 1213 264 1229 272 q 1164 237 1197 255 l 1164 238 q 1085 193 1133 220 q 967 122 1038 165 l 967 122 q 802 18 897 78 q 583 -130 706 -43 q 440 -237 516 -177 q 287 -364 365 -297 q 205 -438 246 -399 q 122 -519 163 -476 q 84 -558 101 -540 q 47 -599 67 -577 q 0 -705 22 -657 q -42 -795 -22 -753 l -42 -796 q -45 -802 -43 -799 q -48 -809 -47 -806 q -50 -813 -49 -811 q -51 -817 -50 -815 q -54 -824 -53 -819 q -92 -898 -74 -865 q -123 -964 -111 -932 q -140 -1000 -128 -980 q -164 -1036 -151 -1019 q -190 -1064 -176 -1053 q -215 -1069 -203 -1074 q -233 -1042 -226 -1065 q -240 -971 -240 -1019 q -231 -897 -240 -934 l -232 -898 q -190 -785 -219 -844 q -117 -666 -162 -730 q 3 -525 -71 -603 q 37 -438 20 -483 q 72 -340 54 -393 q 140 -110 112 -219 q 184 88 169 -1 q 169 80 176 83 q 155 74 162 77 l 156 75 q 109 60 133 65 q 60 58 85 55 q 10 78 33 62 q -7 94 1 85 q -22 112 -15 103 q -39 150 -33 129 q -46 188 -46 170 q -41 224 -46 208 q -29 254 -35 241 q -2 294 -17 277 q 26 324 13 312 q 67 356 53 347 q 88 370 81 366 q 117 384 102 380 q 145 388 132 388 q 172 382 160 388 q 185 367 183 376 l 185 368 q 186 349 189 359 q 177 329 184 339 q 160 309 170 319 q 138 292 149 300 q 132 288 136 291 q 129 286 131 287 q 128 286 127 285 q 116 278 122 283 q 99 267 109 274 q 83 255 92 262 q 67 240 74 247 q 51 218 59 231 q 40 190 43 206 q 48 161 38 178 q 59 148 53 153 q 72 140 65 142 q 100 141 85 138 q 131 151 115 144 q 168 171 147 158 q 206 197 188 184 l 207 198 q 210 201 208 199 q 214 204 213 203 q 216 206 215 206 q 221 209 217 207 l 231 216 q 235 214 233 215 q 240 212 238 213 l 244 210 q 255 205 246 208 q 276 194 263 201 l 275 175 l 275 172 l 276 167 l 274 160 q 272 146 273 153 q 270 131 272 139 l 268 121 q 267 115 267 118 q 266 110 267 113 q 265 106 265 108 q 265 102 265 104 l 265 103 q 263 89 264 96 q 260 74 261 81 q 246 10 254 45 q 230 -56 238 -24 q 211 -127 222 -88 q 188 -207 200 -166 q 163 -287 176 -247 q 138 -362 150 -328 q 133 -376 135 -370 q 130 -387 131 -381 q 127 -395 127 -394 q 126 -397 126 -397 q 125 -402 126 -399 q 122 -410 124 -405 q 151 -385 136 -398 q 178 -361 166 -372 l 177 -362 q 181 -359 178 -360 q 184 -356 183 -358 q 256 -295 222 -324 q 319 -244 290 -267 q 432 -156 376 -198 q 552 -67 488 -114 q 742 65 660 9 q 888 161 825 120 q 994 230 951 202 q 1069 278 1038 258 q 1085 288 1077 283 q 1099 297 1092 292 l 1098 297 q 1127 315 1115 307 q 1163 337 1147 328 q 1192 355 1178 346 q 1203 362 1198 358 q 1215 369 1209 365 q 1247 382 1231 378 q 1275 387 1263 387 q 1310 370 1301 387 l 1310 370 m 127 -395 q 128 -394 127 -395 l 127 -395 z "},"h":{"ha":1567,"x_min":-15,"x_max":1759,"o":"m 1753 376 q 1758 358 1759 369 q 1751 334 1757 347 q 1733 309 1744 322 q 1706 285 1722 296 q 1702 282 1705 283 q 1698 279 1700 281 l 1699 280 q 1697 278 1697 278 l 1696 278 q 1681 268 1690 274 q 1658 253 1672 263 q 1602 219 1638 241 q 1519 169 1566 197 q 1459 136 1493 154 q 1385 98 1426 118 q 1294 57 1346 79 q 1183 16 1242 35 q 1117 -3 1151 6 q 1048 -18 1084 -12 q 992 -25 1022 -22 q 931 -28 963 -28 q 909 -28 921 -28 q 887 -26 897 -28 q 796 -11 843 -24 q 706 22 749 1 q 620 82 661 46 q 547 164 578 117 q 498 251 517 208 q 490 271 494 260 q 483 291 486 281 q 429 257 455 273 q 379 224 403 240 q 267 151 318 185 q 173 86 217 117 q 132 57 151 71 q 94 29 113 43 q 87 25 91 28 q 79 18 83 22 q 71 13 75 15 q 58 2 67 10 q 56 1 56 1 q 48 -12 55 -3 q 30 -22 41 -21 q 25 -30 27 -26 q 23 -35 24 -34 l -15 3 l -14 17 l -13 40 q -11 41 -12 40 q -7 42 -10 41 l -2 48 q 6 66 1 58 q 13 83 10 74 l 13 82 q 32 125 23 104 q 50 166 41 146 l 49 165 q 58 186 53 176 q 67 206 63 197 l 67 206 q 77 229 72 218 q 87 251 82 240 q 95 270 92 263 q 101 285 98 277 q 103 289 103 288 q 104 291 103 290 q 105 294 104 292 q 108 302 106 297 q 98 308 104 304 q 90 315 91 312 q 88 334 85 324 q 97 356 90 344 q 114 379 103 367 q 138 401 125 391 q 144 407 140 403 q 149 411 147 410 q 154 415 151 413 q 161 420 158 417 q 224 562 189 483 q 309 747 260 641 q 314 758 311 751 q 319 769 317 765 q 349 835 334 803 q 377 896 364 867 q 395 935 387 916 q 413 974 404 954 q 467 1090 442 1035 q 512 1187 492 1144 q 515 1192 513 1190 q 514 1193 514 1192 q 515 1194 515 1194 q 522 1208 519 1202 q 528 1222 525 1215 q 539 1245 534 1234 q 549 1267 544 1256 l 549 1266 q 558 1285 553 1276 q 567 1304 563 1295 l 572 1313 q 575 1319 573 1315 q 579 1326 578 1323 l 581 1328 l 581 1329 q 584 1334 583 1332 q 588 1339 586 1336 l 588 1338 l 589 1336 q 594 1345 592 1342 q 599 1351 597 1349 q 613 1358 604 1354 q 631 1360 622 1361 q 655 1350 645 1359 q 667 1333 664 1340 q 672 1316 671 1324 q 673 1302 673 1308 q 673 1282 674 1292 q 671 1263 672 1271 q 670 1261 671 1263 q 670 1260 670 1260 l 670 1253 q 663 1211 668 1235 q 650 1160 657 1188 q 607 1019 630 1084 q 561 898 583 954 q 517 796 538 843 q 475 710 495 749 q 400 577 434 631 q 339 487 365 523 q 294 429 314 452 q 258 389 274 406 l 258 388 q 239 369 248 378 q 221 352 231 361 q 188 280 201 309 q 164 228 175 251 q 143 183 153 205 q 118 131 133 161 q 155 156 136 144 q 194 183 173 169 q 278 239 233 210 q 377 304 323 269 q 398 317 388 310 q 419 331 408 324 l 426 335 q 429 338 427 337 q 433 340 431 338 q 448 349 440 344 q 463 358 455 353 l 460 356 q 462 357 461 357 q 463 358 463 357 q 466 361 465 359 q 469 363 467 363 q 476 366 472 364 q 482 369 480 368 l 483 362 l 483 369 q 490 371 488 370 q 495 373 493 372 q 507 377 502 376 q 516 375 512 378 q 526 366 521 373 q 538 344 531 358 l 539 342 l 540 338 l 541 333 q 566 267 550 301 q 604 202 582 233 q 653 145 626 171 q 712 101 681 119 q 773 71 741 83 q 839 53 806 60 l 838 53 q 881 48 860 50 q 922 46 902 46 q 1005 52 965 46 q 1080 67 1044 58 q 1182 98 1134 80 q 1271 134 1229 115 q 1307 151 1288 142 q 1345 170 1326 160 q 1381 189 1364 179 q 1413 206 1399 198 q 1511 265 1469 238 q 1579 309 1553 291 q 1583 312 1581 310 q 1586 315 1585 313 q 1629 344 1613 333 q 1651 360 1645 355 q 1683 377 1667 370 q 1712 387 1699 384 q 1736 387 1726 390 q 1753 376 1747 385 m 528 1049 q 518 1027 523 1038 q 508 1005 513 1017 q 494 972 501 989 q 480 939 488 956 q 460 893 470 916 q 439 845 449 869 q 422 805 428 821 q 410 778 415 790 q 401 755 406 766 q 391 731 397 744 q 377 699 385 718 q 356 653 369 681 q 369 674 364 665 q 383 697 374 683 q 432 790 406 739 q 485 901 458 842 q 536 1030 510 959 q 585 1180 563 1100 q 561 1126 573 1153 q 538 1071 549 1099 l 538 1072 q 536 1066 537 1069 q 533 1061 535 1064 l 528 1049 l 528 1049 m 594 1345 l 588 1340 q 592 1344 591 1344 q 594 1345 592 1345 z "},"i":{"ha":1278,"x_min":33,"x_max":1474,"o":"m 1465 373 q 1464 336 1474 355 q 1435 308 1454 318 q 1422 305 1431 306 q 1422 305 1422 305 q 1421 304 1422 304 q 1414 302 1419 303 q 1402 299 1410 301 q 1381 291 1394 296 q 1349 279 1368 286 q 1271 250 1318 268 q 1153 206 1224 233 q 983 145 1081 180 q 751 69 885 110 q 502 5 615 28 q 294 -21 389 -19 q 201 -14 245 -22 q 119 14 156 -7 q 58 72 78 38 q 42 108 48 90 q 35 142 36 127 q 37 199 33 173 q 47 245 42 224 q 59 284 54 269 q 67 308 63 298 q 82 341 75 326 q 93 360 90 355 q 107 376 99 369 q 124 385 115 382 q 143 386 133 388 q 160 380 152 385 q 178 351 174 369 q 174 317 183 333 l 174 318 q 170 309 171 310 q 169 307 169 308 q 163 299 167 303 q 155 286 160 294 q 147 273 151 281 q 138 253 143 265 l 138 253 q 126 226 132 241 q 116 192 120 210 l 117 192 q 113 172 115 182 q 112 150 112 161 q 115 128 113 139 q 122 108 117 117 q 138 89 128 99 q 163 72 149 80 q 235 52 194 56 q 297 48 265 48 q 369 52 330 48 q 451 63 409 56 q 515 75 481 67 q 586 91 549 82 q 659 110 622 100 q 732 131 697 120 q 840 165 787 147 q 941 201 893 183 q 1031 234 990 218 q 1103 262 1072 249 q 1213 307 1165 286 q 1288 340 1260 327 l 1288 340 q 1340 365 1322 356 q 1369 380 1358 374 q 1385 387 1378 384 q 1400 394 1392 390 q 1439 395 1420 401 q 1465 373 1458 389 m 394 710 q 381 709 388 710 q 369 708 375 708 q 361 707 365 707 q 353 706 357 706 q 288 698 315 701 q 244 696 262 696 q 198 706 210 696 q 183 739 185 717 q 192 773 182 759 q 217 787 203 787 q 220 787 218 787 q 227 785 223 787 l 226 786 q 246 783 231 785 q 297 782 260 782 q 372 783 326 782 q 488 789 418 785 q 575 795 541 792 q 631 802 610 799 q 661 807 651 805 q 676 812 671 810 q 682 814 679 813 q 688 815 684 814 q 703 819 694 817 q 718 819 711 821 q 731 809 726 817 q 738 786 736 802 q 730 759 738 769 q 702 742 721 749 q 656 733 684 736 q 591 728 628 731 l 592 728 q 583 727 588 727 q 573 726 578 727 q 493 720 538 724 q 394 710 448 717 z "},"j":{"ha":1064,"x_min":-540,"x_max":1265,"o":"m 1260 381 q 1262 363 1265 373 q 1252 342 1260 352 q 1232 322 1244 331 q 1205 306 1220 313 q 1195 301 1200 303 q 1186 298 1190 299 q 1160 287 1178 294 q 1104 265 1142 280 l 1104 264 q 1023 230 1072 251 q 899 176 973 210 q 888 171 894 174 q 878 167 882 168 l 878 167 q 867 163 873 165 q 856 158 861 160 q 848 154 853 156 q 841 151 844 152 q 684 79 772 119 q 488 -16 597 38 q 336 -97 417 -51 q 168 -201 254 -144 q 83 -262 127 -228 q -6 -336 38 -297 q -93 -421 -51 -376 q -172 -512 -136 -465 q -244 -625 -214 -572 q -296 -718 -275 -678 l -302 -731 q -323 -773 -313 -753 q -342 -813 -333 -793 q -361 -853 -351 -833 q -379 -894 -370 -873 q -396 -941 -389 -917 q -418 -990 -403 -965 q -449 -1040 -431 -1012 q -483 -1093 -467 -1069 q -514 -1132 -500 -1117 q -533 -1141 -527 -1147 q -535 -1103 -540 -1135 q -512 -1003 -531 -1072 q -485 -921 -501 -965 q -451 -828 -470 -878 q -408 -722 -431 -778 q -356 -599 -384 -665 q -249 -358 -298 -466 q -158 -162 -199 -251 q -123 -88 -140 -124 q -84 -6 -102 -44 q -50 65 -66 32 q -46 73 -48 69 q -42 81 -44 77 l -42 81 q -33 101 -37 91 q -24 120 -29 111 q 9 189 -6 158 q 36 245 24 221 q 55 285 47 267 q 69 313 63 302 q 74 322 72 318 q 77 329 76 326 l 76 328 q 78 332 77 329 q 81 337 80 335 q 98 364 88 352 q 119 383 108 376 q 141 391 130 390 q 160 388 151 393 l 160 389 q 178 349 178 378 q 165 297 178 326 l 164 297 l 164 295 q 158 285 162 292 q 153 276 155 279 q 150 270 152 274 q 147 263 149 267 q 122 217 138 247 q 80 138 106 188 q 22 27 56 92 q -57 -131 -11 -38 q -116 -252 -84 -187 q -186 -395 -149 -317 q -155 -361 -171 -378 q -119 -326 -138 -344 q -21 -242 -68 -278 q 69 -177 26 -206 q 146 -127 110 -149 q 215 -87 182 -106 q 277 -51 247 -68 q 338 -17 308 -34 q 400 16 368 -1 q 467 51 432 33 q 644 139 566 101 q 783 206 722 176 q 794 210 788 208 q 804 215 799 213 q 809 218 806 217 q 815 220 813 219 q 826 226 818 221 q 868 245 849 237 q 905 263 887 254 q 967 293 940 280 q 1016 317 994 306 q 1060 338 1040 328 q 1093 355 1080 348 q 1131 373 1115 365 q 1168 390 1148 381 q 1219 401 1196 401 q 1260 381 1251 401 l 1260 381 m 282 865 q 231 873 245 865 q 209 906 210 882 q 216 934 207 922 q 242 949 225 947 q 251 953 246 951 q 261 957 256 955 q 273 961 267 959 q 281 954 274 959 q 302 946 287 949 q 338 942 317 943 q 388 940 358 940 q 458 942 417 940 q 549 949 499 944 q 672 963 628 956 q 734 974 715 969 q 751 979 746 977 q 760 982 756 981 l 759 982 q 761 983 760 983 q 763 983 762 983 q 775 987 770 987 q 802 976 790 988 q 817 945 815 965 q 810 911 819 925 q 788 894 802 897 l 782 894 q 779 895 781 894 q 776 895 777 895 q 770 897 775 896 q 752 898 765 898 q 688 895 734 899 q 555 884 642 892 q 455 876 499 879 q 378 870 411 872 q 321 866 344 867 q 282 865 298 865 z "},"k":{"ha":1143,"x_min":-18,"x_max":1338,"o":"m 1326 377 q 1327 337 1338 361 q 1290 293 1317 313 q 1285 290 1288 291 q 1280 287 1282 288 q 1277 285 1278 285 q 1274 283 1275 285 q 1265 278 1270 281 q 1251 269 1260 275 q 1231 256 1243 264 q 1201 236 1219 248 l 1201 237 q 1202 237 1203 238 q 1199 236 1201 237 q 1194 233 1197 235 q 1190 231 1192 231 q 1188 230 1188 229 q 1181 224 1188 230 q 1112 183 1153 207 q 1013 127 1072 158 q 935 88 978 108 q 843 49 893 68 q 730 11 792 29 q 593 -12 668 -7 q 572 -14 583 -13 q 549 -14 560 -14 q 483 -9 517 -14 q 415 8 449 -5 q 392 19 404 13 q 368 34 381 26 q 355 47 363 40 q 342 61 348 53 q 337 72 338 65 q 334 82 335 78 q 333 91 333 86 q 338 116 333 104 q 347 134 341 125 q 358 151 353 142 q 290 115 322 132 q 224 78 258 98 q 140 30 185 58 q 116 16 128 24 q 92 0 105 9 q 83 -6 88 -3 q 74 -12 78 -9 l 74 -12 q 69 -16 73 -13 q 65 -19 67 -17 q 64 -19 65 -19 q 63 -20 63 -19 q 58 -25 60 -24 q 53 -28 55 -27 q 51 -30 52 -28 q 44 -35 48 -33 q 39 -39 41 -37 l 20 -35 q 17 -33 17 -33 l 16 -32 q -2 -24 8 -30 l -18 -8 q -18 -2 -18 -5 q -16 5 -17 1 q 38 180 5 85 q 120 397 71 276 q 218 627 172 524 q 302 815 264 731 q 351 923 327 871 q 394 1017 375 975 q 403 1038 399 1027 q 413 1057 408 1048 l 412 1056 q 414 1062 413 1058 q 417 1067 415 1065 q 420 1076 418 1072 q 425 1085 423 1081 l 424 1083 q 465 1170 448 1133 q 494 1232 483 1207 q 513 1271 506 1257 q 522 1291 519 1285 q 539 1317 529 1306 q 559 1335 549 1328 q 580 1343 569 1342 q 599 1340 590 1345 l 599 1341 q 618 1301 618 1331 q 605 1251 618 1278 l 605 1251 q 601 1243 603 1247 q 596 1234 599 1240 q 593 1229 594 1232 q 588 1218 592 1226 q 579 1201 584 1210 q 566 1177 574 1191 q 549 1145 559 1164 q 526 1099 540 1126 q 524 1094 525 1096 q 521 1090 523 1092 q 469 986 499 1047 q 400 843 440 926 q 303 639 358 755 q 185 369 249 522 q 131 238 154 298 q 90 123 108 177 l 90 124 q 80 96 85 110 q 71 69 75 83 q 106 91 89 81 q 138 112 123 102 q 145 116 141 114 q 152 121 149 119 l 151 121 q 160 126 156 124 q 163 128 161 126 q 165 130 164 129 q 172 133 168 131 q 181 138 176 135 q 185 141 183 139 q 200 150 192 146 q 215 159 207 154 q 240 174 227 167 q 264 188 253 181 q 350 238 307 213 q 442 288 394 263 q 495 316 467 301 q 556 347 524 331 l 590 363 q 599 367 594 365 q 608 372 603 369 q 618 377 613 374 q 628 381 623 379 l 631 382 q 630 383 628 382 l 631 383 q 640 389 635 387 q 649 395 645 392 l 663 405 q 678 415 668 408 q 693 426 689 422 q 705 421 695 423 q 726 416 715 419 q 747 407 738 413 q 758 392 757 402 q 750 366 760 382 q 713 326 740 350 l 705 326 q 681 314 693 319 q 656 302 668 308 q 575 244 615 273 q 506 193 535 216 q 475 167 490 181 q 444 140 459 153 l 444 140 q 422 117 433 129 q 405 94 411 106 q 419 84 410 88 q 446 70 432 76 q 474 62 460 65 q 549 54 508 54 q 573 55 561 54 q 599 57 585 56 q 706 77 656 63 q 797 108 755 92 q 876 141 840 124 q 941 174 912 158 l 940 174 q 1041 232 1000 206 q 1108 276 1083 258 q 1158 311 1138 296 q 1192 336 1178 326 q 1197 340 1194 338 q 1216 353 1207 347 q 1235 367 1225 360 q 1294 391 1267 391 q 1326 377 1315 391 m 337 74 l 337 74 l 336 76 q 336 75 336 76 q 337 74 337 75 z "},"l":{"ha":1034,"x_min":72,"x_max":1223,"o":"m 1183 390 q 1217 374 1208 390 l 1218 375 q 1222 356 1223 367 q 1215 335 1222 346 q 1198 314 1209 324 q 1173 294 1188 303 q 1162 289 1168 292 q 1148 281 1156 285 q 1141 278 1144 280 q 1132 273 1137 276 q 1087 253 1115 265 q 1014 221 1059 240 q 902 175 969 201 q 742 116 836 149 q 640 82 696 100 q 522 47 583 65 q 457 28 490 38 q 387 10 423 19 q 308 -8 349 1 q 229 -23 267 -17 q 214 -25 222 -24 q 199 -26 207 -25 q 195 -27 197 -27 q 188 -28 192 -28 q 185 -28 187 -28 q 182 -28 183 -28 l 168 -28 q 166 -28 167 -28 q 163 -28 165 -28 q 152 -27 157 -28 q 140 -24 148 -27 q 114 -1 122 -12 q 101 20 106 10 q 94 41 97 31 q 90 60 91 51 q 88 82 88 71 q 87 106 87 93 q 89 152 87 131 q 94 193 91 174 q 99 225 97 213 q 102 247 101 238 q 107 266 104 256 q 113 292 109 276 q 92 297 99 292 q 80 310 84 302 q 84 350 72 328 q 119 390 97 372 l 118 388 q 125 394 121 391 q 126 394 125 394 q 127 395 127 394 q 132 398 129 397 q 138 402 134 399 q 140 403 139 402 q 178 536 160 478 q 211 641 195 593 q 243 736 227 690 q 281 835 260 783 q 331 955 301 888 q 406 1113 360 1022 q 465 1222 437 1173 q 524 1311 493 1271 l 529 1316 l 528 1315 q 543 1332 533 1323 q 563 1349 553 1342 q 564 1349 563 1349 q 565 1350 565 1349 q 576 1356 570 1353 q 587 1359 581 1358 q 602 1359 594 1360 q 617 1353 610 1357 q 637 1336 631 1346 q 645 1318 642 1326 q 650 1292 649 1304 q 651 1268 651 1280 q 650 1247 651 1256 q 648 1229 649 1238 q 636 1162 644 1197 q 618 1094 628 1127 q 599 1028 609 1063 q 575 958 588 994 q 490 759 533 846 q 410 610 447 672 q 344 503 373 546 q 294 437 315 461 q 259 396 276 415 q 226 362 242 378 q 208 343 216 351 q 190 328 199 335 q 188 322 189 324 q 188 319 188 320 q 187 317 188 319 l 187 318 q 171 243 179 287 q 157 152 163 200 q 155 130 156 142 q 155 108 155 118 q 156 79 155 94 q 161 50 158 65 q 166 40 161 47 q 191 41 178 40 q 218 46 204 43 l 217 46 q 346 74 284 58 q 457 103 408 90 q 560 135 511 119 q 652 167 608 151 q 809 225 742 199 q 926 274 876 251 q 1054 334 1009 310 q 1117 368 1099 358 q 1118 369 1117 368 q 1120 370 1119 369 q 1122 372 1122 371 q 1122 371 1123 372 q 1155 385 1139 381 q 1183 390 1171 390 m 253 533 q 249 521 250 522 q 248 520 249 520 q 247 518 248 520 q 242 503 247 515 q 280 550 260 523 q 324 613 300 577 q 367 683 343 642 q 415 773 390 724 q 466 877 440 822 q 515 993 491 933 q 541 1071 528 1031 q 563 1149 553 1111 l 563 1148 q 570 1188 567 1166 q 577 1234 574 1209 q 579 1259 579 1247 q 572 1248 576 1253 q 565 1236 568 1242 q 538 1191 551 1215 q 513 1143 524 1167 q 461 1039 487 1093 q 410 926 435 984 q 360 808 382 862 q 322 713 338 754 q 319 705 321 710 q 315 697 317 700 q 313 690 314 693 q 311 685 313 688 q 304 666 308 676 q 297 648 300 656 l 297 649 q 275 591 285 619 q 253 533 264 563 z "},"m":{"ha":2026,"x_min":-68,"x_max":2225,"o":"m 2216 373 q 2214 334 2225 357 q 2177 296 2203 311 q 2176 295 2176 295 q 2169 291 2172 293 q 2160 286 2167 290 l 2157 285 q 2154 284 2156 284 q 2152 283 2153 283 q 2131 272 2144 279 q 2095 253 2118 265 l 2097 255 q 2096 254 2097 254 q 2095 253 2096 254 q 2094 253 2094 253 q 2086 248 2090 251 q 2078 243 2081 245 q 2016 211 2053 229 q 1928 166 1980 192 q 1860 133 1899 151 q 1781 96 1822 114 q 1683 55 1738 76 q 1573 16 1629 33 q 1534 7 1554 10 q 1494 3 1515 3 q 1451 7 1474 3 q 1406 21 1428 12 q 1330 75 1364 40 q 1272 152 1295 110 q 1255 188 1263 168 q 1239 229 1247 207 q 1162 168 1201 198 q 1081 110 1123 138 q 970 43 1019 69 q 880 3 922 18 q 838 -10 859 -5 q 796 -19 816 -16 q 780 -20 789 -20 q 761 -21 770 -21 q 730 -19 745 -21 q 699 -10 715 -17 l 700 -10 q 654 19 676 -1 q 617 65 633 39 q 592 121 601 91 q 576 184 582 151 l 576 183 q 570 231 572 206 q 567 285 567 256 q 565 283 565 283 q 560 280 563 282 q 556 277 558 278 q 532 261 544 269 q 506 245 519 253 l 506 245 q 490 236 498 240 q 475 226 483 231 q 473 224 474 224 q 470 223 472 224 q 461 217 465 220 q 273 103 360 154 q 110 17 185 53 q 72 0 94 9 q 31 -15 49 -9 q 9 -21 20 -19 q -15 -23 -2 -24 q -26 -22 -20 -23 q -38 -17 -31 -21 l -37 -17 q -52 -7 -46 -14 q -62 6 -59 -1 l -62 5 q -65 10 -63 6 q -67 17 -66 15 q -68 26 -68 22 q -65 51 -68 42 q -56 79 -60 67 q -47 101 -51 91 q -46 103 -47 102 q -45 106 -46 105 q -40 119 -41 117 l -40 118 q -34 131 -37 124 q -28 143 -31 138 q -25 149 -26 146 q -22 153 -24 151 q -20 156 -22 154 q -19 159 -19 158 q -17 164 -17 161 q -15 167 -16 166 q 26 243 8 211 q 56 296 44 275 q 67 314 62 306 q 75 328 72 322 q 77 334 76 331 q 80 338 78 336 l 80 337 q 82 342 81 340 q 85 346 83 344 q 123 381 101 370 q 162 383 144 392 q 174 368 170 378 q 178 348 178 358 q 175 324 178 337 q 163 298 171 311 l 164 299 q 163 297 163 297 q 162 295 163 297 q 158 288 160 292 q 151 278 156 283 q 149 274 150 276 q 145 268 147 272 q 122 233 136 255 q 84 172 107 210 q 35 85 62 135 q 34 82 35 84 q 33 79 33 81 q 31 74 31 76 q 28 69 29 72 q 26 65 27 67 q 109 101 66 80 q 201 149 153 122 l 201 149 q 307 207 251 176 q 426 276 363 239 q 431 279 428 278 q 435 282 433 281 q 437 284 436 283 q 440 285 438 285 l 439 285 q 459 297 449 291 q 478 310 469 303 q 506 327 492 319 q 532 343 519 335 q 533 344 532 343 q 534 344 534 344 q 542 350 538 347 q 551 356 547 353 l 551 355 q 567 362 561 360 q 577 367 571 363 l 589 379 q 588 378 589 379 q 593 382 590 379 q 597 385 596 385 l 639 363 l 635 342 l 635 336 q 634 325 634 330 q 634 314 634 319 q 639 225 633 265 q 654 151 644 185 q 678 98 664 120 q 710 65 692 76 q 731 57 720 59 q 753 54 742 54 q 767 56 758 54 q 784 58 776 57 q 825 69 805 63 q 860 82 845 75 q 899 100 878 90 q 938 121 919 110 q 1033 179 978 143 q 1153 264 1088 215 l 1172 278 q 1201 301 1187 290 q 1230 324 1215 312 l 1233 328 q 1238 331 1235 330 l 1250 343 q 1271 335 1262 339 q 1283 331 1281 332 q 1290 327 1285 330 q 1297 324 1295 325 l 1297 312 q 1313 291 1313 302 q 1305 271 1313 279 q 1305 270 1305 270 q 1306 269 1306 270 l 1306 270 q 1309 256 1308 263 q 1316 237 1311 249 q 1345 172 1330 200 q 1379 124 1361 144 q 1460 76 1414 85 q 1493 72 1478 72 q 1527 75 1510 72 q 1563 84 1544 78 q 1656 118 1614 100 q 1733 152 1698 136 l 1733 152 q 1802 186 1770 170 q 1860 216 1833 202 q 2012 301 1963 271 q 2041 319 2029 311 q 2063 334 2053 327 q 2073 340 2068 338 q 2081 346 2077 343 q 2098 356 2090 351 q 2114 365 2106 360 l 2113 365 q 2121 370 2117 367 q 2129 375 2125 372 q 2155 387 2142 383 q 2180 391 2168 391 q 2218 370 2203 391 l 2216 373 m 1302 281 q 1303 278 1302 278 q 1302 279 1303 278 q 1302 280 1302 279 l 1302 281 z "},"n":{"ha":1678,"x_min":-65,"x_max":1863,"o":"m 1778 371 q 1801 383 1789 379 q 1823 388 1813 388 q 1856 372 1844 388 q 1862 355 1861 364 q 1859 335 1863 345 q 1850 315 1856 325 q 1835 298 1844 306 q 1831 295 1833 297 q 1826 292 1830 294 l 1822 289 l 1817 287 l 1818 287 q 1797 274 1808 281 q 1769 256 1785 267 q 1767 254 1772 258 q 1757 247 1763 251 q 1710 217 1738 235 q 1646 178 1682 200 q 1595 148 1623 164 q 1533 115 1567 132 q 1460 81 1501 99 q 1371 47 1419 63 q 1317 30 1346 38 q 1257 14 1288 21 q 1191 2 1225 6 q 1121 -3 1157 -3 q 1043 1 1085 -4 q 963 20 1002 7 q 880 57 922 34 q 803 112 838 81 q 733 189 760 151 q 689 256 707 226 q 676 279 681 268 q 665 301 670 290 q 607 274 640 290 q 537 235 575 258 q 463 189 506 216 q 374 133 421 163 q 365 127 370 130 q 357 122 360 124 q 329 104 344 113 q 299 85 314 95 q 220 40 259 62 q 144 1 181 17 q 104 -14 124 -7 q 65 -25 83 -22 q 28 -28 49 -28 q 3 -27 15 -28 q -20 -22 -9 -26 q -23 -20 -22 -21 q -26 -19 -25 -19 q -28 -18 -27 -18 q -30 -17 -28 -18 l -31 -17 l -43 -11 q -58 6 -54 -2 l -58 5 l -60 9 l -61 10 l -60 10 q -65 26 -65 20 q -65 37 -65 31 l -65 46 q -61 67 -64 58 q -55 84 -58 76 l -56 83 q -33 138 -45 113 q -10 181 -21 160 q 11 218 1 201 q 68 315 48 283 q 92 356 88 348 q 109 374 99 366 q 129 385 119 381 q 149 388 139 389 q 166 383 158 388 l 166 383 q 179 368 175 378 q 183 347 183 358 q 180 326 183 337 q 169 306 177 316 l 171 307 q 165 298 169 303 q 158 289 162 292 q 139 262 151 280 q 104 209 126 244 q 102 205 103 208 q 99 201 101 203 q 98 200 99 200 q 97 198 98 199 q 94 193 96 195 q 91 188 93 192 l 92 189 q 77 167 85 178 q 62 142 69 156 q 38 97 49 121 q 25 73 31 85 q 15 49 19 61 q 17 48 16 49 q 20 48 19 48 q 54 51 34 48 q 89 58 74 53 q 128 74 106 64 q 173 95 150 83 q 220 119 197 106 q 265 144 244 132 q 311 173 288 158 q 354 201 334 188 q 370 210 362 206 q 385 220 378 215 q 391 224 388 222 q 397 228 394 226 q 409 235 403 231 q 420 242 415 238 l 419 242 q 482 280 453 263 q 537 313 512 298 q 583 340 560 326 q 625 363 606 353 l 645 373 l 665 381 l 664 381 l 658 379 l 662 381 q 666 384 663 382 q 674 390 669 385 l 719 366 q 721 360 719 365 q 724 355 723 356 l 724 356 q 726 351 725 352 q 727 348 726 349 q 760 294 743 319 q 803 237 778 268 l 802 237 q 827 209 813 224 q 858 177 840 194 l 858 177 q 896 145 875 161 q 946 115 917 129 q 1017 85 983 94 q 1079 73 1050 76 q 1135 69 1110 69 q 1158 69 1145 69 q 1183 72 1172 70 q 1269 88 1224 77 q 1356 114 1313 99 q 1489 174 1433 143 q 1582 226 1544 204 l 1581 226 q 1648 271 1622 252 q 1693 303 1674 290 q 1725 328 1712 318 q 1748 347 1739 339 q 1750 349 1749 348 q 1752 351 1751 349 q 1765 361 1758 356 q 1778 371 1771 365 z "},"o":{"ha":942,"x_min":-81,"x_max":1131,"o":"m 1058 387 q 1096 388 1078 394 q 1123 365 1115 382 q 1123 329 1131 347 q 1096 301 1116 310 q 1090 300 1094 301 q 1084 298 1085 299 l 1082 298 q 1072 294 1078 297 q 1050 287 1065 292 q 1013 273 1036 281 q 958 254 989 265 q 878 229 924 243 q 770 199 833 215 q 753 194 763 197 q 735 190 744 192 q 677 175 709 183 q 613 160 646 167 q 515 146 568 152 q 401 141 461 140 q 336 143 364 142 q 288 146 309 144 q 283 146 286 146 q 279 147 281 147 q 273 147 274 147 q 268 147 272 147 q 267 146 267 147 q 266 144 267 145 q 263 141 264 142 q 260 138 261 139 q 258 135 259 136 q 256 132 257 133 q 252 128 254 131 q 249 125 251 126 q 220 92 237 111 q 186 57 203 74 l 186 58 q 156 31 174 46 q 118 5 138 17 l 119 5 q 66 -19 97 -10 l 67 -19 q 51 -24 59 -22 q 33 -26 43 -26 q 26 -27 31 -27 q 21 -27 22 -27 q 15 -27 18 -27 q 10 -26 13 -27 q -16 -19 -4 -25 q -52 12 -39 -8 q -72 51 -66 32 l -72 51 q -78 84 -77 69 q -81 113 -80 99 q -80 143 -81 129 q -77 169 -78 157 q -73 192 -76 180 q -67 217 -71 203 l -67 216 q -50 261 -60 241 q -28 297 -40 281 q -2 325 -15 313 q 24 346 11 338 l 23 345 q 68 371 48 363 q 102 384 88 379 q 125 391 118 389 q 136 393 133 392 q 158 392 147 395 q 176 383 168 390 q 189 368 184 377 q 194 349 194 360 q 182 318 194 331 q 152 301 170 304 q 149 300 151 301 q 145 300 147 300 l 144 300 q 141 299 143 299 q 136 299 138 299 q 133 299 135 299 q 130 299 131 299 q 129 298 129 299 q 127 298 129 298 q 109 293 119 297 q 88 285 98 289 l 88 286 q 71 277 81 283 q 52 264 62 272 q 33 245 42 256 q 16 217 24 234 q 2 178 7 201 q -6 130 -3 156 q -8 105 -8 115 q -5 78 -8 92 q 1 58 -3 67 q 13 44 5 48 q 24 42 18 42 q 38 43 31 42 q 52 48 44 45 q 75 58 65 52 q 95 69 86 64 q 127 95 112 81 q 155 124 142 110 q 181 151 171 141 q 194 171 190 162 q 208 196 200 182 q 228 220 215 210 q 260 234 241 231 q 308 227 279 238 l 324 227 q 333 227 328 227 q 342 226 338 226 q 366 226 353 226 q 392 226 378 226 q 432 225 408 225 q 476 224 455 224 q 570 230 530 225 q 641 240 610 234 q 701 251 672 245 q 758 265 730 258 q 800 278 778 272 q 843 293 822 285 q 882 307 864 300 q 915 319 901 313 q 956 336 939 328 q 986 350 972 343 q 990 352 988 351 q 996 355 993 353 q 1016 365 1008 360 q 1031 373 1025 369 l 1032 373 q 1044 380 1039 376 q 1058 386 1050 383 l 1058 387 z "},"p":{"ha":1453,"x_min":-371,"x_max":1655,"o":"m 81 326 q 98 358 88 344 q 119 380 108 372 q 141 392 131 389 q 160 392 152 395 q 179 352 179 382 q 165 290 179 324 l 165 289 q 153 266 160 278 q 137 235 147 256 q 106 169 126 214 q 99 157 102 163 q 92 143 96 151 q 83 122 88 133 q 72 99 78 110 l 72 99 q 36 20 56 64 q -7 -78 17 -24 l -6 -76 q -8 -81 -7 -78 q -10 -87 -9 -84 l -10 -85 q -13 -92 -11 -89 q -16 -98 -15 -94 q -105 -306 -55 -187 q -217 -585 -156 -425 q -225 -608 -220 -597 q -233 -631 -229 -619 q -152 -462 -196 -550 q -62 -291 -108 -374 q -16 -212 -40 -251 q 30 -137 8 -173 q 73 -72 53 -102 q 110 -19 94 -42 q 182 73 144 27 q 256 157 219 119 q 302 201 278 179 q 353 246 326 224 l 353 245 q 418 294 382 269 q 497 340 454 319 q 548 361 522 351 q 603 377 574 371 q 689 385 640 385 q 713 385 701 385 q 735 383 726 385 l 738 382 q 750 380 742 382 q 765 374 758 377 l 764 374 q 776 364 772 370 q 784 349 781 357 l 784 350 q 788 339 787 344 q 788 328 788 333 q 785 303 788 315 q 776 281 781 292 q 776 280 776 280 q 776 279 777 281 q 758 242 767 258 q 740 211 749 226 q 696 146 720 179 q 647 78 672 113 l 626 51 q 621 45 622 46 q 620 44 620 44 q 619 43 620 44 q 615 38 619 42 q 655 44 635 41 q 693 51 674 47 q 828 80 763 64 q 944 111 893 97 q 1141 180 1051 145 q 1291 242 1230 215 q 1401 295 1356 272 q 1476 335 1446 319 l 1476 334 q 1496 345 1487 340 q 1513 354 1505 350 q 1534 366 1526 362 q 1547 374 1542 371 q 1584 390 1566 385 q 1617 396 1603 396 q 1650 382 1641 396 q 1652 363 1655 374 q 1642 339 1650 351 q 1621 315 1634 327 q 1592 294 1608 303 q 1572 282 1585 289 q 1540 266 1560 276 q 1530 261 1535 264 q 1527 260 1528 260 q 1524 258 1525 259 l 1526 259 q 1473 234 1505 249 q 1394 197 1441 219 q 1252 136 1336 171 q 1049 63 1168 102 q 915 24 986 43 q 765 -11 844 5 q 680 -26 728 -19 q 587 -38 633 -33 q 533 -44 557 -42 q 495 -44 510 -47 q 477 -33 481 -42 q 483 -6 473 -24 q 520 43 494 13 q 591 119 546 74 q 622 155 608 136 q 650 194 637 174 q 674 232 663 213 q 694 267 685 251 l 694 266 l 696 270 q 701 280 698 274 q 706 290 703 285 q 713 301 709 295 q 715 308 714 304 q 718 316 717 312 q 717 317 718 316 l 717 317 q 714 317 715 317 q 713 317 713 317 q 700 318 706 318 q 689 318 694 319 q 623 311 654 318 q 565 294 592 305 q 513 272 538 285 q 467 244 489 258 q 391 185 424 215 q 331 129 358 156 l 332 129 q 280 72 303 98 q 240 23 258 45 q 205 -26 224 0 q 168 -79 187 -51 q 131 -134 149 -106 q 96 -190 113 -162 q 12 -331 59 -249 q -90 -519 -35 -412 q -150 -637 -123 -582 q -200 -740 -177 -692 l -208 -756 q -212 -765 -210 -760 q -216 -773 -215 -769 q -225 -791 -219 -781 q -233 -809 -230 -801 q -250 -843 -242 -826 q -265 -874 -258 -860 q -267 -877 -267 -875 q -269 -880 -267 -878 q -272 -885 -270 -882 q -281 -901 -276 -892 q -292 -919 -286 -910 l -293 -920 q -294 -922 -294 -921 q -295 -924 -294 -923 q -300 -929 -297 -926 q -306 -935 -303 -932 q -313 -941 -309 -938 q -318 -944 -315 -943 q -327 -947 -321 -946 l -326 -947 q -341 -946 -331 -948 q -356 -940 -351 -944 q -360 -936 -358 -940 q -364 -928 -362 -932 q -368 -920 -366 -924 q -371 -915 -370 -916 l -357 -798 q -347 -757 -354 -778 q -334 -717 -340 -736 q -307 -635 -322 -678 q -276 -548 -292 -591 q -182 -306 -226 -412 q -106 -121 -139 -201 l -107 -122 q -102 -110 -105 -116 q -98 -99 -100 -105 q -83 -65 -90 -81 q -70 -32 -76 -48 q -56 2 -62 -14 q -42 34 -49 19 l -43 33 q -30 65 -37 49 q -17 95 -23 81 q -7 118 -11 107 q 1 138 -3 128 q 15 173 8 157 q 26 202 21 188 q 31 213 28 207 q 35 224 34 219 q 55 268 47 250 q 72 307 63 287 q 80 326 76 317 l 81 326 z "},"q":{"ha":1029,"x_min":-196,"x_max":1228,"o":"m 1219 373 q 1215 334 1228 356 q 1174 294 1202 311 l 1175 294 q 1172 291 1174 292 q 1167 289 1170 290 l 1167 290 q 1161 286 1165 288 q 1156 283 1158 284 q 1132 268 1149 278 q 1078 233 1115 258 q 1003 179 1047 213 q 898 94 959 146 q 755 -37 838 42 q 565 -231 672 -116 q 314 -526 449 -356 q 17 -917 180 -697 q -32 -983 -9 -952 q -73 -1040 -54 -1013 l -72 -1039 q -90 -1064 -81 -1053 l -89 -1063 q -91 -1066 -90 -1065 q -94 -1069 -93 -1068 q -98 -1074 -96 -1071 q -102 -1081 -100 -1078 q -107 -1087 -104 -1084 q -110 -1092 -109 -1090 l -116 -1099 l -137 -1122 l -172 -1140 q -181 -1136 -176 -1139 q -190 -1131 -185 -1133 q -194 -1128 -194 -1134 q -195 -1114 -195 -1122 q -194 -1100 -194 -1106 q -196 -1094 -194 -1093 l -195 -1065 q -194 -1059 -195 -1062 q -192 -1055 -194 -1057 l -193 -1057 q -191 -1050 -192 -1053 q -190 -1044 -191 -1047 q -188 -1039 -188 -1041 q -186 -1033 -187 -1036 l -186 -1035 q -184 -1027 -185 -1031 q -181 -1019 -183 -1023 q -180 -1015 -181 -1017 q -178 -1011 -179 -1013 q -175 -1001 -177 -1006 q -164 -967 -169 -983 q -153 -935 -159 -951 q -138 -887 -146 -911 q -122 -838 -131 -864 l -122 -839 q -88 -735 -106 -793 q -45 -600 -69 -678 q 12 -420 -20 -523 q 85 -181 44 -317 q 102 -125 93 -154 q 120 -65 111 -95 q 138 -6 128 -35 q 154 48 147 23 q 139 39 147 43 q 124 30 131 34 q 81 6 102 17 q 38 -15 60 -6 q 31 -18 35 -17 l 28 -19 q 8 -27 18 -24 q -14 -33 -3 -31 q -26 -35 -19 -35 q -45 -36 -33 -36 q -68 -32 -56 -35 q -92 -17 -81 -28 l -99 -9 l -107 6 l -107 6 l -111 16 q -117 41 -117 28 q -120 66 -119 53 q -119 90 -120 79 q -109 131 -115 112 q -94 167 -102 151 q -61 219 -79 196 q -26 261 -42 243 q 3 292 -11 278 q 30 317 18 307 q 66 348 51 336 q 86 365 81 360 q 120 383 103 376 q 151 389 138 389 q 182 375 172 389 q 186 357 187 367 q 180 335 185 347 q 164 313 174 324 q 142 291 154 301 q 136 286 139 289 q 129 281 133 284 q 126 279 128 280 q 123 276 124 278 q 115 270 119 273 q 105 263 110 267 q 67 232 89 251 l 65 229 q 40 205 53 218 q 12 174 27 192 q -3 154 5 165 q -17 132 -10 144 q -29 109 -24 122 q -36 81 -34 96 q -36 54 -38 68 q -35 48 -35 51 q -35 44 -35 46 q -27 45 -31 44 q -20 47 -24 46 q 2 55 -9 51 q 24 64 13 58 q 72 87 47 74 q 121 116 97 101 l 120 116 l 153 137 l 165 143 q 168 146 166 144 q 174 149 171 148 l 188 160 q 201 170 193 165 q 213 177 208 175 q 213 178 213 176 q 213 178 213 178 q 218 180 214 178 q 222 181 219 181 q 240 188 231 185 q 255 187 249 190 q 261 172 260 184 q 256 133 263 159 l 190 -78 q 182 -106 186 -92 q 172 -135 177 -120 q 162 -167 167 -151 q 151 -201 157 -184 q 95 -376 120 -299 q 51 -517 71 -454 q 16 -631 31 -581 q -12 -723 1 -681 q -35 -801 -24 -765 q -56 -872 -46 -837 q -30 -837 -42 -853 q -4 -803 -17 -821 q 25 -767 9 -786 q 60 -722 40 -747 l 60 -722 q 212 -535 147 -614 q 327 -398 278 -456 q 375 -342 351 -369 q 422 -288 398 -315 q 470 -233 445 -261 q 522 -176 494 -206 q 684 -5 612 -77 q 812 119 756 68 q 909 206 868 171 q 979 265 950 241 q 1027 302 1008 287 q 1063 329 1047 317 q 1092 350 1078 340 q 1122 370 1106 359 q 1154 385 1138 380 q 1184 390 1170 390 q 1219 373 1210 390 l 1219 373 m 1156 282 l 1156 283 l 1157 283 q 1156 282 1156 282 z "},"r":{"ha":1493,"x_min":78,"x_max":1688,"o":"m 1608 387 q 1636 394 1624 394 q 1662 388 1651 394 q 1679 370 1674 381 q 1678 332 1688 351 q 1646 302 1669 313 q 1644 301 1644 301 q 1642 301 1644 301 q 1639 299 1641 300 q 1637 299 1637 299 q 1623 294 1632 298 q 1592 281 1614 290 q 1542 261 1573 274 q 1463 226 1510 248 q 1394 196 1433 213 q 1310 159 1356 179 q 1283 148 1297 153 q 1256 135 1270 142 q 1209 114 1233 126 q 1158 90 1184 103 l 1126 76 l 1127 76 q 1100 63 1114 69 q 1072 51 1086 57 q 1017 27 1046 39 q 958 3 989 15 q 890 -19 925 -8 q 812 -33 856 -29 q 782 -32 797 -33 q 753 -26 767 -31 q 734 -17 743 -22 q 718 -4 726 -12 q 698 28 703 10 l 698 27 q 692 55 692 42 q 692 78 692 67 q 694 92 694 88 q 696 99 695 96 q 696 101 696 100 q 697 102 697 101 l 700 114 q 720 169 710 147 q 741 213 730 192 q 751 233 747 224 q 759 250 755 241 q 770 270 764 259 q 786 299 776 282 q 742 289 764 294 q 694 280 720 285 q 551 261 617 266 q 430 257 485 257 q 332 261 374 258 q 257 271 289 265 q 170 289 201 281 q 127 301 139 298 q 125 302 126 301 q 124 302 125 302 q 124 303 124 302 q 89 332 99 312 q 86 369 78 351 q 114 392 94 386 q 153 390 133 397 l 151 390 q 246 365 221 370 q 244 359 271 360 q 306 347 268 353 q 395 336 344 340 q 437 334 415 335 q 482 333 459 333 q 574 336 522 333 q 683 349 626 340 q 763 364 726 357 q 826 378 799 371 q 830 378 826 378 q 835 381 833 379 q 838 381 836 381 q 840 381 840 381 q 840 382 839 381 l 842 383 q 849 384 844 383 q 861 386 855 385 q 873 389 867 388 q 881 390 878 390 l 890 346 q 888 341 890 345 q 882 332 885 337 q 877 323 879 327 q 874 318 874 319 l 872 314 q 869 307 871 310 q 865 301 867 304 l 866 302 q 864 298 865 299 q 860 292 863 297 q 853 279 857 286 q 847 268 850 272 l 848 269 q 814 196 828 228 q 790 138 800 165 l 790 138 q 783 115 787 126 q 777 89 780 103 q 775 77 776 83 q 774 68 774 71 q 777 55 774 60 q 786 51 778 52 q 805 52 794 51 q 847 57 824 53 q 892 67 869 60 q 952 85 920 74 q 1010 105 984 95 q 1024 110 1017 108 q 1039 116 1031 113 q 1054 122 1047 119 q 1068 127 1062 124 q 1074 129 1071 128 q 1079 131 1076 130 q 1087 134 1083 133 q 1094 137 1090 135 q 1127 151 1111 144 q 1158 165 1142 158 l 1158 165 q 1176 173 1167 169 q 1194 181 1185 177 l 1194 181 q 1214 190 1203 185 q 1235 199 1225 195 q 1424 290 1353 253 q 1528 344 1495 326 q 1553 357 1543 351 q 1571 367 1563 363 q 1573 368 1572 367 q 1576 369 1574 369 l 1575 369 q 1591 378 1583 374 q 1608 387 1599 382 l 1608 387 z "},"s":{"ha":792,"x_min":-319,"x_max":981,"o":"m 977 370 q 980 352 981 362 q 975 333 979 343 q 963 315 970 324 q 944 299 955 306 q 939 296 942 298 q 933 292 937 294 l 930 290 q 927 289 928 290 q 926 288 926 289 q 907 278 919 285 q 876 261 894 272 q 823 228 856 249 q 743 177 791 208 q 628 103 694 147 q 475 0 563 59 q 376 -70 427 -32 q 264 -154 324 -108 q 148 -244 212 -194 q 21 -344 85 -294 q 15 -367 18 -355 q 9 -390 13 -378 q -31 -495 -8 -447 q -84 -578 -53 -544 q -118 -610 -100 -597 q -156 -633 -136 -624 q -196 -645 -176 -640 q -234 -651 -217 -650 q -253 -650 -244 -651 q -270 -648 -262 -649 q -296 -637 -284 -645 q -314 -613 -308 -630 l -313 -614 q -318 -588 -319 -599 q -313 -567 -317 -576 q -306 -551 -310 -558 q -299 -538 -303 -544 q -274 -504 -287 -520 q -249 -473 -261 -487 l -251 -474 q -248 -470 -249 -473 q -244 -467 -246 -468 q -193 -414 -221 -441 q -132 -360 -165 -387 q -90 -323 -112 -342 q -38 -283 -69 -305 q -30 -237 -33 -258 q -22 -194 -26 -216 q -12 -115 -17 -155 q -3 -43 -7 -76 q -2 -32 -3 -38 q -1 -22 -1 -26 q 0 -12 0 -17 q 1 -3 1 -8 q 4 17 3 6 q 6 37 5 27 q 15 113 11 78 q 24 176 19 147 q 39 249 31 216 q 54 303 47 283 q 70 338 62 323 q 82 358 78 352 q 100 376 90 368 q 123 387 111 383 q 153 384 141 391 q 172 367 166 378 q 175 347 176 357 q 170 326 174 338 l 168 322 q 163 314 166 319 q 158 304 160 308 l 156 303 q 150 295 153 299 q 144 283 147 290 q 131 253 138 272 q 115 203 123 234 q 99 122 108 172 q 81 -3 91 72 q 74 -49 77 -26 q 71 -73 73 -61 q 67 -98 69 -85 q 62 -135 65 -116 q 56 -174 60 -154 q 55 -179 56 -176 q 53 -183 54 -181 q 53 -187 53 -185 q 52 -190 53 -189 q 48 -202 49 -194 q 49 -218 48 -210 q 58 -211 54 -214 l 58 -212 q 140 -152 103 -178 q 207 -105 176 -126 q 228 -90 217 -97 q 247 -76 238 -83 q 263 -66 255 -71 q 278 -55 271 -60 q 319 -26 299 -40 q 337 -13 327 -20 q 354 -1 347 -6 q 380 18 367 9 q 407 36 393 26 l 406 36 q 425 49 415 42 q 444 63 435 56 l 444 62 q 570 149 516 112 q 667 216 625 187 q 743 269 710 246 q 796 308 776 292 q 823 327 811 318 q 844 342 835 336 l 846 343 q 871 362 860 354 q 894 377 882 369 q 939 391 917 391 q 977 370 963 391 m -121 -517 q -94 -472 -107 -498 q -72 -418 -81 -447 q -110 -450 -92 -435 q -143 -478 -128 -465 q -146 -482 -144 -480 q -149 -484 -148 -483 q -192 -524 -172 -504 q -232 -567 -212 -543 q -233 -568 -232 -567 q -237 -575 -235 -572 q -241 -582 -240 -578 q -201 -578 -221 -583 q -160 -556 -183 -572 q -121 -517 -137 -540 m 53 -190 l 52 -192 l 52 -190 l 53 -190 z "},"t":{"ha":967,"x_min":44,"x_max":1161,"o":"m 1158 368 q 1158 349 1161 360 q 1148 329 1156 339 q 1130 310 1141 319 q 1104 294 1118 301 q 1101 293 1103 294 q 1099 292 1100 293 q 1086 288 1093 290 q 1068 281 1080 285 q 1052 275 1061 278 q 1031 267 1044 272 q 1018 263 1025 265 q 1003 258 1010 260 l 997 256 l 997 256 q 917 230 969 246 q 794 195 865 213 q 606 156 716 176 q 358 127 497 135 q 328 126 342 126 q 302 124 315 125 q 275 123 290 124 q 244 123 261 123 q 243 121 243 122 q 242 119 243 120 q 232 92 237 103 q 222 62 227 80 q 263 5 242 35 q 306 -62 283 -25 q 309 -69 307 -66 q 313 -76 312 -72 q 325 -98 319 -87 q 335 -122 331 -110 q 336 -125 335 -124 q 341 -144 339 -135 q 344 -166 344 -153 q 341 -186 344 -174 q 326 -211 338 -198 q 299 -227 313 -224 q 276 -228 285 -229 q 249 -223 260 -227 q 229 -214 239 -219 q 214 -205 224 -211 q 197 -192 205 -199 q 169 -167 183 -181 q 144 -140 155 -154 q 131 -121 138 -132 q 118 -96 124 -110 q 110 -64 110 -78 q 110 -40 109 -51 q 111 -39 110 -40 q 111 -37 111 -37 q 117 2 113 -17 q 127 38 122 20 l 127 37 q 128 42 127 39 l 130 44 q 131 50 131 47 q 133 57 131 52 q 129 62 131 60 q 124 67 127 64 l 124 68 q 113 81 118 73 q 111 83 112 82 q 110 85 111 84 q 108 88 108 87 q 106 91 108 90 l 108 90 l 97 102 q 91 110 94 107 q 86 117 88 114 l 83 121 q 80 124 82 122 q 77 128 78 126 l 44 199 l 185 192 q 201 227 192 209 q 217 263 209 245 q 224 279 220 270 q 232 296 228 288 q 233 298 233 297 q 233 301 233 299 q 236 306 235 303 q 247 329 243 322 q 254 345 250 337 q 263 364 258 353 q 280 399 268 376 q 257 381 267 388 q 238 365 247 373 q 224 355 230 359 q 212 346 217 350 q 205 340 208 342 q 198 335 201 337 q 193 330 196 333 q 190 328 190 328 q 187 326 188 327 q 185 324 186 325 q 154 308 169 313 q 125 302 138 302 q 92 318 101 302 l 92 317 q 88 335 87 325 q 94 357 88 346 q 109 379 99 368 q 131 399 118 390 q 139 406 135 403 q 147 411 143 408 q 156 417 151 414 q 167 424 160 419 l 171 428 q 176 431 174 429 q 178 433 176 432 q 181 435 179 435 q 216 460 195 446 q 265 499 236 475 q 318 544 289 519 q 380 602 347 569 q 444 726 409 658 q 527 878 480 794 q 530 882 528 878 q 533 888 531 885 q 565 943 549 915 q 598 993 581 970 q 603 999 599 995 q 610 1008 606 1003 l 613 1010 q 617 1015 614 1013 q 623 1019 619 1018 q 624 1020 623 1019 q 623 1019 624 1020 l 629 1026 q 631 1025 631 1026 q 633 1026 631 1026 q 643 1030 635 1027 l 651 1030 q 656 1029 653 1030 q 663 1027 659 1028 l 663 1028 q 685 1011 680 1020 q 694 992 690 1002 l 695 988 q 696 982 696 985 q 696 977 696 978 q 695 965 696 971 q 694 956 695 960 q 688 927 692 942 q 679 899 683 913 l 677 892 q 626 789 655 835 q 569 702 598 742 q 491 604 530 647 q 417 525 453 560 q 393 476 404 499 q 372 431 382 453 l 372 432 q 312 299 335 356 q 270 194 289 242 l 269 194 q 269 193 269 193 q 269 192 269 192 q 315 194 292 192 q 365 197 338 195 q 576 222 483 206 q 733 256 669 239 q 842 288 796 272 q 922 317 888 303 q 982 341 960 331 q 1020 358 1003 350 q 1026 360 1023 359 q 1032 363 1029 362 q 1040 366 1036 365 q 1049 370 1044 368 l 1049 370 q 1058 375 1053 373 q 1067 378 1063 377 l 1067 378 q 1116 390 1094 390 q 1141 384 1131 390 q 1157 369 1152 379 l 1158 368 m 241 -109 q 227 -84 233 -95 q 215 -62 221 -72 l 215 -62 q 209 -55 212 -58 q 204 -47 207 -51 q 200 -41 201 -42 q 200 -40 200 -40 q 199 -39 200 -40 q 196 -33 199 -38 q 195 -41 195 -37 q 195 -48 195 -44 q 194 -57 194 -51 q 194 -62 194 -60 q 200 -72 196 -66 q 209 -85 203 -78 q 249 -126 224 -106 q 248 -124 249 -125 q 247 -121 247 -122 q 244 -115 245 -119 q 241 -110 242 -112 l 241 -109 m 644 935 q 642 933 643 934 q 641 931 642 933 q 644 935 644 934 z "},"u":{"ha":1176,"x_min":-3,"x_max":1365,"o":"m 1283 383 q 1317 394 1299 394 q 1339 389 1329 394 q 1355 375 1349 385 q 1359 339 1365 359 q 1334 306 1352 319 l 1335 306 q 1329 302 1331 303 q 1324 300 1326 301 q 1323 299 1323 299 q 1321 299 1322 299 q 1313 295 1317 297 q 1300 287 1309 292 q 1292 283 1296 285 q 1283 277 1288 281 q 1275 273 1278 275 q 1267 268 1272 271 l 1267 268 q 1260 264 1264 267 q 1252 259 1256 261 q 1235 249 1244 254 q 1216 238 1226 243 l 1216 238 q 1201 230 1208 234 q 1185 220 1193 225 l 1170 211 q 1163 208 1167 209 q 1158 205 1160 206 q 1080 161 1124 185 q 978 110 1035 137 q 972 107 976 108 q 967 104 969 106 q 961 101 963 103 q 956 99 958 100 q 885 65 923 83 q 798 34 847 48 q 738 19 769 26 q 671 14 706 13 q 632 20 652 15 q 592 33 611 24 q 555 61 572 43 q 526 99 537 78 q 512 133 517 116 q 504 165 507 149 q 467 131 488 148 l 468 131 q 435 102 453 117 q 393 69 417 87 q 340 34 369 53 q 276 2 310 16 l 276 3 q 213 -16 244 -10 q 151 -22 181 -22 q 138 -22 145 -22 q 126 -22 131 -22 q 90 -15 110 -20 q 55 0 71 -10 q 24 27 38 10 q 5 61 10 44 q -2 94 -1 78 q -2 124 -3 109 q 1 150 -1 139 q 6 173 3 162 q 18 209 12 191 q 32 244 24 227 q 55 293 44 271 q 72 328 65 316 q 78 338 76 333 q 83 345 81 342 l 83 344 q 86 350 85 347 q 88 353 87 352 l 91 359 q 124 385 103 379 q 159 382 144 392 q 173 363 169 374 q 178 341 178 352 q 176 326 178 333 q 170 310 174 318 q 167 307 169 309 q 165 303 166 306 l 165 303 q 163 300 164 302 q 160 297 163 299 q 145 275 155 289 q 122 235 136 260 q 107 209 115 224 q 95 182 100 194 q 83 148 89 167 q 76 108 77 128 q 76 92 75 100 q 81 78 77 84 q 94 64 85 69 q 114 55 103 58 l 113 56 q 158 50 139 50 q 251 68 201 50 q 316 99 288 81 q 367 134 345 116 q 409 169 390 152 q 442 201 428 187 q 481 245 464 224 q 510 284 497 266 q 515 297 511 289 l 515 300 l 519 295 q 528 302 519 297 q 547 312 536 307 q 565 321 557 317 q 574 323 574 325 l 588 270 l 586 259 l 588 263 q 587 254 587 258 q 586 247 587 250 q 586 243 586 244 q 585 240 585 241 q 585 230 585 234 q 585 219 585 225 q 585 206 585 213 q 586 192 585 199 q 590 166 588 179 q 600 140 593 153 q 617 117 606 128 q 646 100 628 106 l 645 100 q 671 94 658 96 q 697 92 684 92 q 722 94 708 93 q 747 97 735 95 q 790 107 770 101 q 825 117 809 112 l 824 117 q 889 144 860 130 q 954 174 919 158 q 1051 227 1007 201 q 1126 272 1095 253 q 1178 306 1157 292 q 1213 331 1199 320 q 1228 342 1222 338 q 1240 351 1235 347 q 1247 357 1244 354 q 1254 362 1251 360 l 1253 361 q 1258 364 1256 363 q 1270 374 1264 369 q 1284 383 1276 378 l 1283 383 z "},"v":{"ha":1026,"x_min":91,"x_max":1217,"o":"m 812 335 q 825 332 819 334 q 838 329 832 331 q 844 328 842 328 q 846 327 846 328 q 848 327 847 327 q 900 312 890 317 q 908 312 903 312 q 915 313 913 313 q 965 319 943 315 q 1003 328 986 324 l 1002 328 q 1036 339 1022 333 q 1060 348 1051 344 q 1093 362 1081 357 q 1115 372 1106 367 q 1123 377 1119 377 l 1126 380 l 1131 383 q 1138 385 1134 384 q 1147 390 1141 387 l 1147 390 q 1183 392 1165 399 q 1209 368 1201 385 q 1209 332 1217 350 q 1183 306 1201 313 l 1183 306 q 1178 304 1180 304 q 1174 303 1176 303 l 1173 303 q 1156 298 1169 302 q 1113 283 1144 294 q 1087 275 1105 280 q 1047 265 1069 270 q 998 253 1025 259 q 942 245 971 248 q 926 244 935 244 q 910 244 917 244 q 869 246 889 244 q 828 254 849 248 q 783 274 806 260 q 780 273 782 273 q 778 272 778 272 q 768 265 774 269 q 759 259 763 262 q 751 253 755 256 q 742 248 747 251 q 741 247 741 247 q 740 246 741 247 q 702 221 722 234 q 663 196 683 208 q 660 194 661 194 q 658 193 659 194 l 656 192 q 567 135 610 161 q 485 84 524 108 q 482 82 484 83 q 478 80 480 81 q 475 78 477 78 q 472 76 473 78 q 401 34 434 53 q 336 1 367 15 l 335 1 q 334 0 335 0 q 327 -3 331 -3 q 311 -9 319 -6 q 294 -12 303 -11 q 291 -13 292 -12 q 288 -12 290 -13 l 260 -1 l 257 3 q 255 5 256 3 q 253 8 253 7 q 249 13 252 9 q 245 17 245 15 q 244 19 244 18 q 243 21 244 20 q 240 25 241 23 q 238 31 240 28 q 223 58 230 44 q 209 84 215 72 l 209 83 q 197 108 203 95 q 185 132 191 121 q 183 136 184 134 q 181 141 183 139 q 175 153 178 147 q 169 164 172 158 q 167 168 168 167 q 165 173 167 170 q 134 238 147 210 q 113 282 122 265 l 114 281 q 110 289 112 285 q 106 296 108 292 l 107 295 q 102 304 104 300 q 99 312 100 308 q 97 317 97 315 q 95 319 96 318 q 91 338 91 328 q 94 356 91 348 q 103 372 97 365 q 119 382 110 378 q 155 382 138 389 q 181 356 172 375 l 184 343 q 184 342 184 342 q 185 341 185 342 q 196 309 188 331 q 220 244 204 286 q 221 241 221 243 q 222 238 222 240 q 224 233 222 235 q 224 230 224 231 l 224 235 q 227 226 225 231 q 231 217 228 222 q 241 191 235 205 q 253 162 247 178 q 265 136 259 149 q 278 108 271 122 q 288 86 282 97 q 301 61 293 74 l 301 61 q 320 69 311 65 q 340 78 330 74 q 380 99 360 88 q 422 123 400 110 q 517 181 465 148 q 621 247 569 213 q 663 274 642 260 q 702 300 684 288 q 706 302 707 303 q 708 304 707 303 q 710 306 710 305 q 718 310 714 308 q 726 316 722 313 q 729 318 727 317 q 733 321 731 319 l 769 342 q 771 345 769 343 q 775 348 773 347 q 781 347 778 349 q 787 340 783 345 q 788 339 788 340 q 789 339 788 339 l 789 340 l 812 335 l 812 335 z "},"w":{"ha":1395,"x_min":94,"x_max":1586,"o":"m 1515 394 q 1555 396 1535 402 q 1582 372 1574 390 q 1585 353 1586 363 q 1579 335 1584 344 q 1566 318 1574 326 q 1547 307 1558 311 q 1541 305 1544 306 q 1535 303 1538 305 q 1528 301 1532 302 q 1514 298 1523 300 q 1491 292 1505 297 q 1442 278 1471 286 q 1371 263 1413 270 l 1372 263 q 1325 256 1351 259 q 1266 251 1299 253 q 1261 251 1263 251 q 1256 251 1258 251 l 1245 251 q 1221 251 1233 251 q 1197 253 1208 252 q 1172 257 1187 253 q 1170 256 1171 257 q 1166 253 1168 255 q 1161 249 1163 251 l 1154 245 q 1136 233 1144 240 q 1117 220 1127 227 l 1117 221 l 1097 206 q 1047 173 1072 190 q 992 138 1021 156 q 942 107 969 124 q 886 76 915 91 q 855 61 871 69 q 824 48 839 54 q 788 36 806 42 q 747 27 770 31 q 730 26 739 26 q 714 28 722 26 q 697 31 704 28 q 681 38 689 34 q 657 53 667 44 q 638 73 646 63 q 616 108 624 91 q 604 139 608 125 q 589 219 592 179 q 528 161 563 193 q 449 88 494 128 q 392 41 419 64 q 335 0 365 19 q 318 -10 326 -6 q 303 -17 310 -14 q 280 -25 292 -22 q 250 -26 269 -28 q 224 -14 234 -22 q 207 2 215 -6 q 194 17 199 12 q 187 28 190 23 q 165 76 174 53 q 148 121 156 99 l 148 120 q 138 152 142 136 q 129 182 133 168 q 128 187 128 185 q 126 192 127 190 l 127 192 q 107 269 115 238 q 97 310 99 301 l 97 310 q 95 317 95 313 q 96 338 94 328 q 102 358 98 349 q 114 373 107 367 q 131 381 122 378 q 166 369 150 384 q 187 332 182 354 q 188 328 188 331 q 190 316 188 325 q 193 292 190 308 q 201 243 196 276 q 202 240 201 241 q 203 238 202 239 q 206 227 205 233 q 208 215 206 221 q 210 199 209 208 q 215 181 212 191 q 224 145 218 166 q 240 98 231 124 l 241 97 q 251 73 246 85 q 263 54 256 62 q 266 49 267 49 q 271 49 267 48 q 279 53 275 51 l 278 53 q 307 70 292 60 q 340 92 323 80 q 373 116 356 103 q 403 140 389 128 q 510 236 465 192 q 586 312 555 280 l 584 310 q 590 316 585 311 q 595 324 594 322 q 592 324 593 323 q 589 326 589 324 l 599 326 l 619 346 q 643 335 635 342 q 656 322 652 329 q 659 305 659 314 q 658 288 659 297 q 659 275 658 281 q 660 262 659 268 q 664 233 661 247 q 668 206 666 219 q 674 183 671 195 q 682 160 677 172 l 681 160 q 691 141 685 151 q 704 123 697 132 q 717 114 710 117 q 736 111 725 110 q 773 119 752 113 q 816 134 793 125 q 872 158 846 146 q 918 181 897 170 q 924 183 921 182 q 961 203 943 193 q 994 223 980 214 q 998 226 996 224 q 999 226 999 226 l 999 226 q 1038 251 1019 238 q 1077 276 1058 263 l 1077 278 q 1084 284 1077 279 q 1104 295 1091 288 q 1135 310 1117 302 q 1176 328 1153 319 q 1191 325 1184 326 q 1201 324 1197 324 q 1227 322 1213 322 q 1251 322 1242 322 q 1294 327 1272 324 q 1334 333 1316 330 q 1392 348 1365 340 q 1435 361 1420 356 q 1445 365 1440 363 q 1453 369 1450 367 q 1474 376 1465 373 q 1489 383 1483 379 q 1497 386 1495 385 q 1503 389 1500 388 q 1515 394 1506 390 l 1515 394 z "},"x":{"ha":883,"x_min":5,"x_max":1082,"o":"m 1076 364 q 1066 326 1082 344 q 1022 303 1049 309 q 1020 302 1021 303 q 1019 302 1019 302 q 1018 302 1018 302 q 1014 301 1017 302 q 1011 301 1013 301 q 1009 301 1010 301 q 992 299 1003 300 q 963 296 981 299 q 957 294 964 296 q 905 290 937 292 q 826 288 874 288 q 771 292 801 289 q 705 303 741 294 l 698 305 q 692 308 695 305 q 693 307 692 308 q 692 306 694 306 q 687 307 688 306 q 679 305 683 306 q 672 302 675 303 q 665 300 668 301 q 659 297 663 299 l 660 298 q 624 283 642 290 q 585 266 605 275 q 399 170 502 227 q 412 170 406 170 q 425 169 419 169 q 461 163 442 167 q 501 150 481 158 q 542 127 522 141 q 578 92 562 113 q 592 68 585 81 q 602 38 599 54 l 602 39 q 603 33 603 38 q 605 28 604 29 l 605 21 l 606 18 l 606 8 q 601 -5 603 1 q 594 -17 599 -11 q 580 -27 588 -24 q 567 -33 572 -31 q 552 -33 558 -35 q 539 -30 545 -32 q 520 -23 530 -26 q 502 -13 510 -19 l 503 -14 q 499 -12 501 -13 q 494 -9 496 -10 q 480 1 487 -4 q 465 12 472 6 l 465 12 q 409 52 436 32 q 360 90 383 72 l 361 89 q 359 91 360 90 q 358 92 358 91 q 353 95 356 94 q 349 99 351 96 q 316 94 331 97 q 288 88 301 91 l 289 88 q 242 73 263 80 q 205 58 221 65 l 206 58 q 202 56 203 57 q 198 54 200 56 l 199 55 q 194 52 197 53 q 190 50 192 51 q 184 47 187 48 q 176 42 180 44 q 167 37 172 40 q 159 32 163 34 q 149 26 155 29 l 150 27 q 138 20 144 24 q 126 13 132 17 q 97 -4 112 5 q 69 -19 81 -12 l 68 -19 l 67 -22 l 52 -26 q 50 -27 51 -27 q 49 -28 50 -28 l 48 -28 q 37 -34 40 -32 q 23 -14 28 -22 q 13 3 18 -6 q 9 10 10 7 q 6 16 8 12 q 6 26 5 19 q 10 40 6 32 q 24 59 15 49 q 27 60 26 60 q 30 62 28 61 q 33 63 32 63 q 49 71 41 67 q 63 78 57 75 q 67 80 65 79 q 72 82 70 81 q 74 83 72 82 q 86 89 80 86 q 99 94 93 92 q 145 120 120 107 q 200 150 169 134 l 228 164 q 242 171 235 167 q 256 178 249 174 q 240 192 246 185 q 231 199 235 195 q 222 206 226 203 l 221 208 q 144 273 171 251 q 113 301 118 295 q 91 339 94 317 q 101 375 88 361 q 131 387 113 387 q 155 382 143 387 q 176 368 167 378 l 187 358 q 208 336 194 350 q 251 294 222 322 q 267 278 259 286 q 284 262 275 271 q 305 243 293 253 q 333 217 317 232 q 374 238 354 228 q 411 257 394 248 l 410 256 q 420 261 415 259 q 431 267 426 264 q 495 298 464 283 q 564 331 526 313 q 628 360 598 346 q 644 366 636 363 q 660 373 651 369 l 659 373 q 664 375 660 374 q 671 377 668 376 q 671 377 670 377 q 677 381 672 378 l 687 381 q 693 380 689 381 l 697 379 q 706 377 701 378 q 713 375 711 376 l 710 376 q 756 367 732 369 q 800 364 779 365 q 865 366 837 363 q 913 373 893 369 q 956 381 940 378 q 984 388 972 384 q 996 391 990 389 q 1010 394 1003 392 q 1052 390 1033 399 q 1076 365 1071 382 l 1076 364 m 550 41 q 547 43 549 42 q 544 44 545 43 q 550 41 548 42 z "},"y":{"ha":1086,"x_min":-9,"x_max":1281,"o":"m 1178 367 q 1212 381 1195 376 q 1242 386 1228 386 q 1276 369 1267 386 q 1279 350 1281 361 q 1270 329 1277 340 q 1251 307 1263 318 q 1225 288 1240 297 q 1219 284 1222 286 q 1214 281 1217 282 q 1211 279 1213 280 q 1208 278 1209 278 q 1195 272 1202 276 q 1179 263 1189 269 q 1155 249 1169 258 q 1120 228 1140 241 l 1121 228 q 1038 174 1088 208 q 919 86 988 140 l 919 86 q 845 23 886 59 q 759 -57 804 -12 q 664 -153 713 -101 q 566 -264 615 -205 q 453 -419 510 -333 q 342 -609 397 -506 q 236 -833 287 -712 q 142 -1093 185 -954 l 142 -1092 q 139 -1102 141 -1099 q 135 -1110 138 -1106 q 133 -1114 135 -1111 q 129 -1120 131 -1117 l 119 -1130 l 118 -1128 q 113 -1132 115 -1131 q 109 -1135 110 -1134 q 93 -1139 101 -1138 q 77 -1137 84 -1140 q 63 -1131 69 -1135 q 54 -1122 57 -1126 l 53 -1121 q 45 -1105 47 -1114 q 43 -1097 43 -1099 q 42 -1092 42 -1095 q 42 -1086 42 -1088 l 42 -1067 q 43 -1064 42 -1065 q 43 -1061 43 -1062 q 46 -1038 44 -1049 q 49 -1016 47 -1026 q 57 -980 52 -998 q 65 -947 61 -962 l 64 -947 q 65 -942 65 -944 q 66 -937 65 -940 q 84 -871 75 -902 q 101 -813 92 -840 q 132 -713 117 -760 q 165 -617 147 -667 l 175 -587 q 180 -573 178 -580 q 185 -558 183 -565 q 197 -526 191 -542 q 208 -492 202 -510 q 245 -388 224 -446 q 291 -259 266 -330 q 348 -102 317 -187 q 415 84 378 -17 q 442 157 428 120 q 468 227 456 194 q 422 194 444 210 q 377 163 399 178 q 290 107 331 133 q 209 59 248 81 q 169 40 190 49 q 131 23 149 31 q 109 16 120 19 q 86 11 98 13 l 81 11 q 70 10 76 10 q 56 11 64 10 q 36 17 47 12 q 17 31 26 22 l 17 31 q 7 43 12 35 l 4 48 q 3 51 4 48 q 0 56 1 53 q -1 62 -1 60 q -4 70 -3 67 q -6 76 -6 74 q -8 80 -8 78 q -9 103 -9 90 q -8 125 -9 115 q -2 156 -6 141 q 6 184 2 171 q 19 220 11 203 q 33 252 27 238 q 34 255 34 253 q 35 258 35 256 l 35 253 q 35 255 35 254 q 35 256 35 255 q 35 260 35 258 q 38 265 35 262 q 62 311 53 294 q 75 333 72 327 q 97 361 85 349 q 120 380 108 373 q 143 387 132 386 q 162 383 154 388 q 173 370 169 378 q 176 352 176 362 q 170 322 176 339 q 154 286 164 304 l 153 285 l 153 286 q 152 284 153 285 q 151 283 152 284 q 147 275 149 279 q 144 269 145 272 q 128 243 138 261 q 117 223 123 234 q 105 197 110 211 q 91 164 99 183 q 78 120 84 145 q 77 110 77 115 q 76 102 76 105 l 76 94 q 88 95 82 94 q 102 100 94 97 q 182 136 140 113 q 269 186 224 158 q 317 216 290 199 q 372 252 343 233 q 430 292 400 272 q 488 333 460 313 l 496 340 q 503 344 499 342 q 510 349 506 346 q 512 350 510 349 q 514 352 513 351 q 516 354 515 353 l 521 363 l 526 362 l 528 363 l 532 366 q 535 369 533 367 q 539 372 538 371 l 549 383 q 560 373 553 379 q 570 366 568 367 q 578 359 576 360 q 578 359 581 358 l 577 359 q 583 355 580 358 q 593 349 587 352 q 585 329 590 339 q 580 317 581 319 q 580 315 580 316 q 579 314 579 315 q 578 310 578 313 q 576 306 577 308 q 574 301 576 304 q 572 296 573 299 q 570 289 571 292 q 567 283 569 286 q 558 257 563 270 q 547 231 553 244 q 515 148 532 192 q 481 60 498 104 q 386 -196 426 -85 q 315 -394 345 -307 q 264 -547 285 -481 q 226 -667 242 -613 q 233 -653 229 -660 q 240 -640 236 -647 q 289 -550 265 -592 q 335 -473 313 -508 q 378 -406 357 -438 q 421 -343 399 -374 q 467 -279 443 -311 q 519 -210 491 -247 q 690 -20 611 -98 q 832 112 769 57 q 940 201 894 166 q 1019 260 986 236 q 1074 299 1051 284 q 1113 326 1096 315 q 1145 347 1131 338 q 1178 367 1160 356 z "},"z":{"ha":1033,"x_min":-271,"x_max":1219,"o":"m 1215 371 q 1217 352 1219 363 q 1208 331 1215 342 q 1190 308 1201 319 q 1164 289 1178 297 l 1165 289 q 1157 284 1160 286 q 1147 279 1153 283 q 1137 274 1143 277 q 1122 266 1131 271 q 1098 252 1113 260 q 1063 232 1083 244 l 1063 232 q 1015 200 1042 219 q 951 155 988 181 q 932 141 942 148 q 911 126 922 133 q 865 92 889 110 q 705 -34 797 43 q 494 -223 613 -112 l 494 -222 q 365 -355 433 -281 q 225 -514 296 -429 q 147 -612 186 -561 q 65 -719 107 -662 q 44 -760 55 -740 q 24 -799 34 -781 l 24 -799 l 19 -808 q -62 -953 -26 -892 q -130 -1064 -99 -1015 q -139 -1077 -135 -1072 q -148 -1091 -143 -1083 l -162 -1111 q -171 -1123 -166 -1117 q -181 -1135 -176 -1129 q -183 -1137 -182 -1136 q -184 -1139 -183 -1138 q -187 -1143 -185 -1141 q -192 -1147 -190 -1144 q -201 -1155 -196 -1151 q -213 -1164 -206 -1159 q -238 -1167 -225 -1169 q -253 -1160 -246 -1165 q -264 -1150 -260 -1156 q -271 -1133 -267 -1146 l -271 -1129 q -270 -1126 -271 -1128 q -270 -1122 -270 -1124 l -270 -1117 q -268 -1107 -269 -1112 q -265 -1096 -267 -1102 q -259 -1080 -262 -1089 q -253 -1065 -256 -1071 l -253 -1066 q -240 -1038 -246 -1051 q -228 -1014 -234 -1026 l -228 -1015 l -226 -1009 q -150 -881 -196 -953 q -38 -722 -105 -810 q -14 -691 -26 -706 q 8 -662 -2 -676 q 13 -656 10 -659 q 17 -651 15 -653 l 17 -651 q 24 -641 20 -646 q 32 -631 27 -637 q 52 -590 42 -612 q 72 -545 62 -568 q 116 -433 94 -494 q 157 -301 138 -373 q 186 -163 176 -230 q 195 -33 196 -96 q 192 27 195 -3 q 181 84 188 56 l 180 106 l 185 115 l 204 132 q 209 136 206 133 q 215 140 213 138 q 222 144 217 142 q 223 145 222 145 q 224 146 223 145 q 224 147 224 146 q 231 152 228 149 q 238 157 235 155 q 240 159 240 158 q 242 160 241 160 q 244 162 243 160 q 261 175 253 169 q 277 188 269 181 q 355 250 319 221 q 418 304 390 278 l 418 303 l 424 309 l 422 309 q 418 310 420 310 q 414 310 415 310 q 376 315 394 314 q 344 316 359 316 q 336 316 340 316 q 328 315 332 315 l 314 315 q 274 313 292 315 q 241 310 256 312 q 216 308 227 309 q 197 306 206 307 q 191 305 194 305 q 186 304 188 305 q 184 304 185 304 q 181 303 183 303 q 172 303 178 303 q 158 301 166 301 q 144 301 149 301 q 100 310 117 301 q 80 337 83 319 q 84 355 78 346 q 100 373 90 365 q 126 386 111 381 q 159 394 141 392 l 158 394 q 176 397 165 396 q 210 399 188 397 q 217 399 214 399 q 225 399 221 399 q 235 399 230 399 q 245 400 240 399 q 276 401 259 401 q 313 402 293 402 q 334 402 323 402 q 358 401 346 402 l 360 401 q 363 401 361 401 q 366 401 365 401 q 396 398 380 399 q 423 395 412 397 l 422 395 q 424 394 423 394 q 427 394 426 394 q 463 386 443 391 q 510 365 483 381 l 513 361 l 516 359 l 519 356 q 528 337 527 347 q 528 320 530 327 l 529 322 q 518 294 526 304 q 509 281 513 285 q 503 273 506 276 q 488 259 499 268 q 467 240 478 249 q 427 207 449 224 q 385 173 406 189 q 340 138 363 156 q 290 101 316 120 q 277 91 284 97 q 264 82 269 85 q 261 80 263 81 q 258 78 260 79 q 264 49 262 63 q 267 22 265 35 q 268 -2 268 10 q 268 -28 268 -15 q 256 -167 268 -92 q 223 -319 244 -242 q 213 -358 217 -342 q 204 -389 208 -374 q 194 -418 199 -403 q 180 -454 188 -433 q 205 -426 192 -440 q 229 -399 217 -412 l 235 -394 q 241 -385 238 -391 q 293 -329 268 -356 q 345 -276 319 -302 q 398 -222 371 -249 q 456 -165 425 -195 q 639 0 558 -68 q 781 117 719 68 l 781 116 q 792 126 786 121 q 804 135 799 131 q 840 162 822 149 q 872 188 857 176 q 923 228 899 210 q 964 259 946 246 q 1007 290 989 276 q 1039 314 1025 303 l 1047 320 q 1080 344 1063 332 q 1117 367 1097 356 q 1150 382 1133 377 q 1179 387 1167 387 q 1213 372 1203 387 l 1215 371 l 1215 371 z "},"A":{"ha":1296,"x_min":-173,"x_max":1481,"o":"m 1476 371 q 1480 352 1481 363 q 1473 330 1479 342 q 1455 307 1467 318 q 1428 287 1443 296 l 1413 279 l 1413 279 l 1402 274 q 1399 272 1401 273 q 1396 271 1397 272 q 1392 269 1394 269 q 1388 267 1390 269 q 1324 238 1368 258 l 1324 238 q 1322 237 1323 238 q 1319 236 1321 237 q 1315 234 1317 235 q 1313 234 1313 233 q 1228 201 1280 220 q 1098 161 1176 181 q 1013 143 1058 151 q 917 131 968 135 q 916 125 917 128 q 914 120 915 122 q 897 73 906 96 q 876 27 888 49 q 859 3 869 15 q 835 -17 850 -9 q 783 -31 809 -32 q 734 -20 756 -31 q 696 3 713 -10 q 667 30 681 15 q 641 61 653 45 q 598 125 614 97 l 579 163 q 577 167 578 165 q 576 173 576 169 l 580 163 q 582 169 582 161 q 583 183 583 177 l 591 190 q 590 205 590 197 q 597 219 591 213 l 611 218 l 613 217 l 622 217 q 631 214 626 215 q 642 212 636 213 q 728 201 686 204 q 806 197 770 197 q 832 198 819 197 q 857 199 844 198 q 863 228 860 214 q 869 259 865 243 l 869 258 q 872 276 870 267 q 876 295 874 285 q 897 420 887 355 q 915 551 906 485 l 915 550 q 933 702 926 638 q 944 817 939 766 q 944 820 944 819 q 944 822 944 821 l 944 828 q 945 843 945 835 q 947 857 946 850 l 947 856 q 951 929 949 894 q 953 1003 953 964 q 953 1051 953 1026 q 949 1108 953 1077 q 949 1107 949 1107 l 949 1108 q 948 1110 949 1108 q 948 1113 948 1111 q 945 1128 947 1118 q 942 1142 943 1138 q 938 1139 940 1140 q 933 1135 935 1137 q 869 1081 902 1112 q 798 1013 835 1050 q 717 929 759 974 q 624 830 674 884 q 532 728 578 778 q 445 631 487 678 q 365 541 403 583 q 296 463 327 498 q 227 383 260 422 q 165 311 193 344 q 143 284 153 297 q 122 260 132 272 q 104 240 113 250 q 88 220 95 229 q -4 112 31 154 q -56 50 -40 69 q -61 42 -59 45 q -67 36 -64 39 q -70 32 -68 34 q -71 31 -72 30 q -95 9 -83 18 q -120 -5 -108 0 q -143 -9 -133 -10 q -161 -3 -154 -9 q -171 14 -169 3 q -170 36 -173 24 q -161 62 -168 48 q -144 89 -154 76 q -140 93 -142 90 q -135 99 -137 97 q -128 106 -131 102 q -121 114 -125 109 q -85 153 -108 127 q -18 227 -61 179 q 12 261 -4 242 q 47 300 28 279 q 65 320 56 310 q 84 341 74 331 q 133 396 107 367 q 189 458 159 425 q 204 475 197 467 q 219 492 212 483 q 375 664 288 568 q 573 878 461 760 q 681 991 629 939 q 776 1085 733 1042 q 820 1128 799 1108 q 863 1165 842 1148 q 866 1168 864 1167 q 869 1171 867 1169 q 872 1174 870 1172 q 874 1176 874 1175 q 877 1178 876 1177 q 881 1181 879 1179 q 891 1189 885 1184 q 906 1198 897 1193 l 905 1198 q 917 1206 910 1202 q 931 1213 924 1210 q 944 1217 937 1216 q 958 1218 952 1219 q 974 1213 967 1217 q 986 1204 982 1208 q 1000 1184 996 1194 q 1008 1164 1004 1174 q 1009 1161 1008 1163 q 1010 1158 1010 1159 l 1010 1156 l 1010 1154 q 1011 1153 1010 1153 l 1011 1153 q 1016 1133 1013 1144 q 1019 1113 1018 1121 l 1019 1108 q 1020 1106 1019 1106 l 1020 1106 q 1024 1069 1022 1090 q 1026 1032 1025 1048 q 1027 989 1027 1012 q 1028 949 1028 966 q 1027 938 1028 944 q 1027 927 1027 933 l 1027 908 q 1023 798 1026 851 q 1015 683 1021 745 q 1000 540 1010 622 q 971 359 990 458 q 962 311 965 331 q 955 275 958 292 q 947 242 951 258 q 938 206 943 226 q 987 214 963 209 q 1034 223 1011 219 l 1033 222 q 1149 256 1097 237 q 1234 289 1201 275 q 1278 310 1259 301 q 1311 327 1297 319 l 1310 327 q 1314 330 1312 328 q 1319 332 1316 331 l 1324 334 q 1342 344 1333 340 q 1359 353 1350 348 l 1358 353 q 1363 356 1360 355 q 1368 359 1365 358 l 1367 358 q 1375 363 1371 360 q 1383 367 1379 365 q 1415 381 1399 376 q 1442 385 1431 385 q 1476 372 1465 385 l 1476 371 m 803 47 q 813 61 809 53 q 821 78 817 69 l 821 78 q 830 102 826 89 q 838 126 835 115 l 815 126 q 745 128 781 126 q 672 136 709 131 q 694 104 682 120 q 719 74 706 88 q 748 51 732 61 q 780 40 764 40 q 793 42 785 40 l 794 42 q 799 44 797 43 q 801 46 800 45 q 803 47 802 47 q 803 47 803 47 m 1011 1153 q 1010 1154 1010 1154 l 1010 1156 q 1011 1155 1010 1155 q 1011 1153 1011 1154 z "},"B":{"ha":1463,"x_min":-65,"x_max":1659,"o":"m 850 -51 q 851 -51 851 -51 q 853 -49 851 -50 l 849 -51 q 834 -45 842 -49 q 820 -36 826 -42 q 815 -23 815 -31 q 825 -4 815 -15 q 857 23 835 8 q 919 60 879 39 l 918 59 q 956 83 934 69 q 996 110 977 97 q 1030 141 1013 124 q 1057 176 1047 157 l 1056 176 q 1065 195 1062 186 q 1067 215 1067 205 q 1052 236 1065 228 q 1030 244 1042 242 q 1006 248 1018 247 l 1001 248 q 991 249 996 249 q 981 249 985 249 q 964 249 974 249 q 945 247 954 249 q 877 237 913 244 q 813 222 842 231 q 812 222 813 222 q 811 221 811 222 q 809 221 810 221 q 801 219 804 219 q 797 218 798 219 q 716 205 738 203 q 698 222 694 207 q 725 263 701 237 q 779 322 748 288 l 806 350 q 910 469 856 406 q 1017 597 965 531 q 1072 664 1044 630 q 1126 735 1099 698 q 1180 810 1153 772 q 1228 887 1206 849 l 1227 887 q 1251 935 1241 912 q 1265 977 1261 958 l 1265 976 q 1266 984 1265 984 l 1266 985 l 1268 984 q 1267 985 1268 984 l 1265 985 l 1256 987 l 1243 990 l 1244 989 q 1230 991 1237 990 q 1218 991 1223 991 q 1196 990 1208 991 q 1173 986 1184 988 q 1139 978 1156 983 q 1107 969 1123 974 q 1047 943 1076 957 q 990 915 1017 929 l 991 915 q 934 883 961 899 q 882 849 907 866 q 823 809 853 831 q 760 762 793 788 q 690 707 726 737 q 613 641 653 677 q 421 463 531 571 q 176 209 311 356 l 176 210 q 109 134 142 172 q 47 60 76 96 q 19 26 32 42 q 15 22 17 24 q 12 17 13 19 l 6 10 q 1 3 5 7 q -10 -4 -2 0 l -17 -11 l -22 -11 q -32 -17 -26 -14 q -45 -24 -37 -20 l -39 -10 l -43 -10 q -45 -10 -44 -10 q -57 -1 -53 -5 q -63 5 -61 2 q -65 11 -65 8 q -65 19 -65 15 l -65 22 q -64 30 -65 28 q -60 37 -63 33 l -61 37 q -59 43 -60 41 q -56 47 -57 45 l -44 69 l -42 66 q -40 72 -41 67 l -40 71 q -38 74 -39 73 q -35 79 -37 76 q -34 82 -35 81 q -32 85 -33 83 q -22 103 -26 94 q -12 121 -17 111 l -12 120 q 60 267 27 197 q 122 401 93 336 q 213 605 170 508 q 286 776 255 703 q 294 794 290 785 q 301 810 298 802 q 339 899 321 856 q 372 978 357 942 q 399 1042 388 1014 q 417 1086 410 1069 q 423 1100 421 1094 q 428 1111 426 1106 q 433 1123 431 1117 q 437 1132 435 1128 l 437 1131 q 456 1166 445 1150 q 478 1192 467 1181 q 500 1207 489 1203 q 520 1209 511 1212 q 540 1170 540 1199 q 535 1136 540 1156 q 521 1094 530 1116 q 513 1076 517 1086 q 501 1050 508 1067 q 488 1022 495 1038 q 470 982 481 1005 q 446 928 460 958 q 415 858 432 897 q 407 839 410 849 q 398 820 403 830 l 398 821 q 391 805 394 813 q 383 788 387 796 l 383 788 q 368 755 376 772 q 351 719 360 738 q 298 599 327 665 q 235 461 268 533 q 224 440 229 450 q 214 417 219 429 q 204 397 210 408 q 194 375 199 385 l 194 376 q 151 283 172 331 q 417 552 292 434 q 634 749 541 670 q 727 825 683 790 q 809 888 770 859 q 885 940 849 916 q 956 984 921 963 q 1027 1022 989 1003 q 1097 1051 1065 1040 q 1137 1064 1115 1058 q 1178 1072 1158 1069 q 1199 1074 1188 1073 q 1223 1074 1209 1074 q 1248 1073 1235 1074 q 1274 1069 1261 1072 l 1274 1069 q 1288 1066 1280 1068 q 1304 1059 1296 1063 q 1321 1048 1313 1055 q 1336 1032 1329 1042 q 1347 1007 1344 1020 q 1349 982 1349 994 q 1349 970 1349 975 q 1348 960 1349 965 q 1331 905 1342 931 q 1304 851 1319 878 q 1237 744 1274 797 q 1153 633 1199 690 q 1033 491 1089 554 q 930 375 978 428 q 896 339 913 357 q 863 306 879 322 q 880 308 872 307 q 897 311 888 310 q 948 317 922 315 q 1002 317 974 319 q 1031 314 1017 316 q 1060 307 1046 313 q 1091 291 1075 301 q 1118 265 1106 281 q 1133 228 1129 249 q 1134 190 1136 208 q 1126 163 1132 176 q 1113 138 1121 150 q 1239 198 1185 171 q 1331 245 1292 225 q 1425 297 1387 276 q 1490 332 1464 317 q 1495 335 1492 333 q 1501 339 1498 338 l 1501 338 q 1520 349 1510 344 q 1540 360 1530 355 q 1584 381 1563 374 q 1622 388 1606 388 q 1652 376 1642 388 l 1655 372 q 1656 353 1659 364 q 1643 329 1653 342 q 1619 304 1634 317 q 1585 280 1603 291 q 1573 274 1578 276 q 1560 267 1568 271 q 1546 260 1554 265 q 1524 249 1538 256 q 1491 233 1510 242 q 1444 209 1472 223 q 1327 152 1399 187 q 1148 71 1256 118 q 1028 19 1096 48 q 889 -38 961 -9 q 881 -41 885 -40 q 870 -44 876 -43 l 856 -50 q 853 -51 855 -50 q 853 -51 853 -51 q 852 -51 853 -51 q 851 -52 851 -52 l 850 -51 m 846 -53 l 849 -51 l 850 -51 q 846 -53 849 -53 m -60 40 q -60 39 -60 39 q -60 38 -60 38 q -60 40 -60 39 z "},"C":{"ha":1094,"x_min":68,"x_max":1283,"o":"m 1141 351 q 1165 364 1153 358 q 1190 378 1176 371 q 1215 389 1202 385 q 1240 392 1228 392 q 1279 372 1269 392 l 1279 373 q 1282 355 1283 365 q 1274 334 1281 344 q 1257 313 1268 323 q 1232 295 1247 303 q 1227 293 1229 294 q 1224 292 1226 292 q 1220 290 1222 290 q 1217 289 1218 290 q 1202 282 1211 286 q 1173 269 1192 278 q 1160 263 1167 266 q 1145 256 1153 259 l 1146 256 q 1070 220 1117 242 q 963 169 1024 198 q 958 167 960 168 q 953 165 956 167 l 953 166 q 885 135 922 152 q 804 101 848 119 q 703 62 758 83 q 583 22 648 42 q 508 0 548 10 q 428 -17 468 -10 q 372 -26 401 -22 q 309 -30 343 -30 q 273 -28 290 -30 q 239 -24 256 -27 q 185 -8 213 -19 q 133 26 157 4 q 94 80 111 49 q 72 142 77 111 q 68 195 68 167 q 69 231 68 213 q 74 265 71 249 q 87 325 78 294 q 106 385 95 356 q 159 507 131 452 q 209 602 187 563 q 253 674 231 641 q 299 742 274 706 q 353 819 323 777 q 427 915 383 861 q 474 970 447 940 q 536 1039 501 1001 q 613 1111 567 1070 q 659 1148 634 1130 q 688 1166 674 1158 q 715 1179 703 1175 q 736 1184 728 1183 q 747 1187 744 1186 l 767 1187 q 803 1185 787 1187 q 839 1175 820 1182 q 873 1160 857 1169 q 904 1134 890 1150 q 926 1101 918 1119 q 939 1068 934 1085 q 944 1036 943 1051 q 945 1024 945 1031 q 946 1010 946 1017 q 943 964 946 985 q 935 924 940 943 q 923 877 930 901 q 908 831 916 853 q 877 753 894 790 q 845 685 860 716 q 815 626 831 654 q 787 576 799 598 q 718 457 745 502 q 681 399 691 413 l 681 400 q 678 394 680 397 q 675 390 676 391 q 656 368 667 378 q 633 354 644 359 q 611 349 622 349 q 593 354 601 349 q 582 368 585 360 q 578 387 578 377 q 584 413 578 399 q 599 441 589 427 l 598 441 q 603 449 599 443 q 607 453 605 451 q 610 458 608 455 q 621 473 615 464 q 636 495 627 481 q 657 527 645 508 q 686 571 669 546 q 690 576 686 572 q 693 581 692 579 q 749 675 717 619 q 813 801 780 730 q 830 841 821 819 q 847 890 838 863 q 861 939 855 912 q 871 993 868 965 q 872 1005 872 999 q 872 1015 872 1011 q 872 1028 872 1022 q 869 1044 871 1035 q 861 1069 866 1058 q 849 1088 857 1080 l 850 1088 q 829 1103 842 1097 q 803 1113 817 1109 q 770 1117 788 1115 q 764 1117 767 1117 q 758 1117 760 1117 q 752 1116 758 1117 q 742 1115 745 1116 l 744 1116 q 717 1103 730 1111 q 692 1087 703 1096 q 667 1068 679 1078 q 644 1049 655 1058 l 644 1049 q 604 1010 625 1031 q 565 969 583 989 l 565 970 q 500 896 529 931 q 449 831 471 861 q 371 720 401 768 q 317 633 340 672 q 275 554 295 593 q 231 467 254 515 l 231 467 q 210 419 222 445 q 187 360 199 394 q 165 292 176 329 q 150 213 155 254 q 149 199 149 206 q 149 187 149 192 q 160 119 149 151 q 180 88 167 101 q 206 66 192 74 q 237 53 220 58 q 270 45 254 48 q 303 42 287 42 q 333 42 319 41 q 393 48 363 43 q 452 58 423 52 q 513 73 483 65 q 573 91 544 81 q 672 125 627 108 q 758 159 717 142 q 832 192 797 176 q 894 222 866 208 q 993 270 953 249 q 1061 306 1033 291 l 1060 305 q 1105 330 1088 320 q 1137 348 1123 340 q 1139 350 1138 349 q 1142 351 1140 351 l 1141 351 l 1141 351 z "},"D":{"ha":1308,"x_min":-71,"x_max":1500,"o":"m 1497 371 q 1495 351 1500 363 q 1480 328 1491 340 q 1452 305 1469 316 q 1413 285 1435 293 q 1408 283 1411 284 q 1397 280 1404 281 q 1394 279 1396 279 q 1389 277 1392 278 l 1382 275 q 1379 274 1381 274 q 1374 272 1377 274 q 1331 259 1359 267 q 1253 237 1303 251 q 1115 205 1199 223 q 916 170 1032 187 l 917 170 q 911 169 914 169 q 904 168 908 169 l 903 168 q 901 165 902 167 q 899 163 901 164 q 895 157 897 160 q 892 153 893 155 q 757 6 826 67 q 719 -23 738 -10 q 681 -47 701 -37 q 663 -56 673 -51 q 639 -64 652 -60 l 640 -64 q 618 -69 628 -67 q 601 -72 608 -70 q 597 -72 598 -72 l 597 -72 q 572 -74 585 -74 q 544 -75 558 -75 q 495 -73 518 -75 q 451 -67 472 -70 q 388 -52 417 -61 q 331 -32 358 -42 q 229 16 278 -11 q 138 76 181 44 q 94 118 117 92 l 93 119 q 86 127 89 123 l 84 128 q 58 85 73 107 l 58 85 q 43 63 51 74 q 28 42 36 51 q 17 28 23 34 q 6 17 12 22 q -3 10 1 13 q -11 4 -8 7 l -19 2 l -19 2 q -24 1 -22 1 q -31 1 -26 1 q -42 2 -36 1 q -53 8 -49 3 q -64 18 -61 13 q -69 29 -67 24 q -70 45 -71 39 q -69 55 -70 51 l -69 56 q -67 65 -68 60 q -64 74 -65 69 l -63 76 q -63 77 -62 77 q -62 78 -63 77 q -59 88 -61 83 q -53 101 -58 92 q -51 106 -51 104 q -49 110 -51 108 q -40 132 -44 121 q -29 152 -35 142 q -1 203 -16 176 q 29 254 13 229 q 76 327 50 288 q 126 401 102 366 q 139 432 133 416 q 150 461 144 447 l 150 460 q 152 466 151 464 q 155 472 153 468 q 160 484 158 478 q 164 496 162 490 q 203 597 185 548 q 238 686 222 646 q 278 797 259 744 q 313 891 298 849 q 339 963 328 933 q 355 1007 349 993 q 357 1015 356 1011 q 360 1021 358 1018 l 360 1020 l 362 1026 q 380 1065 369 1047 q 400 1094 390 1083 q 422 1112 411 1106 q 442 1114 433 1117 l 442 1114 q 458 1098 453 1110 q 464 1067 464 1085 q 460 1034 464 1053 q 449 995 457 1015 q 440 971 445 985 q 424 930 435 957 q 397 859 414 903 q 351 743 379 815 q 346 729 349 737 q 340 714 343 721 l 340 715 q 333 698 337 707 q 326 681 330 689 l 327 681 q 320 663 323 670 q 315 649 317 655 q 313 644 311 642 q 316 651 314 646 q 313 645 315 649 q 310 638 312 642 q 381 715 347 679 q 451 785 416 751 q 583 895 518 847 q 709 975 648 943 q 817 1016 763 1001 q 919 1031 871 1031 q 933 1031 926 1031 q 948 1030 941 1031 q 1002 1019 975 1027 q 1051 998 1028 1011 q 1091 965 1072 985 q 1122 924 1110 945 q 1146 854 1140 889 q 1152 784 1152 819 q 1152 768 1152 776 q 1151 753 1152 760 q 1140 670 1149 713 q 1117 582 1131 626 q 1084 488 1103 536 q 1038 388 1065 440 q 1003 324 1023 359 q 963 255 984 288 q 1068 276 1023 265 q 1146 294 1114 286 q 1227 317 1190 306 q 1288 338 1263 329 q 1334 355 1313 347 q 1381 372 1355 363 q 1421 384 1401 380 q 1458 388 1442 388 q 1496 372 1487 388 l 1497 371 m 176 322 q 150 264 164 294 q 122 202 137 234 q 129 203 124 203 q 174 204 149 204 q 221 204 199 204 l 279 204 q 594 214 455 204 q 837 236 733 223 l 838 236 q 840 237 840 236 l 839 237 q 846 239 844 238 q 853 240 848 239 q 908 326 881 281 q 960 420 935 371 q 1009 527 989 477 q 1042 621 1028 576 q 1063 703 1056 665 q 1072 776 1070 741 q 1069 838 1073 808 q 1051 891 1065 867 q 1020 929 1040 913 q 974 951 1000 945 q 944 957 960 955 q 910 959 928 959 q 876 957 894 959 q 838 950 858 954 l 838 951 q 665 870 762 932 q 566 797 617 839 q 460 699 515 754 q 347 575 405 644 q 226 421 288 506 l 227 422 q 225 418 226 420 q 222 415 224 417 q 220 413 221 414 q 218 410 219 411 q 214 403 216 406 q 210 398 212 401 q 208 394 209 397 q 207 391 208 392 q 205 386 206 388 q 202 380 203 383 l 202 381 q 197 368 199 374 q 191 356 194 362 l 176 322 m 632 14 q 698 59 663 28 q 769 130 732 90 q 773 133 772 132 q 776 136 774 134 q 782 143 778 138 q 792 156 785 147 q 583 141 697 147 q 328 135 468 135 q 278 135 303 135 q 227 136 253 135 l 172 136 q 174 135 173 135 q 201 114 188 123 q 226 97 215 105 l 227 97 q 351 37 283 63 q 491 1 419 11 q 515 -1 502 0 q 536 -1 527 -1 q 550 -1 544 -1 q 566 0 557 -1 q 599 4 579 1 q 602 5 601 4 q 605 5 603 5 q 619 9 612 6 q 632 14 626 11 m 115 158 l 117 155 l 117 159 l 115 158 m 778 140 q 774 134 776 137 q 769 130 772 132 l 778 140 m 317 653 q 316 651 316 653 q 317 653 316 653 z "},"E":{"ha":872,"x_min":-2,"x_max":1062,"o":"m 1053 383 q 1061 365 1060 376 q 1057 342 1062 354 q 1043 318 1053 331 q 1021 295 1034 306 l 1022 296 q 1010 287 1013 289 q 1003 283 1007 285 q 999 280 1001 281 q 992 276 996 278 l 993 276 q 985 272 990 274 q 976 265 981 269 l 976 265 q 958 253 969 260 q 932 238 947 247 l 933 238 q 860 193 904 219 q 744 130 815 167 q 667 92 710 112 q 576 51 625 72 q 566 47 569 48 q 561 45 564 46 q 556 42 558 44 q 513 26 535 34 q 468 9 491 17 q 408 -11 439 -1 q 337 -31 376 -22 q 251 -44 297 -41 q 229 -43 241 -44 q 201 -39 217 -42 q 169 -26 186 -35 q 143 1 153 -17 q 135 38 135 16 q 141 74 135 57 q 153 99 147 87 q 169 124 160 112 q 204 160 185 142 q 242 193 222 177 q 197 199 218 195 q 156 209 176 203 q 107 229 131 217 q 63 258 83 242 q 28 299 44 274 q 6 350 13 324 q 0 377 1 364 q -2 404 -2 390 q 0 436 -2 420 q 5 466 1 452 q 24 528 11 494 q 53 594 36 561 q 97 667 73 630 q 153 744 122 705 q 228 827 186 784 q 326 914 269 869 q 441 990 382 958 q 560 1036 500 1023 q 590 1041 574 1040 q 621 1042 606 1042 q 680 1040 651 1042 q 711 1033 695 1038 q 741 1022 727 1029 q 770 1000 757 1013 q 792 970 784 986 q 803 938 800 954 q 805 908 806 922 q 797 856 805 882 q 783 814 791 833 q 768 776 776 794 q 736 713 752 742 q 706 659 719 683 q 669 597 687 626 q 640 547 652 567 q 634 538 636 542 q 628 529 631 533 q 622 517 624 523 q 609 497 614 506 q 601 484 603 488 q 597 477 599 481 q 594 472 595 474 l 594 472 q 588 461 592 465 q 570 439 580 449 q 549 423 560 429 q 529 415 539 417 q 511 418 519 414 q 493 456 493 428 q 497 482 493 467 q 510 510 501 497 q 519 526 513 517 q 535 551 524 535 q 543 564 539 557 q 553 578 547 570 q 575 610 563 592 q 603 653 587 629 q 605 656 604 655 q 606 659 605 658 q 634 703 618 678 q 665 752 650 728 q 681 783 673 767 q 699 817 690 799 l 699 817 q 713 852 706 833 q 725 894 720 872 l 725 893 q 725 895 725 894 q 726 897 726 896 q 728 913 728 908 q 727 920 728 915 q 724 933 726 925 q 712 950 722 944 l 711 950 q 670 965 694 960 q 642 968 656 967 q 613 968 627 969 q 555 960 584 968 q 494 938 526 952 l 494 938 q 432 902 465 924 q 367 859 398 881 q 265 767 312 815 q 187 677 219 719 q 131 594 154 635 q 93 515 108 553 q 76 460 82 486 q 70 411 70 433 q 70 401 70 406 q 72 390 70 396 q 86 347 75 365 q 113 316 98 328 q 148 297 128 304 q 189 285 168 289 q 236 277 213 279 q 284 275 260 275 q 340 277 310 275 q 406 283 369 278 l 415 283 l 419 284 l 419 284 q 421 285 419 284 q 429 287 424 286 q 438 290 433 288 q 452 294 442 290 q 456 295 453 295 q 461 297 459 296 q 487 303 474 300 q 513 310 501 307 l 529 312 q 533 312 533 312 q 535 313 533 312 l 534 313 q 539 313 535 313 q 544 314 542 313 l 546 315 q 566 315 555 317 q 586 307 576 313 q 601 293 595 301 q 607 274 607 284 q 598 250 607 262 q 569 226 590 238 l 559 225 l 556 224 l 560 225 q 557 224 559 224 q 553 223 555 224 l 553 223 q 546 221 547 221 q 486 209 519 215 q 422 199 452 203 q 414 198 416 198 q 411 198 413 198 q 408 197 409 197 q 374 184 393 192 q 344 169 356 176 q 276 127 306 150 q 226 82 246 105 q 212 62 218 73 q 203 41 206 51 q 205 33 203 35 q 209 30 206 31 q 215 28 211 29 l 214 28 q 245 24 226 24 q 255 25 249 24 q 267 26 262 25 q 301 31 285 27 q 332 38 317 34 q 377 51 351 43 q 426 69 402 59 q 428 69 427 69 q 432 71 430 69 q 434 72 433 71 q 438 73 435 72 q 484 91 462 83 q 528 109 507 99 q 671 178 602 140 q 773 235 733 210 q 840 277 813 259 l 840 276 q 874 300 860 290 q 899 318 888 310 q 918 333 910 326 q 935 346 927 340 l 952 358 l 951 358 q 958 363 955 360 q 965 369 962 366 q 1015 392 990 387 q 1053 382 1040 397 l 1053 383 m 432 71 l 434 72 q 432 71 433 71 z "},"F":{"ha":978,"x_min":-244,"x_max":1581,"o":"m 1575 969 q 1568 932 1581 949 l 1506 901 l 1508 901 q 1501 900 1506 901 q 1491 899 1497 900 q 1477 898 1485 899 q 1460 895 1470 897 q 1415 890 1442 893 q 1347 884 1387 887 q 1253 879 1307 881 q 1128 877 1199 877 q 1089 877 1109 877 q 1047 878 1069 877 q 1020 878 1035 878 q 991 878 1006 878 q 961 878 976 878 q 935 878 947 878 q 751 880 851 878 q 532 890 651 882 q 485 892 508 891 q 444 895 463 894 q 431 896 438 896 q 418 897 424 897 q 414 898 416 897 q 410 898 413 898 q 392 900 401 899 q 374 901 383 900 l 349 903 q 346 903 347 903 q 344 903 345 903 q 310 906 326 905 q 278 906 294 906 l 278 897 q 279 889 278 893 q 279 882 279 885 q 277 826 279 856 q 266 713 274 778 q 239 565 258 648 l 240 565 q 199 413 222 485 q 157 284 176 340 q 148 259 152 270 q 140 237 144 247 q 186 241 161 240 q 237 243 210 243 q 281 242 259 243 q 326 238 303 241 q 416 228 369 232 q 515 225 463 225 q 537 225 526 225 q 560 226 548 225 q 737 244 658 229 q 870 276 816 260 q 958 308 920 292 q 1018 335 996 324 q 1053 355 1039 347 q 1073 369 1067 363 q 1075 370 1074 369 q 1076 372 1075 371 q 1080 374 1078 373 q 1084 377 1082 376 q 1086 379 1085 378 q 1089 381 1088 379 q 1092 383 1090 382 q 1100 388 1094 385 l 1099 388 q 1133 395 1115 399 q 1163 376 1151 392 q 1169 339 1174 360 q 1144 306 1163 319 l 1139 305 l 1138 305 l 1128 300 q 1124 298 1127 299 q 1115 294 1121 297 q 1109 291 1113 292 q 1102 288 1106 289 l 1103 288 q 1090 283 1097 285 q 1076 276 1083 280 q 1011 249 1051 265 q 912 216 971 233 q 845 199 883 208 q 762 183 807 190 q 667 169 717 175 q 563 161 617 163 q 534 160 551 160 q 508 160 517 160 q 427 162 468 160 q 351 167 385 164 q 334 169 344 168 q 317 171 324 169 q 313 171 315 171 q 308 172 310 172 q 286 174 297 173 q 266 176 276 175 q 228 176 247 176 q 191 173 209 175 q 149 167 169 170 q 112 161 130 165 q 103 141 108 150 q 95 123 99 133 l 96 124 q 91 110 94 119 q 88 103 88 102 q 61 40 72 64 q 42 -1 50 15 l 43 0 q 39 -10 41 -6 q 35 -17 36 -14 l 35 -16 q 33 -23 34 -19 q 30 -29 31 -26 q -1 -61 18 -51 q -39 -60 -21 -70 q -55 -44 -49 -55 q -61 -19 -61 -33 q -53 13 -61 -5 l -47 26 q -43 31 -45 28 q -40 36 -42 33 l -41 35 q -26 62 -35 45 q -3 108 -17 79 q -2 111 -3 110 q -1 113 -2 112 q -1 114 -1 113 q 1 118 1 118 q 2 119 1 119 q 4 123 3 120 q 9 134 5 126 q -9 127 -1 131 q -26 121 -18 124 q -76 100 -52 110 q -115 82 -100 90 l -125 78 l -122 79 q -127 76 -124 77 q -156 60 -144 67 q -171 53 -168 54 q -207 50 -189 44 q -234 72 -225 56 q -237 108 -244 90 q -212 135 -230 126 q -207 138 -210 137 q -201 140 -205 139 q -199 141 -200 141 q -194 143 -198 142 q -185 147 -192 143 l -186 147 q -153 159 -174 151 q -95 180 -131 167 l -81 184 q -24 201 -57 192 q 49 221 9 211 q 53 230 51 226 q 56 240 54 234 q 62 255 59 247 q 68 270 65 263 q 92 334 79 299 q 119 409 106 369 q 147 492 133 449 q 172 581 160 535 q 189 662 181 622 q 201 739 196 702 q 208 807 206 776 q 210 863 210 839 q 208 907 210 886 q 206 912 206 909 q 206 918 206 915 q 206 926 206 921 q 206 937 206 931 l 206 940 q 207 948 206 943 q 212 958 208 953 q 222 967 217 964 q 229 972 226 971 q 238 975 235 974 q 246 977 242 976 q 279 981 262 980 q 312 982 296 981 l 323 982 q 387 981 355 982 q 457 978 419 981 q 540 973 495 976 q 643 965 585 970 q 770 956 715 959 q 870 950 825 952 q 953 947 915 948 q 1034 947 992 947 l 1054 947 q 1185 949 1128 947 q 1286 955 1242 951 q 1360 964 1329 959 q 1412 972 1390 968 q 1458 982 1441 978 q 1482 988 1474 985 q 1494 991 1488 990 q 1506 994 1500 993 q 1549 993 1529 1000 q 1575 968 1569 986 l 1575 969 m 1140 306 q 1139 305 1140 306 l 1140 306 z "},"G":{"ha":1205,"x_min":88,"x_max":1394,"o":"m 1388 379 q 1394 361 1394 372 q 1388 336 1394 349 q 1372 309 1383 323 q 1345 281 1360 294 l 1346 282 q 1344 281 1345 281 q 1343 280 1344 281 q 1335 273 1340 276 q 1326 265 1331 269 q 1306 249 1319 260 q 1268 218 1293 239 q 1201 163 1242 197 q 1097 76 1160 129 q 944 -53 1033 22 q 733 -233 855 -129 q 728 -242 732 -236 q 726 -244 727 -243 q 724 -247 725 -246 l 724 -247 q 709 -275 716 -261 q 657 -353 683 -320 q 624 -390 642 -373 q 584 -422 606 -408 q 556 -434 571 -429 q 526 -439 542 -439 q 507 -438 516 -439 q 491 -433 499 -437 q 489 -433 490 -433 q 487 -431 488 -432 l 484 -430 q 480 -427 483 -429 q 475 -424 477 -426 q 472 -422 473 -422 q 474 -424 472 -422 q 465 -415 468 -421 q 460 -398 462 -409 q 462 -387 460 -393 q 468 -374 465 -381 q 477 -363 472 -368 q 488 -355 482 -358 l 487 -355 q 517 -329 501 -342 q 549 -301 533 -315 q 591 -264 571 -282 q 632 -228 612 -246 q 638 -223 635 -226 q 644 -218 640 -221 l 673 -193 q 688 -162 681 -177 q 703 -130 695 -147 q 753 -5 727 -72 q 801 133 778 63 q 802 135 801 135 q 803 140 802 135 q 772 122 788 131 q 741 105 757 114 q 564 22 642 51 q 418 -18 485 -7 l 419 -18 q 338 -25 382 -25 q 311 -24 324 -25 q 285 -22 297 -24 q 221 -1 254 -16 q 161 39 188 13 q 117 100 135 64 q 92 178 100 136 l 92 177 q 89 209 90 192 q 88 245 88 227 q 91 303 88 274 q 99 361 94 331 q 128 468 109 412 q 178 588 148 524 q 251 718 208 651 q 357 855 294 785 q 494 978 422 926 q 644 1055 567 1030 q 772 1076 709 1076 q 787 1075 779 1076 q 802 1074 794 1075 q 844 1065 823 1072 q 885 1045 865 1059 q 918 1007 906 1030 q 932 963 931 985 q 932 925 933 944 q 925 889 930 906 q 916 858 921 873 q 905 828 910 842 q 881 777 893 801 q 856 732 868 753 q 804 651 829 688 q 757 585 778 614 q 677 482 713 525 q 618 411 642 439 q 583 370 598 386 q 561 346 569 353 q 533 320 548 331 q 505 305 518 310 q 480 299 491 299 q 462 306 468 299 l 463 306 q 454 324 455 313 q 457 349 453 335 q 470 377 461 363 q 492 407 480 392 q 499 414 495 410 q 506 422 502 417 q 517 434 511 427 q 532 450 524 441 l 542 459 q 543 461 543 460 q 545 463 544 462 q 585 508 561 481 q 642 575 610 535 q 686 630 663 600 q 737 697 710 660 q 764 736 750 716 q 792 781 778 757 q 817 827 805 803 q 842 883 830 852 q 851 911 847 897 q 856 938 855 924 q 855 961 857 950 q 844 980 852 972 l 845 980 q 824 993 838 988 q 796 999 811 997 q 781 1001 788 1001 q 766 1001 773 1001 q 745 1000 757 1001 q 722 998 733 999 q 640 975 684 990 q 561 938 597 959 q 485 882 524 915 q 409 809 447 849 q 296 660 342 735 q 221 519 250 586 q 176 392 192 452 q 158 277 161 331 q 157 263 157 269 q 157 249 157 257 q 166 172 157 207 q 193 112 175 137 q 216 88 204 98 q 242 70 228 78 l 241 71 q 269 60 255 64 q 299 55 283 57 q 314 53 307 53 q 328 53 321 53 q 372 57 350 53 q 419 65 394 60 l 418 64 q 476 81 444 70 q 544 106 507 91 q 619 139 582 122 q 696 178 656 157 q 739 200 717 189 q 784 226 760 212 q 786 228 785 226 q 789 230 788 229 q 795 234 792 231 q 803 239 799 236 l 804 239 q 819 248 812 244 q 835 257 827 252 q 840 260 835 258 l 839 260 q 841 261 840 260 q 843 262 842 262 q 844 263 843 263 l 853 267 q 854 268 853 268 q 856 269 855 269 q 898 280 880 276 q 924 277 915 283 q 932 250 933 270 q 917 189 931 229 q 876 83 903 148 q 806 -76 849 19 q 970 68 902 8 q 1084 169 1038 128 q 1159 238 1130 211 q 1208 283 1188 265 q 1238 309 1224 297 q 1267 334 1252 322 q 1276 342 1271 338 q 1285 351 1281 347 q 1315 372 1300 363 q 1345 384 1331 381 q 1370 387 1359 388 q 1388 378 1381 385 l 1388 379 z "},"H":{"ha":1080,"x_min":-71,"x_max":1267,"o":"m 1261 374 q 1266 356 1267 367 q 1259 332 1265 344 q 1242 307 1253 319 q 1215 283 1231 294 l 1204 277 l 1205 277 q 1190 268 1200 274 q 1158 249 1180 262 q 1099 213 1136 236 q 1096 211 1097 212 q 1093 210 1095 211 q 1090 208 1091 208 q 1088 208 1089 208 q 1047 184 1071 197 q 994 155 1023 170 q 934 123 966 140 q 867 90 901 106 q 819 69 844 79 q 766 48 794 59 q 710 25 739 38 q 654 -1 682 13 q 605 -27 629 -15 q 561 -46 581 -39 q 527 -54 541 -53 q 508 -45 513 -55 q 509 -12 503 -35 q 535 49 515 10 q 537 56 536 53 q 540 63 538 58 q 562 127 551 94 q 585 194 574 160 q 590 205 588 199 q 594 217 592 211 q 618 286 606 251 q 642 359 630 322 q 651 386 646 369 q 663 419 657 403 q 598 369 632 394 q 526 317 564 343 l 526 318 q 437 260 484 289 q 341 205 390 232 l 341 206 q 271 167 308 187 q 194 128 234 148 q 179 120 186 124 q 164 113 172 116 l 165 113 q 128 94 147 103 q 90 75 110 85 q 90 74 90 74 q 90 73 90 74 l 90 74 q 84 60 87 67 q 78 46 81 53 q 76 42 76 44 q 74 38 76 40 q 72 32 74 36 q 71 30 72 31 q 69 27 70 28 q 68 26 69 26 q 67 24 68 25 q 56 4 61 14 q 40 -15 50 -6 q 31 -23 36 -19 q 17 -29 26 -26 q 2 -30 10 -31 q -12 -27 -6 -28 l -16 -25 q -30 -20 -24 -23 q -41 -13 -37 -17 q -51 -5 -46 -10 q -60 6 -56 -1 l -60 5 q -65 42 -71 23 q -55 62 -60 54 q -42 76 -49 70 q -7 101 -26 90 q 30 122 11 112 q 31 123 30 123 q 69 249 51 186 q 100 365 86 312 q 145 562 126 469 q 178 719 165 654 q 194 799 187 761 q 208 867 202 838 q 220 927 215 899 q 229 970 226 956 q 231 978 231 975 q 233 985 232 982 q 234 991 233 989 q 234 997 234 993 q 244 1031 238 1015 q 260 1057 251 1046 q 278 1074 269 1068 q 297 1077 288 1079 q 321 1058 313 1074 q 330 1019 330 1042 q 329 999 330 1009 q 325 978 328 988 l 326 978 q 323 968 324 974 q 320 956 322 963 q 318 947 319 952 q 315 936 317 942 l 316 937 q 310 914 314 927 q 303 883 307 901 l 303 883 q 292 835 298 863 q 277 772 285 807 l 278 772 q 275 763 276 767 q 273 753 274 758 q 272 748 272 751 q 269 738 271 744 l 269 739 q 255 676 263 712 q 237 600 247 641 q 216 516 227 560 q 194 426 206 472 q 163 305 180 370 q 122 168 145 240 l 125 169 q 168 191 147 180 q 210 213 190 202 q 280 248 247 231 q 343 283 312 265 q 453 350 403 317 q 544 415 503 383 q 640 492 599 456 q 712 563 681 528 q 714 570 713 566 q 716 577 715 574 q 718 582 717 580 q 720 588 719 584 l 720 587 q 722 591 721 589 q 723 596 722 594 l 735 634 l 735 633 q 738 641 737 637 q 740 648 739 644 q 781 764 759 703 q 826 885 803 826 q 853 953 838 917 q 883 1022 868 989 q 891 1040 887 1031 q 900 1058 895 1049 q 905 1065 901 1060 q 913 1076 908 1069 l 911 1075 q 917 1083 912 1078 q 917 1084 917 1083 q 918 1085 917 1084 l 915 1081 q 922 1090 916 1084 q 928 1097 924 1093 q 940 1104 933 1101 l 941 1104 l 946 1105 l 942 1105 q 951 1108 946 1106 q 960 1109 956 1109 q 965 1109 962 1109 q 975 1107 969 1108 l 974 1108 q 982 1105 979 1106 q 988 1102 985 1103 q 990 1100 989 1101 q 992 1099 992 1099 q 999 1092 997 1094 q 1003 1087 1001 1090 q 1005 1082 1002 1087 q 1008 1075 1007 1077 q 1010 1071 1009 1074 q 1012 1065 1010 1069 q 1012 1064 1012 1064 q 1013 1062 1013 1063 q 1013 1058 1013 1060 q 1013 1054 1013 1056 l 1013 1042 q 1013 1031 1013 1036 q 1012 1022 1013 1026 l 1012 1019 q 1011 1005 1011 1013 q 1009 991 1010 998 q 1008 986 1008 989 q 1008 982 1008 985 q 1008 978 1008 979 q 986 880 999 926 q 959 798 973 835 q 928 732 944 763 q 894 674 911 701 q 835 591 865 628 q 771 518 805 555 q 769 513 769 515 q 767 509 768 510 q 765 502 767 507 q 763 496 764 498 q 735 417 749 454 q 709 342 722 379 q 683 265 696 304 q 654 182 669 226 q 647 161 651 172 q 640 140 643 150 l 640 140 q 635 127 638 133 q 631 114 633 120 q 627 103 629 109 q 624 94 626 98 q 618 76 621 85 q 613 60 616 68 q 703 97 660 78 q 785 134 747 116 q 912 200 858 169 q 999 251 966 230 q 1057 287 1031 271 q 1099 315 1083 303 q 1116 326 1108 321 q 1131 338 1123 332 q 1138 343 1134 340 q 1147 349 1142 346 l 1146 348 q 1153 353 1149 351 q 1162 359 1158 356 q 1192 376 1176 369 q 1220 385 1207 383 q 1244 385 1234 388 q 1261 374 1255 383 m -3 47 q -3 47 -3 47 l -19 25 q -19 24 -19 24 l -3 47 m 941 1104 l 942 1104 l 941 1104 z "},"I":{"ha":619,"x_min":17,"x_max":801,"o":"m 797 373 q 801 356 801 366 q 798 337 801 347 q 787 317 794 327 q 771 301 780 308 q 769 299 769 300 q 762 294 767 298 q 757 292 756 291 q 756 291 756 292 q 740 283 751 288 q 709 266 729 278 q 681 249 697 259 q 644 226 665 239 q 617 210 631 219 q 587 192 603 201 q 575 185 581 188 q 563 179 569 183 q 463 121 521 154 q 333 52 405 88 l 325 48 q 322 46 324 47 q 319 44 320 46 q 277 24 299 35 q 233 3 256 13 q 231 2 232 2 q 228 1 230 1 q 226 0 227 0 q 224 -1 225 0 q 195 -13 208 -8 q 173 -22 183 -18 q 138 -32 157 -28 q 97 -37 119 -37 q 80 -36 88 -37 q 63 -30 71 -35 l 65 -31 q 47 -20 55 -28 q 33 -4 39 -13 q 21 24 24 10 q 18 49 19 38 q 19 92 17 72 q 26 133 22 113 q 48 212 35 173 q 76 293 61 251 q 103 363 91 333 q 126 419 116 394 q 146 465 137 444 q 165 506 156 485 q 170 518 167 511 q 176 532 173 525 q 182 544 179 538 q 187 556 184 550 q 213 615 199 583 q 245 694 227 648 q 282 786 261 734 q 328 908 303 838 q 281 868 303 885 q 238 836 258 850 q 181 798 205 813 q 143 775 158 783 q 118 761 130 767 q 103 753 107 754 q 86 747 96 749 q 69 744 77 744 q 42 751 54 744 q 25 770 31 758 q 24 788 22 778 q 30 806 25 797 q 44 823 35 815 q 64 835 53 831 l 66 837 q 74 840 69 838 q 83 845 78 842 l 88 847 q 90 848 89 848 q 92 849 91 849 q 121 863 104 855 q 160 885 138 872 l 159 885 q 223 927 185 901 q 306 994 261 953 q 326 1014 315 1003 q 348 1039 337 1026 q 370 1066 359 1052 q 390 1094 381 1080 l 391 1096 q 392 1099 391 1097 q 394 1103 392 1101 q 395 1107 394 1105 q 397 1111 396 1110 l 406 1119 l 465 1121 l 473 1097 q 473 1095 473 1096 q 472 1093 472 1094 l 472 1087 l 466 1076 q 464 1073 464 1074 l 462 1069 q 460 1066 461 1067 q 459 1064 460 1065 l 456 1059 l 456 1061 q 452 1049 454 1055 q 448 1037 450 1042 l 448 1038 q 447 1034 447 1036 q 445 1031 446 1033 q 444 1026 444 1028 q 443 1022 444 1024 q 426 974 435 999 q 408 922 417 949 q 348 770 374 835 q 303 654 323 704 q 270 566 284 603 q 244 497 256 528 q 222 439 232 466 q 201 383 212 412 q 194 363 198 373 q 186 342 190 353 q 157 262 173 307 q 118 160 140 217 l 118 161 q 107 125 113 143 q 99 87 102 107 q 95 67 97 76 q 94 52 94 58 q 95 36 94 43 l 93 36 q 99 35 94 35 q 106 35 103 35 q 131 40 119 38 q 149 44 142 42 l 149 44 q 228 76 188 58 q 309 117 268 95 q 417 177 368 148 q 501 229 465 207 q 507 233 503 231 q 513 236 510 235 l 523 242 l 522 242 q 588 285 562 267 q 633 315 615 302 q 660 335 649 327 q 680 349 672 343 q 684 352 682 351 q 688 355 685 353 q 703 366 696 360 q 720 378 711 372 q 740 387 729 383 q 760 391 751 391 q 782 386 772 391 q 797 373 792 382 l 797 373 z "},"J":{"ha":537,"x_min":-398,"x_max":723,"o":"m 718 374 q 722 356 723 367 q 716 334 722 345 q 699 310 710 322 q 674 290 689 299 l 675 290 q 654 278 665 283 q 629 263 646 273 q 578 231 613 252 l 566 223 q 562 220 565 222 q 556 217 560 219 l 558 217 q 550 212 554 215 q 542 207 546 210 q 474 163 513 188 q 386 103 435 138 q 224 -11 317 56 q 12 -175 132 -78 l 12 -174 q -53 -230 -21 -201 q -122 -292 -86 -259 l -122 -292 l -126 -297 q -142 -311 -135 -304 q -158 -327 -149 -318 q -199 -393 -177 -358 q -247 -467 -221 -428 q -287 -525 -267 -497 q -324 -577 -306 -553 l -324 -576 q -326 -580 -325 -578 q -329 -583 -328 -582 l -342 -597 l -351 -597 q -360 -596 -352 -597 q -380 -596 -368 -596 q -390 -581 -387 -585 q -393 -574 -392 -577 q -394 -570 -394 -572 q -398 -562 -395 -567 l -397 -553 l -397 -557 q -397 -553 -397 -556 q -397 -549 -397 -550 l -397 -544 q -394 -524 -396 -533 q -389 -507 -392 -515 q -376 -478 -383 -491 q -361 -453 -369 -465 q -309 -385 -335 -415 q -256 -326 -283 -354 q -255 -325 -255 -326 q -253 -322 -254 -324 q -252 -321 -252 -322 q -237 -295 -244 -309 q -222 -270 -230 -282 q -152 -149 -181 -201 q -99 -53 -123 -97 q -94 -44 -97 -49 q -89 -35 -92 -40 l -90 -37 q -77 -13 -83 -25 q -65 11 -71 -1 l -65 10 q -33 70 -49 41 q -1 130 -17 99 q 48 228 20 172 q 105 351 75 284 q 139 432 120 387 q 178 529 158 476 q 220 640 199 581 q 263 760 242 699 q 303 883 283 822 q 338 999 322 944 q 261 945 299 969 q 190 903 224 922 q 123 872 155 885 q 64 847 92 858 q -40 814 4 825 q -115 796 -85 802 q -158 788 -140 790 q -186 784 -176 785 q -187 784 -187 784 q -188 783 -187 783 q -222 784 -206 781 q -250 792 -237 786 q -269 806 -262 798 q -276 825 -276 815 q -254 858 -276 844 q -201 876 -232 872 q -196 877 -198 877 q -190 876 -194 876 q -184 877 -185 876 q -175 878 -180 878 q -163 880 -170 878 l -164 880 q -159 881 -161 881 q -153 881 -156 881 q -101 890 -133 884 q -24 908 -69 896 l -24 908 q 31 925 1 915 q 92 948 60 934 q 164 982 126 962 q 248 1031 202 1002 q 293 1063 269 1045 q 337 1096 318 1081 q 346 1104 340 1099 q 355 1112 351 1108 q 362 1118 360 1116 q 369 1125 365 1120 q 393 1148 378 1147 q 422 1136 408 1148 l 421 1133 q 428 1130 424 1132 q 438 1126 433 1128 q 448 1119 442 1124 q 460 1110 453 1115 l 438 1088 l 438 1087 l 435 1078 q 433 1074 433 1076 q 432 1069 433 1072 q 431 1065 432 1067 q 429 1056 430 1060 q 426 1047 428 1052 q 383 902 407 979 q 329 738 359 824 q 275 591 301 658 q 226 466 249 524 q 181 358 202 408 q 142 267 160 309 q 76 123 105 184 q 24 10 48 61 q -11 -63 6 -28 q -49 -137 -29 -99 q -36 -126 -43 -131 q -23 -115 -30 -120 q 152 24 74 -35 q 290 127 231 83 q 293 128 292 128 q 295 130 294 129 q 300 133 297 131 q 304 137 303 135 q 361 178 335 159 q 410 214 388 198 q 427 226 419 220 q 444 238 436 233 q 481 265 465 253 q 505 283 494 275 q 526 297 516 290 q 532 302 529 300 q 539 307 535 304 q 561 324 551 316 q 592 346 578 336 q 624 367 606 356 q 656 383 640 377 q 687 388 673 388 q 705 385 697 388 q 719 374 714 382 l 718 374 m 439 1091 q 439 1090 439 1090 q 438 1090 438 1090 q 439 1091 439 1090 z "},"K":{"ha":1219,"x_min":17,"x_max":1405,"o":"m 1399 383 q 1405 364 1405 375 q 1400 340 1405 353 q 1385 314 1394 327 q 1362 288 1375 300 q 1356 283 1358 285 q 1350 278 1353 281 q 1347 275 1349 276 q 1343 272 1344 274 q 1341 270 1342 272 q 1338 269 1339 269 q 1337 268 1340 269 q 1333 265 1335 267 q 1331 263 1332 265 q 1328 261 1329 262 q 1326 259 1327 260 l 1323 257 q 1322 256 1322 256 q 1321 256 1322 256 q 1314 250 1317 253 q 1305 243 1310 247 q 1284 227 1296 236 q 1258 206 1272 217 l 1251 202 q 1250 201 1250 201 q 1248 199 1249 200 q 1214 175 1233 188 q 1174 147 1195 162 q 1108 103 1144 126 q 1035 60 1071 81 q 989 38 1013 49 q 935 16 965 26 q 875 -2 906 6 q 806 -11 843 -10 q 728 -2 769 -12 q 650 34 687 8 q 590 101 615 60 q 551 188 564 142 q 540 241 544 214 q 535 292 536 267 q 534 321 534 304 q 536 349 535 338 q 538 358 536 352 q 522 344 530 351 q 506 330 514 338 q 434 264 473 299 q 349 188 394 228 q 345 184 347 186 q 341 181 342 181 q 340 180 340 180 q 338 178 339 179 q 332 173 335 176 q 326 168 329 171 q 288 135 308 152 q 247 100 269 118 q 190 52 222 78 q 122 0 158 26 q 117 -3 119 -3 q 114 -6 116 -5 q 109 -8 113 -7 q 103 -12 108 -9 l 102 -12 q 98 -15 100 -15 q 97 -15 97 -15 q 85 -21 92 -19 q 72 -24 79 -23 q 57 -23 65 -24 q 39 -18 48 -22 q 28 -8 31 -12 q 23 1 26 -4 l 23 1 l 20 6 q 18 16 19 13 q 18 24 18 19 q 18 26 18 25 q 17 28 17 26 q 18 42 17 37 q 19 53 18 48 q 24 83 22 69 q 31 113 27 98 q 32 117 31 114 q 33 122 32 120 q 34 123 33 123 q 34 124 34 124 q 33 123 34 124 q 33 126 33 124 q 35 131 33 127 q 55 207 44 168 q 76 278 66 245 q 115 406 96 346 q 152 520 134 466 q 211 697 185 618 q 260 838 238 776 l 260 837 q 263 847 261 844 q 265 853 264 850 q 267 859 267 856 q 269 864 267 861 q 308 977 291 928 q 336 1057 325 1026 l 336 1056 q 343 1076 340 1067 q 349 1093 347 1085 q 355 1108 352 1101 q 358 1120 357 1115 q 360 1126 360 1124 q 362 1129 361 1128 q 377 1160 368 1146 q 396 1184 386 1174 q 417 1198 406 1193 q 437 1199 427 1202 q 454 1182 449 1194 q 460 1153 460 1170 q 457 1127 460 1141 q 449 1098 455 1113 q 447 1092 448 1095 q 444 1085 445 1088 l 444 1085 q 441 1076 443 1081 q 436 1066 438 1072 q 428 1045 433 1057 q 416 1016 423 1033 q 401 975 410 999 q 381 921 392 952 q 374 903 377 913 q 369 892 372 898 q 365 881 367 886 q 362 873 363 877 q 359 865 360 869 l 360 866 q 313 741 340 812 q 253 573 287 669 q 210 451 233 516 q 163 311 188 387 l 163 312 q 160 305 161 308 q 158 297 159 301 l 153 282 q 133 216 144 250 q 112 147 122 183 l 112 144 q 111 141 111 143 q 110 138 110 138 q 109 133 110 137 q 99 95 103 113 q 92 63 94 77 q 157 112 124 85 q 220 165 189 139 q 272 210 247 188 q 321 253 297 232 q 327 258 323 254 q 335 266 333 264 l 335 265 q 424 345 382 307 q 501 417 465 384 l 501 417 q 506 422 503 419 q 512 427 509 424 q 642 549 586 497 q 742 645 697 601 q 755 657 749 651 q 767 668 761 663 q 781 682 774 675 q 795 696 788 689 l 795 695 q 857 755 826 725 q 924 819 888 785 q 930 823 929 822 q 931 824 931 823 q 938 830 935 828 l 938 830 q 986 874 960 851 q 1042 921 1011 896 l 1066 940 l 1065 940 q 1075 947 1069 943 q 1088 955 1080 950 l 1087 955 q 1093 958 1090 956 q 1104 960 1097 960 l 1106 960 q 1118 960 1111 961 q 1134 953 1124 959 q 1145 938 1141 947 q 1151 925 1150 930 l 1151 918 q 1149 907 1151 913 q 1146 899 1147 902 q 1144 895 1144 895 l 1142 891 l 1139 885 q 1133 878 1138 883 q 1123 865 1128 872 q 1122 864 1123 865 q 1085 820 1106 843 q 1044 774 1064 797 q 950 677 994 721 q 869 597 907 634 l 851 578 q 837 564 844 571 q 822 549 830 556 l 822 550 q 763 491 790 519 q 708 440 735 464 q 676 410 692 424 q 644 383 660 397 q 626 368 636 376 q 607 355 617 361 q 606 352 606 353 q 606 347 606 350 q 603 326 604 336 q 602 307 602 316 q 604 274 602 292 q 610 234 606 254 q 621 195 614 215 q 648 138 632 164 q 685 94 664 111 q 731 70 706 78 q 780 61 756 63 q 829 64 805 60 q 874 73 853 67 q 915 87 893 78 q 953 104 936 96 q 1019 139 988 120 q 1074 174 1050 158 q 1117 205 1097 190 q 1154 233 1138 219 q 1203 271 1183 255 q 1238 300 1223 288 l 1244 306 q 1249 310 1246 308 q 1253 314 1251 313 q 1257 318 1256 316 q 1261 322 1259 319 l 1264 324 q 1281 340 1272 332 q 1300 357 1290 347 q 1329 377 1314 369 q 1357 389 1344 385 q 1382 391 1371 392 q 1399 383 1392 390 z "},"L":{"ha":1221,"x_min":-47,"x_max":1410,"o":"m 1322 372 q 1371 393 1347 393 q 1401 380 1389 393 l 1401 381 q 1409 364 1407 374 q 1408 343 1410 354 q 1399 322 1406 333 q 1383 303 1392 311 l 1383 303 q 1367 292 1374 294 q 1357 283 1363 288 q 1338 269 1351 278 q 1331 263 1335 266 q 1322 256 1326 259 q 1313 248 1317 252 q 1302 240 1308 244 q 1292 233 1297 237 q 1282 224 1288 228 q 1244 196 1266 213 q 1199 161 1223 179 q 1145 124 1174 144 q 1083 86 1117 105 q 1004 47 1047 66 q 908 15 961 27 q 858 6 884 9 q 801 3 831 3 l 791 3 q 785 3 788 3 q 780 3 783 3 q 743 7 761 4 q 708 13 726 9 q 676 19 692 16 q 642 24 660 22 q 582 30 613 28 q 522 32 551 32 q 324 17 432 32 q 251 8 283 13 q 193 -2 219 3 l 194 -1 q 189 -2 192 -2 q 183 -3 185 -3 q 175 -5 178 -4 q 168 -6 172 -5 q 159 -7 164 -6 q 148 -9 153 -8 q 106 -16 126 -12 q 65 -22 85 -19 q 57 -24 62 -23 q 47 -26 53 -24 q 35 -27 42 -27 q 24 -29 29 -28 l 20 -29 q 16 -30 19 -30 q 11 -31 13 -31 q 7 -32 10 -32 q 3 -32 5 -32 l -22 -33 q -23 -23 -22 -26 q -26 -17 -24 -20 l -26 -18 q -31 -10 -28 -15 q -36 0 -33 -6 q -42 10 -39 5 q -47 19 -44 15 l -33 34 l -34 33 q -31 39 -33 36 q -29 41 -31 39 q -25 49 -28 43 q -18 60 -22 54 q -12 72 -15 66 q 9 110 -1 90 q 29 151 19 129 q 51 203 39 173 q 75 269 63 233 q 101 344 88 305 q 127 424 115 384 q 152 511 140 467 q 175 596 164 555 q 195 674 186 637 q 212 741 204 710 q 236 847 225 797 q 254 933 247 897 q 256 940 256 937 q 257 947 256 943 q 273 1025 267 993 q 283 1076 280 1057 q 284 1081 284 1078 q 285 1085 285 1084 l 285 1084 q 288 1099 287 1094 q 290 1108 289 1104 q 298 1133 292 1122 q 312 1151 304 1144 q 330 1163 320 1159 q 348 1164 339 1166 q 364 1156 357 1162 q 376 1140 372 1149 q 383 1118 381 1130 q 382 1094 385 1107 q 379 1085 381 1091 q 376 1071 378 1078 q 375 1066 375 1069 q 374 1061 374 1063 q 370 1049 372 1056 q 366 1033 368 1042 q 359 1006 363 1022 q 349 969 355 990 q 328 886 341 935 q 299 769 316 837 l 299 770 q 298 765 299 767 q 297 760 297 763 q 293 751 293 751 q 293 750 293 751 q 251 597 275 683 q 193 403 228 511 q 130 222 160 300 q 74 87 100 144 q 69 77 72 82 q 65 68 67 72 q 62 61 63 65 q 59 55 60 58 q 72 57 65 57 q 77 58 74 58 q 82 59 80 58 l 81 58 q 147 73 115 66 q 217 88 178 81 q 312 101 254 94 q 437 111 370 108 l 468 111 q 614 102 553 111 q 722 81 674 92 q 766 74 744 76 q 810 72 788 72 q 900 83 853 72 q 972 109 938 93 q 1034 140 1007 124 q 1084 172 1060 156 q 1128 203 1108 188 q 1192 253 1166 232 q 1235 290 1217 275 l 1238 293 q 1258 312 1249 303 q 1273 327 1266 320 q 1281 334 1277 331 q 1288 340 1284 338 q 1305 356 1294 347 q 1322 372 1315 365 z "},"M":{"ha":1480,"x_min":-80,"x_max":1665,"o":"m 1656 386 q 1664 368 1663 379 q 1661 342 1665 356 q 1647 313 1656 328 q 1623 283 1637 297 q 1608 268 1617 276 q 1590 251 1599 260 l 1589 250 q 1587 248 1588 249 q 1585 245 1585 246 q 1563 224 1576 237 q 1526 192 1549 212 q 1519 185 1523 188 q 1511 178 1515 181 q 1507 174 1509 176 q 1503 171 1506 172 l 1504 172 q 1469 140 1488 158 q 1425 102 1449 122 q 1394 78 1411 90 q 1358 53 1376 67 q 1317 26 1338 40 q 1271 1 1295 13 q 1240 -11 1255 -6 q 1212 -20 1226 -17 q 1195 -23 1204 -22 q 1174 -24 1187 -24 q 1153 -23 1163 -24 q 1133 -18 1143 -22 l 1134 -18 q 1095 5 1113 -11 q 1066 40 1077 21 q 1049 77 1056 58 q 1039 116 1042 97 q 1033 165 1035 140 q 1031 220 1031 191 q 1032 250 1031 235 q 1033 281 1032 265 q 1041 371 1035 323 q 1053 463 1046 419 q 1060 514 1056 488 q 1069 567 1065 541 q 1072 585 1070 576 q 1074 603 1073 594 q 1077 622 1076 613 q 1080 640 1078 631 q 1006 535 1045 588 q 926 426 967 481 q 830 299 882 367 q 726 167 778 232 q 683 113 703 138 q 671 98 677 105 q 660 85 665 92 q 645 67 652 76 q 630 49 638 58 q 617 33 623 42 q 604 17 610 25 q 602 15 603 16 q 599 12 601 13 q 595 7 598 10 q 589 -1 592 3 q 588 -2 588 -1 q 587 -3 588 -2 q 584 -8 586 -5 q 579 -17 583 -11 q 524 -27 542 -29 q 501 -16 506 -25 q 500 8 496 -6 q 512 38 505 23 l 513 44 l 516 58 q 518 66 517 62 q 521 74 519 70 l 520 73 q 522 78 521 76 q 523 83 522 81 q 524 89 524 86 q 527 97 525 92 l 526 94 q 532 116 530 106 q 538 137 535 126 l 544 160 q 574 276 560 219 q 601 389 588 332 q 616 450 608 418 q 632 518 624 482 q 648 597 640 555 q 667 688 657 638 q 686 793 676 738 q 706 916 697 849 l 706 915 q 714 985 710 949 q 719 1058 717 1021 l 719 1079 q 715 1133 719 1105 l 713 1144 q 684 1120 698 1134 q 658 1093 670 1107 q 631 1062 644 1078 q 606 1028 618 1046 q 558 962 581 994 q 515 898 536 930 q 436 776 475 838 q 367 664 398 715 q 268 492 315 574 q 188 350 221 410 q 179 334 183 342 q 171 318 175 326 q 97 183 126 236 q 51 97 68 129 q 44 85 47 91 q 38 74 41 78 l 39 74 q 30 57 33 64 q 24 47 26 51 q 3 16 15 29 q -20 -7 -8 2 q -43 -18 -32 -15 q -63 -17 -54 -21 q -80 19 -80 -8 q -74 52 -80 34 q -59 90 -69 71 q -49 107 -55 98 q -34 133 -44 117 q -5 182 -24 151 q 41 262 13 214 q 45 269 43 265 q 49 276 47 273 l 58 292 l 61 298 q 70 313 65 306 q 78 329 74 321 q 153 456 110 383 q 255 624 197 529 q 290 683 271 651 q 331 749 310 715 q 374 818 351 783 q 418 886 396 853 q 470 963 442 924 q 527 1042 497 1002 q 530 1045 528 1044 q 532 1049 531 1047 l 533 1049 q 534 1051 533 1049 q 538 1056 535 1053 q 542 1061 540 1059 q 566 1093 553 1077 q 592 1125 579 1109 q 611 1145 601 1135 q 631 1166 622 1156 q 654 1187 642 1176 q 681 1206 666 1197 q 700 1214 690 1211 q 720 1217 710 1217 q 749 1209 736 1217 q 767 1190 761 1201 q 779 1160 776 1176 q 785 1130 783 1144 q 787 1083 787 1107 q 786 1057 787 1070 q 785 1031 786 1044 q 777 944 782 986 q 767 863 772 901 q 743 720 755 785 q 720 599 731 655 q 699 495 709 543 q 680 406 689 447 q 664 327 672 364 q 648 256 656 290 q 640 224 644 240 q 632 190 635 207 q 631 186 631 188 q 630 183 631 185 q 707 278 665 226 q 801 395 749 331 q 902 524 857 465 q 984 634 947 583 q 1019 682 1003 660 q 1050 727 1035 705 l 1049 727 q 1051 731 1051 728 q 1053 734 1052 733 q 1058 741 1056 738 q 1078 774 1068 758 q 1094 808 1088 790 l 1094 805 q 1095 809 1094 806 q 1097 813 1095 811 q 1099 817 1097 814 q 1108 827 1101 819 l 1165 783 l 1165 753 q 1162 731 1163 742 q 1160 710 1161 720 q 1153 666 1156 688 q 1147 622 1150 644 l 1140 583 q 1130 512 1135 549 q 1119 438 1124 474 q 1106 328 1111 380 q 1101 231 1101 276 q 1106 156 1101 192 l 1106 157 q 1116 105 1109 130 q 1135 65 1124 79 q 1158 52 1143 54 q 1176 52 1166 51 q 1193 53 1185 52 l 1192 53 q 1228 65 1210 57 q 1260 81 1247 72 q 1290 100 1276 90 q 1317 120 1303 110 q 1362 156 1342 138 q 1400 190 1383 174 q 1451 238 1431 219 q 1487 274 1472 258 l 1488 274 q 1488 275 1488 275 q 1489 276 1488 276 q 1491 278 1490 278 q 1511 300 1501 289 q 1533 322 1522 311 l 1532 322 q 1543 333 1538 327 q 1554 344 1549 338 l 1557 347 l 1556 347 q 1584 372 1569 361 q 1611 388 1598 382 q 1636 393 1625 393 q 1656 386 1648 393 l 1656 386 z "},"N":{"ha":1408,"x_min":32,"x_max":1599,"o":"m 1501 367 q 1502 367 1501 367 q 1554 393 1528 388 q 1592 385 1579 399 q 1599 367 1599 378 q 1593 343 1599 356 q 1578 317 1588 331 q 1554 292 1568 304 l 1551 290 q 1547 286 1549 288 q 1542 282 1545 284 q 1512 257 1532 274 q 1451 211 1492 241 q 1442 205 1447 208 q 1433 199 1438 202 q 1361 147 1404 177 q 1257 77 1318 116 q 1173 28 1220 55 q 1073 -19 1125 2 q 1011 -39 1044 -30 q 940 -49 977 -48 q 897 -48 918 -51 q 856 -37 876 -45 q 817 -15 835 -29 q 783 22 798 0 l 783 21 q 760 65 769 41 q 744 113 750 88 q 735 164 738 139 q 732 214 733 189 l 732 235 q 737 331 732 283 q 751 428 742 379 q 776 539 760 478 q 810 660 791 599 q 835 733 821 694 q 700 679 756 706 q 601 626 644 651 q 524 575 563 602 q 453 519 486 548 q 377 444 419 490 q 291 341 335 399 q 243 269 269 309 q 192 185 217 228 q 166 135 178 160 q 140 81 153 110 q 126 51 133 67 q 112 19 119 35 l 109 13 l 108 11 q 108 5 108 8 q 108 0 108 2 l 108 -21 q 89 -16 99 -19 q 71 -11 79 -13 q 56 -7 63 -9 q 48 -5 50 -6 q 44 -3 47 -4 q 32 -1 42 -3 l 33 23 l 33 27 l 34 38 q 34 40 34 39 q 35 43 35 42 q 37 60 36 51 q 39 77 38 69 l 39 76 q 67 216 50 147 q 101 347 83 285 q 135 463 118 408 q 170 565 153 517 q 202 652 185 609 q 233 734 218 695 q 262 808 249 774 q 287 869 276 842 q 326 961 309 922 q 355 1027 342 1000 q 374 1071 367 1054 q 386 1096 382 1088 l 385 1097 q 403 1126 393 1113 q 425 1147 414 1139 q 447 1157 436 1155 q 466 1156 458 1160 q 485 1116 485 1145 q 481 1090 485 1104 q 471 1060 478 1075 l 471 1061 q 467 1052 469 1058 q 462 1041 465 1047 q 452 1022 458 1033 q 438 994 447 1011 q 417 952 429 976 q 390 894 406 928 l 390 894 q 338 776 367 846 q 269 608 308 707 q 228 500 249 558 q 185 375 207 442 q 173 338 177 350 q 164 314 168 326 q 156 286 160 303 q 144 236 151 269 q 148 243 147 240 q 152 249 149 245 q 215 350 184 303 q 274 431 246 396 q 331 499 304 469 q 384 555 358 530 q 433 600 409 580 q 478 638 456 620 q 570 702 524 674 q 674 759 617 731 q 735 786 703 772 q 810 813 768 799 q 841 824 826 819 q 874 834 856 828 q 875 838 875 836 q 876 842 876 840 q 877 845 876 842 q 884 849 878 848 q 900 850 889 851 q 933 840 912 849 l 932 834 q 955 798 952 816 q 938 766 958 779 q 936 763 936 765 q 935 760 935 762 q 934 758 934 759 q 933 756 934 758 q 930 749 932 753 q 927 741 928 745 q 924 733 926 737 q 920 724 922 728 q 917 715 919 721 q 913 706 915 709 q 869 584 888 643 q 838 483 850 526 q 820 395 828 440 q 806 314 811 351 q 802 267 803 290 q 801 224 801 244 q 801 199 801 212 q 803 175 801 187 q 807 142 804 160 q 815 110 810 125 q 826 81 819 97 q 844 53 833 65 q 882 28 860 35 q 906 22 894 24 q 931 20 919 20 q 980 27 955 21 q 1026 40 1004 33 q 1110 78 1072 58 q 1178 116 1149 98 l 1177 116 q 1274 181 1235 153 q 1341 231 1313 210 q 1353 240 1348 236 q 1409 287 1386 267 q 1450 323 1432 307 q 1455 327 1453 325 q 1460 332 1458 329 q 1480 349 1469 340 q 1499 365 1490 358 q 1500 366 1500 366 q 1501 367 1501 366 z "},"O":{"ha":1076,"x_min":16,"x_max":1262,"o":"m 1176 375 q 1222 389 1200 389 q 1256 373 1245 389 q 1261 355 1261 365 q 1257 334 1262 344 q 1244 313 1253 323 q 1222 295 1235 303 q 1213 291 1217 292 q 1202 286 1209 290 q 1195 282 1198 283 l 1197 284 q 1173 274 1189 281 q 1137 260 1158 267 q 1104 250 1123 256 q 1062 243 1085 245 q 1048 242 1056 242 q 1031 242 1041 242 q 988 245 1010 242 q 940 259 965 249 l 941 258 q 874 300 908 271 q 814 367 840 328 q 807 348 810 357 q 799 328 803 338 q 769 265 785 297 q 735 203 753 233 q 689 140 715 172 q 631 78 663 107 q 558 23 600 49 q 469 -21 516 -3 q 419 -35 447 -28 q 365 -43 390 -41 q 354 -44 360 -44 q 342 -44 347 -44 q 295 -41 319 -44 q 249 -31 272 -37 q 182 -3 212 -19 q 131 31 153 13 q 94 68 111 47 q 66 108 78 88 q 33 183 44 145 q 17 260 22 220 q 16 278 17 268 q 16 297 16 288 q 22 370 16 328 q 40 456 28 411 q 60 521 48 485 q 89 594 73 556 q 131 677 107 633 q 188 765 154 720 q 260 850 222 811 q 337 917 297 888 q 420 966 377 947 q 503 994 463 986 q 531 998 515 997 q 559 999 546 999 q 574 999 567 999 q 586 998 581 999 q 625 993 606 997 q 658 983 644 989 q 718 950 691 970 q 761 910 745 930 l 760 910 q 788 870 777 890 q 807 831 799 850 q 819 797 815 811 q 826 773 823 783 q 826 770 826 772 q 826 768 826 769 l 826 771 q 833 737 831 751 q 835 715 835 723 q 833 685 837 699 q 823 661 830 671 q 808 646 817 651 q 788 641 799 640 q 757 661 769 642 q 743 707 745 681 q 743 709 743 708 q 742 710 742 710 l 742 713 q 742 716 742 715 q 742 719 742 717 q 741 727 741 722 q 740 738 741 733 q 739 741 740 739 q 739 744 739 742 l 739 747 q 732 782 737 761 q 717 824 726 802 l 717 824 q 698 854 709 838 q 668 885 688 869 q 624 910 650 900 q 564 921 598 919 q 490 913 529 924 q 409 877 450 901 q 325 813 369 853 q 243 724 282 773 q 211 677 226 701 q 183 629 196 653 q 158 583 169 605 q 140 542 147 560 l 140 542 q 114 465 124 501 q 96 396 103 428 l 96 397 q 88 313 88 349 q 93 256 88 282 q 106 206 98 229 l 106 207 q 140 145 119 175 q 190 92 162 115 l 190 92 q 226 69 206 80 q 270 51 246 58 q 306 43 286 46 q 347 40 326 40 q 367 40 357 40 q 390 43 378 41 q 476 66 438 49 q 542 103 513 83 l 542 102 q 593 143 570 122 q 633 183 616 163 q 665 225 649 203 q 693 267 681 247 q 715 310 703 285 q 738 363 726 335 q 755 409 748 388 q 765 446 762 431 l 767 453 q 768 458 767 457 l 769 489 l 814 506 q 819 496 815 503 q 829 480 824 488 q 839 464 834 472 q 845 455 844 457 q 863 423 856 434 q 902 373 882 393 q 942 342 922 353 q 980 326 961 330 q 1016 321 999 322 q 1046 322 1032 319 q 1072 327 1060 324 l 1070 326 q 1102 336 1087 331 q 1128 348 1117 342 l 1128 349 q 1137 353 1132 351 q 1144 358 1142 356 q 1159 366 1152 362 q 1176 375 1167 369 z "},"P":{"ha":934,"x_min":-47,"x_max":1127,"o":"m 1065 394 q 1089 402 1078 400 q 1111 397 1100 404 l 1113 397 q 1127 367 1127 387 q 1124 350 1127 359 q 1115 331 1122 341 q 1098 313 1109 323 q 1072 294 1088 303 l 1073 294 q 1058 286 1065 289 q 1040 278 1052 283 q 1009 266 1030 274 q 943 244 988 258 q 835 216 903 232 q 680 187 767 201 q 609 177 647 181 q 530 167 571 172 q 476 157 497 160 q 401 149 439 151 q 329 148 364 147 l 325 148 q 323 148 324 148 q 321 149 322 149 l 306 149 l 282 199 l 310 219 q 319 220 315 219 q 327 221 324 220 q 344 222 335 222 q 360 223 352 222 l 359 223 q 389 226 374 224 q 418 228 404 227 q 490 237 455 233 q 556 245 526 241 l 556 244 q 609 264 583 253 q 660 289 635 275 q 747 350 706 314 q 823 433 788 385 q 881 536 857 479 q 910 656 904 592 q 911 669 910 663 q 911 684 911 676 q 907 731 911 707 q 893 777 903 754 q 862 824 882 803 q 815 851 842 844 q 797 854 806 853 q 776 856 787 856 q 743 851 760 856 q 709 841 726 848 q 681 828 692 835 q 625 793 650 811 q 580 758 600 776 q 506 685 540 722 q 438 605 472 648 q 364 507 403 561 q 278 379 324 453 q 227 295 253 340 q 172 196 201 251 q 152 159 163 178 q 132 120 142 140 q 131 118 131 119 q 131 116 131 117 q 130 111 129 111 q 129 108 129 110 q 128 104 128 107 q 123 90 126 99 q 119 71 121 81 q 119 69 119 69 q 119 67 119 68 l 119 66 l 118 66 l 118 69 l 115 58 q 91 -22 103 18 q 65 -99 79 -62 q 64 -101 64 -100 q 63 -102 64 -101 l 63 -101 q 53 -123 58 -111 q 42 -144 47 -134 q 33 -157 38 -150 q 18 -173 27 -165 q 8 -180 13 -176 q -6 -184 3 -183 q -39 -169 -24 -184 q -44 -160 -42 -167 q -46 -147 -46 -151 q -47 -140 -47 -143 q -43 -117 -45 -128 q -36 -94 -40 -106 q -34 -87 -36 -92 q -32 -83 -33 -86 q -32 -81 -31 -79 q -24 -59 -28 -69 q -15 -36 -20 -48 q 20 46 1 5 q 56 122 40 87 q 76 202 67 164 q 92 278 84 241 q 128 452 112 370 q 156 596 144 534 q 157 601 157 599 q 158 607 158 603 q 161 620 160 614 q 164 634 163 627 q 182 733 174 690 q 195 808 190 776 q 204 862 201 840 q 210 896 208 883 q 211 903 210 899 q 213 908 212 906 l 213 914 q 223 947 216 931 q 237 973 229 963 q 255 990 245 984 q 273 995 264 996 q 298 976 289 992 q 308 935 308 959 q 304 898 308 917 q 300 877 303 889 q 293 843 298 865 q 287 814 290 831 q 279 776 284 798 q 272 737 276 758 q 262 690 267 716 q 234 556 250 635 q 194 374 217 477 q 226 427 210 402 q 257 476 242 452 q 310 556 285 519 q 359 624 335 592 q 405 684 383 656 q 449 737 427 712 q 493 784 472 762 q 539 828 515 807 q 590 870 563 850 q 651 908 617 890 q 689 924 667 916 q 731 936 710 932 q 752 939 740 938 q 776 940 764 940 q 830 933 800 940 q 886 911 859 926 q 933 872 913 896 q 968 816 954 847 q 987 750 981 785 q 991 691 991 722 q 988 638 991 664 q 978 587 984 611 q 956 518 968 549 q 929 462 944 488 l 930 462 q 867 370 901 410 q 796 299 833 331 q 787 291 788 293 q 786 290 785 290 q 783 288 785 289 q 778 285 781 286 q 819 295 801 290 q 853 304 838 299 q 918 324 893 315 q 960 342 943 333 q 995 357 979 350 q 1025 373 1010 365 l 1024 373 q 1044 384 1033 378 q 1065 394 1056 390 z "},"Q":{"ha":1137,"x_min":51,"x_max":1326,"o":"m 1310 385 q 1326 350 1326 372 q 1324 335 1326 342 q 1317 322 1322 328 l 1317 323 q 1311 317 1315 319 q 1305 311 1308 314 q 1299 306 1303 310 q 1287 292 1295 301 l 1287 293 q 1274 280 1281 288 q 1257 263 1267 272 q 1244 250 1251 257 q 1230 236 1238 244 q 1229 235 1229 235 q 1228 233 1228 234 l 1226 231 q 1177 184 1205 210 q 1109 126 1149 157 q 1105 123 1107 124 q 1100 119 1103 122 q 1093 114 1097 117 q 1087 108 1090 111 q 1048 78 1069 94 q 1001 46 1026 62 q 924 6 967 26 q 828 -22 880 -14 q 802 -24 815 -23 q 778 -25 790 -25 q 749 -24 762 -25 q 726 -21 736 -22 q 690 -14 706 -18 q 656 -2 673 -9 l 656 -2 q 652 -1 653 -1 q 647 1 651 -1 q 588 -29 621 -15 q 522 -52 556 -42 q 489 -60 505 -58 q 459 -64 473 -62 q 456 -64 458 -64 q 453 -65 455 -65 l 439 -65 q 438 -65 438 -65 q 437 -65 438 -65 l 435 -65 q 422 -66 429 -66 q 408 -66 414 -66 q 361 -64 382 -66 q 322 -59 340 -62 q 252 -41 284 -52 q 188 -10 221 -30 q 157 13 173 0 q 124 44 142 25 q 93 85 108 63 q 69 138 79 108 l 69 137 q 51 256 51 186 q 60 348 51 298 q 84 453 68 399 q 118 547 99 503 q 159 628 138 590 q 205 699 181 667 q 251 757 228 731 q 344 846 300 811 q 424 903 388 881 q 486 938 457 924 q 537 962 515 952 q 568 975 557 971 q 585 981 580 980 q 613 986 599 986 q 644 976 631 986 q 663 951 658 967 q 652 918 667 935 q 613 894 637 901 l 604 891 q 598 889 602 890 q 585 884 594 888 q 553 872 573 880 q 504 851 533 865 q 433 809 476 837 q 342 738 390 781 q 289 683 317 714 q 239 619 261 653 l 240 619 q 191 535 215 582 q 150 433 167 488 q 125 336 133 382 q 119 251 118 291 q 127 181 119 212 q 148 127 135 151 q 178 89 161 105 q 212 63 194 74 q 277 33 248 40 q 342 20 310 24 q 413 18 374 17 q 424 18 419 18 q 434 19 428 19 q 436 20 435 19 q 438 20 437 20 l 441 20 l 454 20 q 455 20 455 20 q 456 21 454 21 q 478 24 466 22 q 498 28 490 26 q 525 36 510 31 q 555 47 539 40 q 507 82 533 61 q 449 135 481 103 q 383 209 409 175 q 338 272 357 242 q 303 326 317 302 q 280 367 290 349 l 280 367 q 255 415 263 398 q 243 440 247 432 q 240 448 241 442 q 240 483 233 466 q 266 508 248 501 q 301 506 283 513 q 326 480 319 499 l 325 481 q 326 478 324 483 q 328 470 327 474 q 333 458 329 467 q 347 424 337 448 l 346 424 q 364 385 353 408 q 390 333 374 363 q 433 266 408 304 q 499 184 459 228 q 568 123 535 146 q 624 88 600 99 q 628 86 627 86 q 679 127 655 106 q 719 167 703 149 q 755 213 739 190 q 783 258 772 237 q 804 300 794 279 q 823 342 814 321 q 839 386 831 363 q 854 434 847 408 l 854 433 q 884 624 884 542 q 878 689 884 658 q 853 755 870 731 q 823 792 837 780 l 824 791 q 797 807 810 801 q 772 817 783 813 q 756 820 763 819 q 738 823 748 822 l 739 823 q 700 837 717 826 q 679 866 683 849 q 685 884 679 875 q 701 901 691 894 q 723 912 710 908 q 749 915 735 916 q 760 913 755 914 q 774 909 766 913 l 770 910 q 774 908 773 908 q 777 908 776 908 q 780 907 778 908 q 802 899 788 904 q 836 883 815 894 q 864 864 849 875 q 894 835 878 853 q 923 794 909 817 q 944 738 936 770 l 944 738 q 954 691 951 716 q 957 639 957 666 q 947 532 957 590 q 917 406 938 474 q 874 289 900 352 q 808 161 848 225 q 769 110 790 135 q 723 60 749 85 q 748 59 735 59 q 774 59 760 58 q 816 63 792 60 q 874 73 841 65 l 873 72 q 943 99 913 85 q 993 125 974 113 l 992 125 q 1033 153 1015 140 q 1069 182 1050 166 q 1125 233 1102 209 q 1165 275 1149 257 q 1188 302 1178 291 q 1204 323 1197 313 q 1207 327 1206 324 q 1211 332 1209 330 q 1217 341 1215 337 q 1223 349 1220 346 q 1225 353 1224 351 q 1228 358 1227 356 q 1231 361 1230 359 q 1233 365 1233 364 q 1237 371 1235 368 q 1243 378 1240 374 q 1260 392 1250 388 q 1280 396 1269 396 q 1295 394 1288 396 q 1308 387 1303 392 l 1310 385 m 776 815 q 777 815 777 815 q 779 815 778 815 q 776 815 778 815 z "},"R":{"ha":1653,"x_min":9,"x_max":1841,"o":"m 1835 383 q 1840 364 1841 376 q 1834 339 1840 353 q 1818 311 1828 326 q 1794 284 1808 297 q 1784 274 1790 279 q 1766 261 1778 269 q 1761 257 1764 260 q 1756 253 1758 255 q 1752 251 1754 253 q 1726 230 1742 242 q 1683 197 1710 217 l 1685 198 q 1683 197 1684 197 q 1682 196 1683 197 q 1680 194 1681 195 q 1678 192 1678 193 l 1672 188 q 1635 161 1656 176 q 1589 130 1614 147 q 1522 89 1560 112 q 1433 44 1483 67 q 1381 23 1409 33 q 1322 3 1353 12 q 1254 -10 1290 -5 q 1180 -15 1218 -16 q 1099 -3 1140 -13 q 1017 29 1058 7 l 1018 28 q 942 82 977 50 q 875 156 906 115 q 816 253 843 200 q 770 361 790 306 q 761 390 766 374 q 753 423 757 406 q 744 456 749 440 q 735 483 740 472 q 725 514 729 500 q 725 538 721 527 q 746 554 730 548 q 794 563 762 560 q 799 564 797 563 q 804 567 801 566 q 827 579 815 573 q 851 592 840 585 q 907 623 877 606 q 969 661 936 641 q 1025 700 996 679 q 1081 746 1054 722 q 1107 771 1094 758 q 1128 796 1119 784 q 1144 821 1137 808 q 1153 848 1151 834 q 1145 892 1159 872 q 1127 908 1140 901 q 1102 920 1115 915 q 1059 928 1082 926 q 1016 931 1035 931 q 975 930 996 931 q 935 925 955 928 q 864 910 898 919 q 804 892 831 901 q 699 850 749 874 q 602 799 649 827 l 603 799 q 552 766 578 783 q 498 725 526 748 q 440 675 470 703 q 377 612 410 647 q 309 531 344 576 q 243 434 275 485 l 243 435 q 178 310 210 379 q 121 158 147 242 q 98 73 106 111 q 93 52 95 63 q 89 32 91 42 l 87 23 l 86 -24 l 41 -8 q 31 -1 37 -6 q 20 15 25 5 q 12 41 15 25 q 11 80 9 57 q 23 135 14 103 q 51 207 32 166 q 79 276 67 242 q 102 343 92 310 q 123 408 113 376 q 145 468 133 439 q 232 673 192 583 q 303 831 272 762 q 351 932 331 888 q 387 1008 372 976 q 412 1061 402 1040 q 428 1094 422 1082 l 433 1102 q 434 1105 433 1103 q 435 1107 434 1106 q 455 1138 444 1124 q 478 1161 467 1152 q 501 1173 490 1170 q 521 1173 513 1176 q 539 1137 539 1163 q 534 1105 539 1122 q 521 1071 529 1088 q 517 1065 519 1068 q 514 1058 515 1061 q 510 1050 513 1054 q 506 1042 508 1046 l 506 1043 q 502 1036 505 1040 q 498 1028 500 1032 q 467 969 487 1007 q 414 865 448 931 q 363 763 392 821 q 299 626 334 704 q 340 672 319 651 q 381 714 360 694 q 460 784 422 753 q 534 840 499 815 q 605 886 572 866 q 668 921 638 906 q 730 950 699 937 q 794 975 762 964 q 863 994 826 985 q 935 1010 900 1004 q 976 1015 953 1013 q 1021 1016 998 1016 q 1069 1013 1044 1016 q 1122 1002 1094 1010 q 1150 992 1135 998 q 1178 976 1164 985 l 1178 976 q 1207 951 1194 967 q 1226 919 1220 936 l 1226 919 q 1238 840 1243 882 q 1226 802 1234 820 q 1208 767 1217 783 q 1178 728 1194 747 q 1147 697 1163 710 q 1118 672 1135 685 q 1084 646 1102 659 q 1025 606 1055 624 q 966 571 995 588 q 913 542 939 556 q 863 516 887 528 q 840 505 853 511 q 819 495 827 499 l 818 495 l 806 490 q 827 410 815 447 q 853 338 838 373 l 853 338 q 890 261 869 299 q 940 185 910 222 q 990 133 964 156 q 1044 94 1017 110 q 1099 70 1070 78 q 1156 59 1128 63 q 1174 58 1166 58 q 1190 58 1182 58 q 1276 68 1235 58 q 1351 91 1318 79 l 1351 91 q 1426 125 1393 108 q 1485 158 1460 142 q 1536 191 1514 176 q 1574 219 1558 206 q 1625 258 1604 241 q 1662 290 1646 276 q 1667 294 1664 291 q 1671 297 1669 295 q 1687 312 1679 305 q 1702 326 1695 319 q 1711 333 1706 329 q 1720 342 1715 338 l 1733 352 q 1762 374 1747 365 q 1790 388 1776 383 q 1815 392 1803 392 q 1833 384 1826 391 l 1835 383 z "},"S":{"ha":1069,"x_min":-44,"x_max":1262,"o":"m 1241 396 q 1256 383 1251 392 q 1262 362 1262 374 q 1255 335 1262 349 q 1238 313 1249 325 q 1210 291 1226 301 q 1205 288 1208 290 q 1201 285 1203 286 l 1201 285 q 1194 281 1199 284 q 1186 276 1190 278 l 1185 276 q 1183 275 1184 276 q 1181 274 1183 275 l 1177 272 q 1147 259 1166 267 q 1098 239 1128 251 q 1003 208 1060 226 q 858 172 946 191 l 859 172 q 813 161 837 167 q 762 151 788 156 q 741 147 751 149 q 719 142 730 144 q 686 135 703 139 q 652 128 669 132 l 653 129 q 640 126 647 128 q 626 123 633 124 q 595 116 610 119 q 567 110 581 113 q 537 103 553 107 q 503 94 522 99 q 508 31 508 65 q 501 -14 507 9 q 484 -59 495 -37 q 418 -140 463 -102 q 314 -199 373 -177 q 237 -217 275 -211 q 166 -221 199 -222 q 97 -213 129 -220 q 38 -192 65 -206 q 9 -168 22 -182 q -10 -132 -5 -153 q -10 -93 -15 -111 q 6 -60 -4 -74 q 42 -22 23 -37 q 78 6 60 -6 q 148 44 113 28 q 220 76 183 60 q 372 129 286 103 l 404 138 q 390 174 397 156 q 376 206 382 192 l 376 205 q 329 290 353 249 q 277 373 304 331 q 234 436 257 403 q 181 511 210 469 q 128 584 156 544 q 126 587 127 585 q 123 592 124 589 l 123 593 q 73 665 100 625 q 19 753 47 705 q -10 810 4 778 q -34 876 -25 842 l -34 875 q -42 916 -40 894 q -42 959 -44 939 q -28 1005 -40 982 q 1 1046 -17 1028 q 42 1075 22 1064 q 81 1092 62 1085 q 121 1104 101 1099 q 158 1112 141 1108 q 230 1119 194 1117 q 301 1121 265 1121 q 429 1117 369 1121 q 543 1102 490 1113 q 595 1089 568 1097 q 647 1070 622 1082 q 696 1044 672 1059 q 735 1013 719 1029 q 765 968 753 992 q 781 920 776 944 q 783 890 783 906 q 775 835 783 862 q 751 772 765 801 q 725 723 738 743 q 700 685 713 703 q 678 655 687 667 q 645 615 658 630 q 627 595 633 601 q 600 573 615 581 q 573 561 586 565 q 548 559 560 558 q 531 569 537 561 q 524 586 524 576 q 527 609 524 597 q 539 634 531 621 q 558 658 547 647 l 571 670 q 575 674 573 672 q 580 680 577 676 q 586 687 583 683 q 594 695 589 690 l 593 695 q 608 712 600 703 q 627 734 616 721 l 626 733 q 648 763 636 747 q 672 801 660 780 q 683 826 677 813 q 693 851 688 838 q 699 878 697 863 q 699 908 701 893 q 690 936 697 922 q 672 963 683 951 q 639 987 658 976 q 596 1006 619 998 q 484 1034 547 1024 q 352 1047 422 1043 q 319 1048 338 1047 q 285 1048 300 1048 q 243 1047 265 1048 q 199 1044 221 1047 q 157 1039 178 1042 q 117 1031 135 1036 q 81 1017 99 1026 q 49 995 63 1009 q 31 970 37 985 q 25 942 26 956 q 27 908 24 924 q 36 875 31 891 l 36 876 q 64 810 49 840 q 96 754 80 781 q 156 663 128 702 q 208 589 183 624 q 210 586 207 590 q 218 577 214 583 q 220 574 219 576 q 222 572 221 573 l 222 572 q 251 533 237 551 q 262 517 256 525 q 273 502 267 509 q 341 410 310 452 q 395 330 372 367 q 426 281 410 308 q 454 229 442 254 q 470 197 462 214 q 485 160 478 180 q 623 196 559 181 q 740 223 688 211 l 740 222 q 751 225 745 224 q 763 228 758 226 q 778 231 771 229 q 793 234 785 233 l 792 233 q 916 266 862 249 q 1009 296 970 282 q 1066 318 1040 308 q 1106 337 1092 329 q 1136 352 1123 345 q 1163 369 1149 360 q 1182 382 1172 376 q 1199 391 1192 388 q 1220 399 1211 397 q 1241 396 1230 401 m 407 -24 q 420 9 417 -8 q 423 44 423 26 q 423 58 423 51 q 421 73 422 65 q 408 69 415 71 q 393 64 401 67 q 386 61 391 63 q 378 59 381 60 l 380 60 q 294 32 338 48 q 206 -4 250 15 l 207 -4 q 165 -25 187 -14 q 120 -52 142 -37 q 101 -65 110 -58 q 83 -82 92 -72 q 69 -96 75 -89 q 61 -109 63 -103 l 62 -108 q 71 -123 60 -115 q 85 -131 76 -127 q 105 -137 95 -134 q 135 -142 119 -140 q 167 -143 151 -143 q 190 -142 178 -143 q 215 -140 202 -141 q 270 -127 242 -136 q 326 -104 299 -118 l 325 -104 q 371 -71 350 -90 q 406 -25 392 -51 l 407 -24 m 418 142 q 417 142 417 142 q 416 142 417 142 l 419 142 l 418 142 z "},"T":{"ha":1155,"x_min":-215,"x_max":1392,"o":"m 1390 725 q 1388 706 1392 715 q 1373 688 1383 697 q 1348 674 1363 680 q 1317 666 1334 668 q 1304 665 1310 665 q 1288 665 1298 665 l 1276 665 q 1256 665 1268 665 q 1234 665 1244 665 l 1210 665 q 1123 667 1176 665 q 991 675 1069 669 q 807 695 913 682 q 560 733 701 709 q 552 735 555 735 q 546 736 549 735 q 544 736 545 736 q 542 737 544 737 q 527 640 536 693 q 506 512 519 586 q 488 407 498 463 q 464 287 478 351 q 449 220 457 255 q 431 149 440 185 q 419 112 425 131 q 407 75 414 93 l 407 76 q 399 54 403 65 q 390 35 394 43 q 377 13 385 25 q 360 -8 369 0 q 339 -20 351 -16 q 315 -22 327 -24 q 299 -16 306 -19 q 286 -7 292 -12 q 269 8 276 1 q 255 24 262 16 q 235 52 245 37 q 215 86 225 68 q 184 143 199 113 q 156 197 168 172 q 123 265 139 233 q 93 327 107 298 l 83 351 l 83 350 q 76 363 79 356 q 71 375 74 369 l 71 374 q 8 506 35 450 q -42 606 -19 561 q -89 693 -66 651 q -140 782 -111 735 l -140 781 q -170 828 -153 803 q -206 875 -187 853 q -208 877 -207 876 q -210 880 -209 878 l -215 902 l -176 951 q -173 951 -176 951 q -166 952 -169 952 q -159 953 -162 953 q -155 953 -156 953 q -123 945 -142 950 q -90 938 -105 941 q -73 933 -82 935 q -56 929 -65 931 q 62 902 9 914 q 161 880 115 890 q 245 862 206 870 q 318 847 283 854 q 359 839 341 842 q 394 832 377 835 q 428 826 410 829 q 467 819 445 823 q 478 918 475 882 q 483 969 482 953 q 484 975 484 972 q 504 1029 488 1008 q 540 1048 519 1050 q 557 1040 549 1047 q 570 1021 565 1033 q 577 995 575 1010 q 576 963 578 980 l 570 919 q 568 907 569 913 q 566 892 567 900 q 560 855 563 876 q 553 804 557 833 q 557 804 555 804 q 562 803 560 804 q 567 802 565 803 q 573 801 569 802 q 579 801 576 801 q 585 800 582 801 l 584 800 q 783 772 697 782 q 936 756 870 761 q 1051 749 1003 751 q 1133 747 1099 747 l 1153 747 q 1198 749 1180 748 q 1231 751 1217 749 l 1230 751 q 1239 752 1234 751 q 1249 752 1243 752 q 1262 753 1256 753 q 1276 755 1268 753 q 1287 756 1281 756 q 1299 758 1293 756 q 1303 758 1301 758 q 1307 758 1306 758 q 1336 758 1322 760 q 1362 753 1351 757 q 1381 741 1374 749 q 1390 725 1388 734 m 456 727 q 458 738 457 733 q 459 749 458 744 q 459 750 459 750 q 460 751 460 751 q 443 754 451 753 q 426 757 435 756 l 427 757 q 323 775 377 765 q 210 794 268 784 q 108 813 160 803 q -1 835 56 823 q -24 839 -12 837 q -47 844 -35 842 q -67 849 -56 847 q -87 853 -77 851 q -93 854 -90 853 q -96 852 -97 854 q -90 844 -96 850 q -69 827 -83 838 q -66 821 -67 824 q -63 816 -64 817 q -35 765 -49 790 q -11 719 -21 740 q 13 669 1 694 q 35 620 24 644 q 42 603 38 612 q 50 587 47 595 q 56 574 51 583 q 63 559 60 565 q 103 468 81 518 q 156 351 126 417 q 159 345 158 348 q 165 334 161 340 q 195 270 178 304 q 231 197 212 235 q 235 191 233 194 q 238 185 237 188 q 259 146 248 167 q 282 106 270 126 l 282 106 q 299 80 290 92 q 314 60 307 68 q 315 52 315 57 q 314 44 315 48 q 318 51 316 47 q 324 60 321 56 q 335 85 333 76 q 346 115 341 101 q 355 144 351 130 l 355 143 q 369 201 363 173 q 381 257 376 228 q 402 362 393 313 q 418 457 410 411 q 438 591 430 528 q 453 704 447 654 q 454 710 454 708 q 455 716 454 713 q 456 722 456 719 q 456 727 456 724 z "},"U":{"ha":1451,"x_min":88,"x_max":1639,"o":"m 590 974 q 615 985 603 981 q 640 989 628 989 q 679 969 668 989 q 681 951 683 961 q 667 926 679 940 q 631 893 655 912 q 566 849 606 874 q 508 802 544 832 q 428 729 472 773 q 406 704 419 719 q 379 674 393 690 q 351 641 365 658 q 326 610 337 624 q 268 530 299 575 q 211 431 238 484 q 185 371 197 403 q 166 302 174 338 q 161 272 163 288 q 159 244 159 257 q 163 203 159 224 q 177 163 167 182 q 224 112 194 131 q 261 93 241 102 q 300 79 281 85 q 394 67 342 69 q 418 66 406 66 q 444 66 431 66 q 469 68 457 67 q 494 70 481 69 l 494 70 q 552 84 525 76 q 601 102 580 93 q 639 122 619 111 q 677 144 659 133 q 739 189 711 167 q 790 235 766 211 q 848 298 817 262 q 915 385 879 335 q 927 404 922 394 q 940 425 933 414 q 946 433 943 429 q 951 442 949 437 q 961 458 956 450 q 971 476 965 467 q 976 484 974 480 q 980 492 978 488 l 983 496 q 981 495 981 494 q 982 497 981 496 l 982 499 l 988 510 l 988 509 q 994 519 990 512 q 1001 529 999 526 q 1015 530 1008 527 q 1026 536 1021 532 q 1035 543 1031 540 q 1042 545 1040 547 q 1049 543 1045 547 q 1057 536 1053 540 q 1063 528 1060 532 q 1066 524 1066 524 q 1050 403 1057 465 q 1044 288 1044 342 q 1048 233 1045 260 q 1056 180 1050 206 q 1068 134 1060 156 q 1086 97 1076 113 q 1108 74 1096 82 q 1135 65 1121 66 q 1168 65 1152 62 q 1199 75 1184 69 q 1261 107 1232 89 q 1315 144 1290 125 q 1357 179 1335 160 q 1398 216 1378 198 q 1451 267 1429 245 q 1490 306 1474 289 l 1499 315 l 1499 315 q 1515 332 1507 324 q 1528 347 1522 340 q 1539 358 1534 353 q 1542 362 1544 363 q 1564 381 1553 373 q 1587 392 1576 388 q 1609 394 1599 396 q 1626 387 1619 393 q 1639 358 1639 376 q 1632 331 1639 345 q 1613 302 1625 316 q 1597 286 1607 296 q 1580 269 1588 276 q 1572 262 1574 265 q 1566 256 1569 259 q 1537 228 1554 244 q 1494 188 1519 211 l 1494 189 q 1491 185 1493 188 q 1487 182 1488 183 q 1453 152 1472 168 q 1413 118 1435 136 q 1358 76 1389 98 q 1285 30 1327 53 q 1241 8 1264 18 q 1190 -8 1217 -2 q 1159 -11 1176 -10 q 1126 -10 1142 -12 q 1090 -2 1107 -9 q 1058 17 1073 6 q 1016 73 1032 40 q 991 142 999 107 q 979 213 983 176 q 975 287 976 251 q 975 312 975 304 q 974 325 974 319 q 975 337 974 331 q 976 357 975 343 q 958 330 967 342 q 940 304 949 317 q 859 201 897 242 q 785 128 822 160 q 713 71 750 97 q 628 23 676 46 q 573 2 603 12 q 510 -13 542 -8 q 434 -17 477 -19 q 391 -16 413 -17 q 349 -12 370 -15 q 235 18 285 -3 q 151 74 185 40 q 122 111 133 92 q 103 150 110 131 q 90 225 91 188 q 93 291 88 259 q 108 351 98 322 l 108 351 q 128 411 117 382 q 154 471 139 441 q 205 562 178 521 q 256 638 231 603 q 303 699 281 671 q 348 752 326 728 q 424 834 394 803 q 474 883 454 864 q 514 916 497 903 q 543 940 531 930 q 545 941 544 941 q 547 943 546 942 q 569 960 559 953 q 590 974 579 967 z "},"V":{"ha":1160,"x_min":77,"x_max":1353,"o":"m 1272 1081 q 1288 1086 1281 1085 q 1303 1087 1296 1087 q 1334 1078 1321 1087 q 1351 1056 1347 1070 l 1350 1057 q 1350 1039 1353 1048 q 1342 1020 1348 1029 q 1326 1005 1335 1012 q 1304 994 1316 999 q 1295 991 1302 994 q 1290 990 1292 990 q 1283 988 1285 989 q 1278 987 1281 988 q 1279 986 1279 987 q 1242 972 1266 982 q 1182 942 1217 962 q 1077 872 1141 919 q 929 751 1013 826 q 733 556 844 674 q 492 272 622 438 q 427 189 458 230 q 368 109 397 149 l 369 110 q 366 107 367 108 q 364 103 365 105 l 359 97 q 352 87 356 92 q 345 76 349 82 q 322 35 336 61 q 290 -18 307 8 q 255 -65 273 -44 q 222 -88 238 -85 q 195 -69 207 -90 q 177 8 183 -48 q 168 50 175 29 q 156 91 160 71 q 150 125 153 107 q 143 163 147 144 q 137 199 140 181 q 132 231 134 216 l 132 230 q 131 235 131 233 q 131 240 131 237 q 105 471 113 368 q 92 653 97 574 q 92 660 92 657 q 92 667 92 663 q 91 675 91 670 q 90 683 91 679 q 85 802 87 751 q 81 890 83 853 q 78 951 79 927 q 78 987 78 974 q 77 993 78 990 q 77 997 77 995 l 77 1001 q 91 1047 78 1028 q 124 1066 105 1066 q 142 1061 133 1066 q 156 1047 150 1056 q 166 1026 163 1038 q 170 1001 170 1015 q 170 993 170 997 q 169 985 170 989 l 169 985 q 168 966 169 978 q 167 936 167 955 q 166 888 167 917 q 166 817 166 859 l 166 772 q 167 693 167 737 q 170 597 168 650 q 177 482 173 544 q 188 344 181 419 q 197 268 192 309 q 208 186 201 227 q 221 113 214 150 q 238 37 228 75 q 266 77 251 56 q 294 117 280 98 q 363 212 326 162 q 440 311 401 263 q 666 579 560 462 q 852 773 773 696 q 994 900 932 849 q 1097 980 1056 951 q 1154 1018 1130 1003 q 1197 1043 1178 1033 q 1199 1045 1197 1044 q 1203 1047 1201 1046 l 1202 1047 q 1203 1047 1203 1047 q 1205 1048 1204 1047 q 1211 1053 1207 1050 q 1243 1069 1229 1063 q 1273 1082 1256 1076 l 1272 1081 z "},"W":{"ha":1517,"x_min":78,"x_max":1702,"o":"m 1693 385 q 1701 366 1700 378 q 1697 339 1702 354 q 1681 308 1692 324 q 1656 275 1671 291 q 1636 256 1648 267 q 1613 234 1624 244 q 1611 232 1613 233 q 1608 229 1609 230 l 1593 215 q 1565 188 1582 203 q 1525 151 1549 172 q 1520 146 1523 149 q 1515 142 1517 143 l 1516 143 q 1512 140 1514 142 q 1508 136 1510 138 l 1509 137 q 1471 104 1492 122 q 1424 66 1450 85 q 1389 41 1408 54 q 1346 13 1369 27 q 1295 -13 1323 0 q 1235 -32 1267 -26 q 1208 -34 1224 -34 q 1179 -30 1194 -34 q 1151 -21 1164 -26 q 1115 8 1131 -10 q 1090 46 1100 26 q 1069 117 1074 81 q 1064 192 1065 153 q 1062 190 1063 191 q 1061 188 1062 189 q 1017 111 1041 149 q 957 38 993 74 q 917 4 939 20 q 868 -22 895 -12 q 840 -28 854 -26 q 809 -32 825 -31 q 782 -31 795 -32 q 756 -28 768 -31 q 700 -11 728 -23 q 649 23 672 1 q 612 70 626 44 q 590 126 598 97 q 577 194 580 162 q 576 255 575 226 q 577 278 576 267 q 578 299 577 289 q 555 259 567 280 q 531 219 542 239 q 472 130 501 172 q 406 51 442 88 q 367 16 388 33 q 322 -13 347 -1 q 260 -26 292 -27 q 234 -25 247 -26 q 209 -19 222 -23 l 210 -19 q 157 3 181 -13 q 117 43 133 19 l 117 43 q 93 89 101 66 q 81 133 85 112 q 78 161 79 147 q 78 192 78 176 q 81 247 78 221 q 88 297 83 273 q 121 430 101 368 q 163 545 141 491 q 205 643 183 598 q 246 728 226 689 q 320 860 286 806 q 379 949 353 914 q 423 1006 408 988 q 444 1031 438 1025 q 470 1055 456 1045 q 498 1072 485 1065 q 529 1080 515 1080 q 560 1065 551 1080 l 560 1065 q 565 1038 569 1051 q 549 1010 560 1025 q 533 992 542 1002 q 513 969 524 981 q 509 965 511 967 q 505 959 508 963 l 497 951 q 485 938 492 946 q 471 920 479 931 l 471 921 q 427 864 454 900 q 364 767 401 827 q 325 700 347 740 q 280 610 303 660 q 233 503 258 563 q 188 378 208 443 q 169 307 178 344 q 156 227 160 269 q 153 187 153 206 q 154 168 153 178 q 156 147 155 157 q 165 109 159 127 q 184 76 171 90 q 215 56 196 64 q 256 47 233 49 q 292 53 274 44 q 328 75 311 61 q 366 112 348 92 q 403 155 385 133 q 439 203 422 178 q 472 254 456 228 q 561 410 520 332 q 633 556 601 489 q 672 673 652 617 q 714 783 692 728 q 742 849 727 814 q 775 921 758 883 q 776 924 776 922 q 777 926 776 925 q 779 931 778 929 q 781 934 780 933 q 783 938 781 936 q 783 938 782 938 q 784 942 783 940 q 786 946 785 944 q 788 949 788 948 q 792 956 790 952 q 794 964 793 960 l 794 963 q 794 968 794 965 q 795 976 794 972 q 796 986 796 981 q 808 982 800 984 q 823 976 815 979 q 837 970 831 973 q 846 965 843 967 q 861 942 858 954 q 858 910 865 930 q 857 910 858 910 q 857 909 857 910 l 857 908 l 846 880 q 826 832 837 857 q 805 781 816 807 q 802 774 803 778 q 799 767 801 771 q 768 693 785 732 q 733 614 751 654 q 714 550 723 582 q 697 487 704 518 q 681 417 688 454 q 667 335 673 381 q 662 292 664 313 q 660 249 660 271 q 661 202 660 226 q 669 155 663 177 q 687 112 675 135 q 717 76 699 89 q 757 57 734 63 q 804 50 779 50 q 814 50 808 50 q 824 51 819 51 q 859 63 842 54 q 890 84 876 72 q 919 113 904 97 q 944 144 933 130 q 965 175 955 158 q 985 208 976 192 q 1003 241 994 225 q 1018 272 1011 258 q 1061 380 1042 326 q 1096 483 1081 434 q 1104 523 1099 503 q 1113 562 1108 542 q 1115 570 1115 566 q 1116 578 1115 574 q 1118 585 1117 581 q 1119 592 1119 588 q 1134 651 1126 619 q 1150 712 1142 683 l 1154 727 q 1155 731 1155 728 q 1155 739 1155 734 q 1156 747 1156 744 l 1156 763 q 1183 777 1169 770 q 1208 779 1197 783 q 1222 754 1218 775 q 1218 687 1226 733 q 1211 655 1215 671 q 1204 622 1208 638 q 1184 539 1195 583 q 1161 453 1173 495 l 1162 455 q 1144 342 1151 395 q 1136 242 1138 290 q 1136 234 1136 238 q 1135 226 1135 230 l 1135 213 q 1138 166 1135 190 q 1144 119 1140 142 q 1159 75 1150 96 q 1182 47 1169 55 q 1193 43 1188 44 q 1206 42 1199 42 q 1226 44 1216 42 q 1245 50 1236 47 l 1244 50 q 1279 66 1262 57 q 1310 83 1297 74 q 1365 123 1340 103 q 1406 156 1390 142 q 1457 204 1435 183 q 1495 241 1479 225 q 1502 248 1499 244 q 1509 256 1506 252 q 1530 277 1519 265 q 1551 300 1540 288 q 1570 320 1561 310 q 1588 340 1580 331 q 1618 365 1602 354 q 1648 383 1633 376 q 1674 391 1662 390 q 1693 385 1685 392 z "},"X":{"ha":1268,"x_min":-165,"x_max":1447,"o":"m 1440 378 q 1447 360 1446 372 q 1442 336 1447 349 q 1428 307 1438 322 q 1404 279 1419 292 q 1396 272 1400 276 q 1388 265 1392 268 q 1377 256 1383 261 q 1373 253 1375 255 q 1368 249 1372 252 q 1362 243 1365 247 q 1355 238 1358 240 q 1332 218 1345 229 q 1301 192 1318 206 l 1301 192 q 1262 162 1285 178 q 1213 126 1239 146 q 1147 83 1183 106 q 1065 38 1111 60 q 1016 16 1042 26 q 958 -3 990 6 l 958 -3 q 892 -17 929 -12 q 820 -20 856 -22 q 742 -8 783 -19 q 664 23 701 3 q 590 73 626 43 q 522 135 553 102 q 441 233 481 180 q 361 345 401 285 q 272 263 315 302 q 195 192 229 223 q 188 185 192 188 q 181 178 184 181 q 64 74 113 117 q -9 9 15 30 q -21 -1 -16 3 q -31 -10 -26 -6 q -33 -12 -31 -10 q -35 -14 -34 -13 q -40 -17 -37 -15 q -69 -38 -54 -30 q -99 -49 -85 -46 q -123 -51 -112 -53 q -140 -42 -134 -49 q -145 -24 -146 -35 q -139 0 -144 -13 q -122 27 -133 13 q -98 53 -112 41 q -92 58 -95 56 q -80 68 -90 60 l -81 67 q -74 73 -78 70 q -65 81 -70 76 q -16 120 -47 94 q 68 192 15 147 q 116 234 90 211 q 173 283 142 256 q 239 343 203 310 q 317 414 275 375 l 317 415 q 310 426 313 419 q 283 469 297 447 q 256 512 269 492 q 183 624 220 567 q 104 738 147 681 q 10 848 60 794 q -102 946 -40 903 l -101 945 q -105 948 -104 947 q -109 950 -106 949 q -119 955 -117 952 q -122 956 -120 956 q -124 958 -123 957 q -126 959 -125 959 q -127 961 -126 960 q -133 964 -129 962 q -142 968 -137 966 q -150 972 -146 970 q -156 975 -153 974 q -155 987 -153 979 q -159 1003 -156 995 q -163 1019 -161 1012 q -164 1028 -165 1026 l -151 1049 q -142 1061 -147 1058 q -135 1065 -138 1064 q -128 1067 -131 1067 q -124 1069 -126 1067 q -119 1060 -122 1063 q -113 1055 -116 1056 q -108 1057 -110 1053 q -89 1046 -99 1051 q -74 1038 -80 1041 q -54 1028 -63 1032 q -36 1020 -45 1024 l -36 1021 q 38 994 10 1003 q 103 979 72 984 q 165 971 135 974 q 200 969 183 969 q 233 968 217 968 q 303 972 267 968 q 377 981 340 976 q 497 1009 431 991 q 648 1063 563 1028 q 654 1065 651 1064 q 660 1067 657 1066 l 659 1067 q 699 1083 678 1075 q 742 1101 719 1091 l 765 1111 q 772 1115 768 1113 q 781 1119 776 1117 l 780 1118 q 818 1135 799 1127 q 854 1149 838 1142 q 857 1149 856 1149 q 874 1155 865 1152 q 895 1158 883 1157 l 901 1158 q 913 1158 906 1158 q 929 1153 920 1157 l 928 1154 q 952 1136 942 1149 q 963 1110 961 1122 q 961 1084 964 1096 q 956 1062 959 1072 q 950 1047 953 1056 q 940 1024 947 1038 q 940 1024 940 1024 q 940 1023 941 1024 q 900 948 923 985 q 853 876 878 911 q 745 741 799 803 q 644 628 692 678 q 547 527 594 574 q 457 438 500 480 q 443 425 449 431 q 431 413 438 419 l 431 414 q 423 405 425 408 q 414 396 421 403 q 443 350 429 372 q 472 306 456 328 l 472 306 q 524 239 497 273 q 581 173 551 204 q 634 126 607 147 q 690 89 661 105 q 744 66 717 74 q 798 54 772 58 q 817 52 807 53 q 835 52 827 52 q 914 62 876 52 q 983 85 952 72 l 983 84 q 1052 118 1019 99 q 1110 153 1085 137 q 1155 184 1131 167 q 1192 213 1178 201 q 1245 257 1222 238 q 1283 291 1267 277 q 1294 302 1288 297 q 1304 312 1299 307 q 1322 328 1313 320 q 1340 347 1331 337 q 1397 383 1369 373 q 1439 378 1425 392 l 1440 378 m 274 624 q 311 561 293 591 q 319 547 315 553 q 328 533 324 540 q 350 497 339 515 q 370 463 360 479 q 455 543 410 500 q 549 637 499 586 q 670 765 605 693 q 797 918 735 836 q 847 994 823 954 q 887 1069 872 1034 q 888 1072 888 1071 q 888 1074 888 1073 q 890 1082 890 1078 q 892 1089 891 1085 q 867 1081 880 1085 q 842 1072 853 1076 l 845 1074 q 841 1071 844 1072 q 836 1069 838 1070 q 808 1058 822 1064 q 781 1046 794 1051 q 765 1039 774 1042 q 749 1032 757 1035 q 674 999 710 1015 q 605 972 638 983 q 514 941 559 955 q 426 918 468 928 q 345 902 383 908 q 276 892 307 895 q 241 890 260 891 q 205 889 222 889 q 173 890 190 889 q 142 892 157 890 q 109 895 126 893 q 75 900 92 897 q 91 882 85 890 q 108 863 98 874 q 191 752 157 803 q 254 656 226 701 l 253 657 q 259 649 256 653 q 265 640 262 644 q 267 636 266 638 q 269 631 268 633 q 272 628 271 630 q 276 622 273 626 l 274 624 z "},"Y":{"ha":870,"x_min":-62,"x_max":1065,"o":"m 1060 380 q 1064 361 1065 372 q 1056 339 1063 350 q 1039 315 1050 327 q 1013 294 1028 303 q 1004 289 1008 291 q 994 285 1000 288 q 990 283 992 284 q 984 279 988 281 q 972 273 978 276 q 955 264 965 269 l 956 265 q 936 254 947 260 q 910 241 924 249 q 826 199 878 224 q 697 139 775 174 q 613 102 658 122 q 513 60 567 82 q 485 48 501 54 q 458 36 470 41 l 459 37 q 367 -3 415 18 q 265 -51 319 -24 q 212 -79 239 -65 q 160 -110 185 -94 l 160 -111 q 158 -116 159 -113 q 155 -121 156 -119 q 149 -131 152 -126 q 144 -139 145 -136 q 139 -147 141 -143 q 134 -156 137 -151 l 134 -155 q 104 -206 119 -181 q 76 -253 90 -231 q 72 -259 74 -256 q 67 -266 69 -262 q 40 -308 53 -287 q 6 -350 26 -328 l -1 -356 q -2 -359 -1 -358 q -3 -361 -3 -360 q -9 -369 -5 -365 q -20 -382 -12 -374 l -62 -341 l -62 -323 q -62 -310 -62 -315 q -61 -299 -62 -305 q -49 -248 -58 -273 q -30 -204 -41 -224 q -5 -166 -18 -184 q 38 -119 15 -140 q 85 -80 61 -98 q 108 -38 97 -60 q 131 5 119 -17 q 146 34 138 19 q 162 63 154 49 l 161 62 q 234 198 203 141 q 290 302 265 256 q 337 388 315 348 q 382 471 358 428 l 383 472 q 385 475 383 473 q 388 479 386 478 q 394 492 390 485 q 401 505 398 499 q 433 565 416 533 q 469 636 449 597 q 376 546 422 588 q 285 470 329 503 q 262 453 273 460 q 240 439 251 446 l 240 440 q 236 437 238 438 q 231 434 233 435 q 199 418 215 425 q 162 408 182 410 q 135 408 149 406 q 108 419 120 410 q 87 438 95 426 q 76 461 79 449 l 76 460 q 68 493 69 477 q 66 524 67 509 q 68 580 66 556 q 74 628 71 605 q 90 714 82 673 q 106 783 98 751 q 122 844 115 816 q 124 849 123 847 q 125 853 124 852 q 151 944 140 905 q 170 1012 162 983 q 185 1059 179 1040 q 194 1087 191 1077 l 194 1086 q 197 1094 195 1092 q 211 1125 202 1111 q 230 1148 219 1139 q 250 1161 240 1157 q 268 1161 260 1165 l 267 1161 q 287 1145 281 1157 q 294 1116 294 1133 q 292 1093 294 1106 q 285 1067 290 1080 l 285 1069 q 283 1061 283 1064 q 281 1058 282 1059 q 280 1053 281 1056 q 278 1048 278 1050 l 278 1049 q 275 1042 276 1045 q 272 1034 274 1040 l 273 1035 q 265 1014 269 1026 q 255 985 261 1001 q 242 945 249 968 q 225 894 234 923 q 224 892 224 893 l 224 890 q 224 888 224 889 q 219 873 222 881 q 214 857 217 865 q 201 816 208 838 q 188 769 194 793 q 168 691 178 736 q 149 594 158 646 q 146 567 147 581 q 144 541 144 553 q 143 531 143 535 q 143 523 143 527 q 146 492 143 505 q 151 481 147 483 q 152 483 149 483 q 177 490 163 484 q 203 503 190 496 l 203 502 q 260 542 231 519 q 319 590 288 564 q 380 645 350 617 q 442 707 410 674 q 499 765 473 737 q 550 819 525 793 l 550 819 q 558 827 553 823 q 566 836 562 832 q 573 844 569 840 q 580 851 576 848 l 581 856 q 582 858 581 857 q 583 859 583 858 q 583 860 583 859 q 588 867 585 863 q 592 875 590 872 l 613 895 q 633 884 624 890 q 649 873 643 878 q 656 864 655 868 q 649 857 656 860 q 657 837 654 847 l 646 826 q 641 819 643 822 q 635 813 639 817 q 631 805 633 810 q 628 797 629 800 q 602 747 615 773 q 576 694 589 720 q 551 645 563 669 q 531 603 540 622 q 476 493 501 545 q 431 401 450 441 l 397 333 q 391 320 393 327 q 385 308 388 314 l 385 309 q 347 232 367 272 q 305 151 327 193 q 293 127 299 139 q 281 106 287 116 l 281 107 q 270 85 274 93 q 261 69 266 78 q 250 47 257 60 q 228 8 242 33 q 237 12 231 10 q 246 17 242 15 q 326 54 288 37 q 401 88 365 72 q 413 93 407 90 q 425 98 419 95 q 436 102 431 100 q 447 108 442 105 l 447 108 q 456 112 451 110 q 465 115 461 114 q 467 117 465 116 q 472 119 469 118 l 481 124 q 505 134 493 129 q 528 144 517 139 q 578 167 555 156 q 622 188 601 177 q 738 243 692 219 q 817 285 784 267 q 874 318 850 303 q 913 342 897 333 q 920 346 916 344 q 926 350 924 349 q 933 354 930 352 q 940 358 936 356 q 951 366 945 362 q 964 374 958 369 q 996 389 980 384 q 1026 394 1013 394 q 1059 381 1049 394 l 1060 380 z "},"Z":{"ha":1017,"x_min":-183,"x_max":1201,"o":"m 1102 351 q 1149 384 1124 376 q 1189 381 1174 393 q 1198 365 1196 376 q 1198 342 1201 355 q 1188 315 1195 329 q 1169 288 1181 301 l 1165 284 q 1151 272 1158 276 l 1148 268 q 1145 266 1147 267 q 1139 260 1143 265 q 1118 240 1131 252 q 1091 215 1105 228 q 1062 189 1076 201 q 1037 167 1048 176 q 1007 142 1026 157 q 964 110 988 128 q 908 74 938 92 q 845 38 878 55 q 807 20 828 29 q 762 2 786 11 q 711 -16 738 -7 q 659 -31 685 -24 q 561 -50 615 -43 q 451 -57 508 -57 q 392 -55 422 -57 q 316 -48 357 -53 q 233 -34 276 -42 q 146 -16 190 -26 q 58 6 101 -6 q 51 1 55 4 q 45 -2 48 0 q 42 -4 42 -5 q 21 -17 32 -10 q -3 -30 10 -24 q -33 -40 -17 -35 q -67 -44 -49 -44 q -119 -25 -96 -42 q -136 -8 -128 -17 q -149 12 -144 2 q -156 27 -153 19 q -163 49 -160 35 l -163 48 q -168 72 -167 60 q -165 98 -170 84 q -149 118 -159 112 q -130 127 -140 125 q -120 129 -124 128 q -112 129 -115 129 l -105 129 q -97 128 -103 129 q -81 125 -90 126 l -72 123 q -52 118 -62 120 q -33 112 -42 115 q -28 111 -31 111 q -23 109 -26 110 l -24 109 q -19 108 -20 108 q -9 104 -15 106 q -1 101 -4 102 q 11 97 5 99 q 24 92 17 94 l 29 91 q 35 95 32 93 q 37 97 38 98 l 35 97 q 39 99 38 98 q 45 105 42 103 q 51 110 48 108 l 51 110 q 107 165 83 140 q 151 212 131 190 q 188 256 171 235 q 222 296 206 276 q 280 366 253 333 q 335 435 307 399 q 373 485 354 460 q 414 540 392 510 q 462 606 436 569 q 520 690 488 642 q 593 798 553 738 q 685 935 634 858 q 670 930 677 932 q 655 925 663 928 q 545 893 598 907 q 444 869 492 880 q 275 833 349 847 q 143 808 201 819 q 76 797 109 802 q 16 786 44 791 q -33 778 -12 782 q -66 773 -55 775 q -77 771 -72 772 q -86 769 -83 770 q -90 768 -88 769 q -94 768 -92 768 q -125 768 -110 766 q -152 774 -140 769 q -172 786 -164 778 q -181 803 -179 794 q -161 839 -183 824 q -107 860 -140 855 q -85 863 -98 862 q -65 865 -77 863 q -36 868 -53 866 q 7 874 -18 871 q 68 883 33 878 q 191 902 118 890 q 360 931 265 913 q 365 932 362 932 q 371 933 369 933 q 473 954 419 943 q 588 982 526 965 q 650 1000 615 990 q 722 1025 685 1011 q 736 1031 728 1028 q 754 1040 744 1035 l 751 1038 l 758 1042 q 760 1044 759 1043 l 762 1045 q 769 1059 765 1050 q 774 1069 774 1068 l 810 1054 q 816 1048 813 1051 q 822 1040 820 1044 q 832 1018 833 1030 l 840 1018 q 822 999 831 1008 q 810 990 813 990 q 809 989 810 989 q 807 988 808 989 q 803 983 805 986 q 801 980 802 981 q 799 977 800 978 q 784 956 792 967 q 770 935 777 946 q 614 706 680 803 q 497 537 547 609 q 409 413 447 465 q 340 317 372 360 q 309 276 324 296 q 278 235 294 256 q 244 193 262 215 q 207 149 227 172 q 168 107 189 129 q 122 61 147 85 q 129 59 125 60 q 137 57 133 58 q 201 41 167 49 q 268 28 235 34 q 335 18 301 22 q 408 13 370 14 q 415 12 411 13 q 422 12 418 12 l 436 12 q 533 18 487 12 q 620 33 579 24 l 619 32 q 701 56 663 42 q 771 85 740 71 q 872 143 831 115 q 940 193 913 172 l 939 192 q 981 230 965 215 q 1009 258 997 246 l 1008 257 q 1019 268 1012 261 q 1035 285 1026 276 q 1045 294 1040 290 q 1056 305 1051 299 l 1103 351 l 1102 351 m -69 39 q -52 40 -62 36 q -64 43 -58 41 q -76 47 -70 45 q -69 39 -72 40 m 810 994 q 806 993 808 994 l 806 990 q 810 993 808 990 l 810 994 m 806 988 l 805 988 l 804 988 q 806 988 805 988 z "},"!":{"ha":351,"x_min":92,"x_max":420,"o":"m 167 218 q 132 135 153 135 q 113 166 120 135 q 105 259 105 197 q 107 326 105 287 q 114 398 109 358 q 125 482 118 438 q 142 575 132 527 q 163 674 151 624 l 163 673 q 197 804 178 738 q 233 930 215 869 q 270 1043 252 990 q 305 1137 289 1097 q 333 1204 321 1178 q 352 1237 346 1230 q 387 1252 372 1252 q 420 1206 420 1252 q 407 1142 420 1181 q 363 1060 393 1103 q 342 1020 353 1047 q 317 959 330 994 q 290 882 303 924 q 262 792 276 839 q 236 697 249 746 q 213 602 224 649 q 199 530 206 567 q 188 459 193 493 q 178 393 182 424 q 172 338 174 362 q 169 290 169 311 q 167 254 168 269 q 167 223 167 236 l 167 218 m 108 -133 q 95 -111 99 -124 q 92 -87 92 -99 q 93 -75 92 -80 q 94 -67 94 -70 q 105 -65 97 -66 q 125 -64 113 -64 q 147 -67 137 -64 q 165 -76 158 -69 q 174 -91 171 -82 q 176 -110 176 -101 q 174 -132 176 -122 q 171 -146 172 -141 q 162 -147 167 -147 q 151 -147 157 -147 q 128 -144 140 -147 q 110 -133 117 -141 l 108 -133 z "},"[":{"ha":536,"x_min":-47,"x_max":845,"o":"m 474 -72 q 596 -84 558 -77 q 635 -103 635 -92 q 610 -116 635 -110 q 539 -127 585 -122 q 426 -136 492 -132 q 275 -143 359 -140 l 261 -143 q 254 -143 258 -143 q 247 -144 250 -144 q 208 -145 228 -144 q 168 -147 188 -146 q 151 -147 160 -147 q 135 -148 142 -147 q 105 -149 121 -149 q 74 -149 90 -149 q 64 -150 69 -149 q 54 -150 60 -150 q 33 -150 44 -150 q 13 -151 23 -151 l -24 -151 l -15 -134 q -30 -124 -22 -131 q -47 -103 -37 -117 l -44 -81 l -41 -75 l -38 -67 l -35 -58 q 2 47 -17 -8 q 42 156 22 101 q 67 225 53 190 q 92 294 80 261 q 137 419 114 356 q 183 543 160 482 q 195 578 189 560 q 208 613 201 595 q 217 636 213 624 q 226 660 222 649 l 236 688 q 250 723 243 706 q 263 759 256 741 q 273 786 268 773 q 283 814 277 800 q 287 824 285 819 q 291 834 289 829 q 293 841 292 838 q 296 849 294 844 q 299 856 297 852 q 302 865 301 860 l 321 915 l 321 914 q 328 933 324 924 q 335 952 331 942 l 336 956 q 338 960 337 958 q 339 963 338 962 q 343 973 340 966 l 344 992 l 378 974 q 386 980 380 976 q 379 998 383 988 q 374 1012 375 1008 l 403 1012 q 440 1012 420 1012 q 480 1013 460 1013 q 519 1013 501 1013 q 551 1013 538 1013 q 719 1011 653 1013 q 803 1004 785 1009 q 845 966 845 992 q 833 948 845 956 q 798 932 820 939 q 744 922 776 926 q 675 918 713 918 q 594 920 637 918 q 508 928 552 923 q 486 931 498 930 q 460 933 474 932 q 456 934 458 933 q 453 934 454 934 q 448 934 449 934 q 443 935 446 933 q 427 936 435 935 q 409 937 418 936 q 406 931 406 933 q 404 926 405 928 q 402 922 403 924 l 402 922 q 361 823 383 876 q 317 707 340 769 q 267 579 292 646 q 217 443 242 513 q 165 303 191 374 q 113 162 139 232 q 68 39 92 104 q 24 -86 45 -26 l 31 -86 q 48 -85 38 -85 q 64 -85 58 -85 l 126 -83 q 139 -83 132 -83 q 154 -83 147 -83 q 167 -83 161 -83 q 179 -82 174 -83 q 210 -81 195 -81 q 240 -80 226 -81 q 335 -77 293 -78 q 408 -74 378 -76 q 472 -72 444 -73 l 474 -72 m -13 -131 l -12 -130 l -14 -130 l -13 -131 z "},"]":{"ha":409,"x_min":-473,"x_max":419,"o":"m -102 918 q -224 930 -185 923 q -262 949 -262 938 q -238 961 -262 956 q -168 972 -214 967 q -55 981 -122 977 q 96 989 12 985 l 111 989 q 118 989 115 989 q 126 990 122 990 q 164 991 144 990 q 204 992 184 992 q 221 993 212 993 q 237 994 230 993 q 276 995 256 994 q 317 996 297 995 q 338 996 327 996 q 358 997 348 997 l 380 997 l 392 1009 l 392 997 l 396 997 l 392 990 l 392 977 q 405 967 398 974 q 419 950 411 960 l 416 926 l 410 913 l 406 903 q 345 731 377 822 q 281 551 313 640 q 235 427 258 489 q 190 303 213 365 q 180 277 185 290 q 171 251 176 264 q 158 218 165 235 q 147 185 152 201 l 136 158 q 123 123 129 140 q 110 87 116 105 q 100 59 104 73 q 90 32 95 46 q 85 22 88 26 q 81 12 83 17 l 82 13 q 78 4 81 8 q 75 -4 76 -1 l 76 -3 q 73 -12 74 -8 q 69 -19 71 -16 l 70 -19 l 51 -69 l 37 -108 l 34 -114 l 35 -112 q 32 -118 33 -115 q 32 -119 31 -121 q 28 -128 31 -124 l 28 -147 l -6 -128 q -14 -134 -9 -131 q -7 -152 -10 -142 q -1 -166 -3 -162 l -31 -166 q -68 -166 -48 -166 q -108 -167 -87 -167 q -147 -167 -128 -167 q -178 -167 -165 -167 q -348 -165 -281 -167 q -431 -158 -414 -163 q -463 -142 -453 -153 q -473 -120 -473 -132 q -460 -102 -473 -110 q -426 -86 -448 -93 q -372 -76 -403 -80 q -303 -72 -340 -72 q -222 -75 -265 -72 q -136 -83 -180 -77 q -113 -85 -126 -84 q -85 -87 -100 -86 q -81 -88 -83 -88 q -76 -89 -78 -88 q -73 -89 -74 -89 q -58 -90 -66 -90 q -43 -90 -51 -90 q -37 -91 -39 -90 q -35 -87 -35 -89 q -33 -83 -34 -85 q -31 -78 -32 -81 q 10 23 -12 -32 q 56 139 32 77 q 105 267 79 200 q 156 402 130 333 q 207 543 181 472 q 259 684 233 614 q 280 743 269 712 q 303 807 292 775 q 326 871 315 839 q 347 932 337 903 l 342 932 q 324 931 334 931 q 309 931 315 931 q 277 930 293 931 q 245 929 261 930 q 233 929 240 929 q 218 928 226 928 q 205 928 211 928 q 192 928 198 928 q 132 926 161 926 q 36 923 79 924 q -37 920 -6 922 q -100 918 -72 919 l -102 918 z "},"~":{"ha":578,"x_min":-28,"x_max":615,"o":"m 547 277 l 543 276 q 574 281 563 281 q 606 275 597 281 q 609 256 615 268 q 578 228 602 244 q 510 190 554 211 q 469 174 493 183 q 419 157 444 165 q 370 146 396 150 q 318 142 344 142 q 305 142 311 142 q 293 143 299 142 q 257 149 275 144 q 220 163 238 154 q 202 173 211 167 q 185 185 193 178 q 181 189 183 187 q 177 192 178 190 l 169 201 q 167 201 168 201 q 167 202 167 201 q 137 214 152 214 q 127 213 131 214 q 117 210 123 212 q 90 194 103 203 q 67 176 76 184 q 43 157 53 165 q 25 147 33 149 q -15 151 -1 141 q -28 183 -28 161 q -27 195 -28 188 q -22 210 -25 203 q -6 235 -17 222 q 21 258 5 247 q 56 257 35 257 q 107 256 76 256 l 104 283 q 145 284 124 287 q 188 269 167 281 q 206 256 197 263 q 222 242 215 249 q 237 229 228 236 q 252 219 246 222 q 290 208 269 211 q 331 207 311 206 q 412 222 375 210 q 476 244 449 233 q 501 256 490 250 q 520 265 513 261 q 537 274 529 270 l 547 277 m 78 277 q 76 276 77 276 q 74 276 76 276 q 71 275 73 275 q 67 274 69 274 q 60 274 64 274 q 21 258 38 269 q -9 260 -8 258 q 3 265 -10 263 q 38 271 16 268 q 78 277 60 274 m 85 278 q 78 277 81 277 q 82 278 80 278 q 85 278 83 278 z "},"":{"ha":578,"x_min":-19,"x_max":624,"o":"m 556 857 l 552 856 q 583 861 572 861 q 615 855 606 861 q 618 836 624 848 q 587 808 611 824 q 519 770 563 791 q 478 753 502 763 q 428 737 453 744 q 379 726 405 730 q 327 722 353 722 q 314 722 320 722 q 302 723 308 722 q 266 729 284 724 q 229 742 247 734 q 211 753 220 747 q 194 765 202 758 q 190 768 192 767 q 186 772 188 770 l 178 781 q 176 781 177 781 q 176 782 176 781 q 146 794 161 794 q 136 793 140 794 q 126 790 132 792 q 99 774 113 783 q 76 756 85 764 q 52 736 63 744 q 34 726 42 728 q -6 731 8 721 q -19 763 -19 741 q -18 775 -19 768 q -13 790 -16 783 q 3 815 -8 802 q 30 838 14 827 q 65 836 44 837 q 116 836 85 836 l 113 863 q 155 864 133 867 q 197 849 176 861 q 231 822 215 838 q 246 809 237 816 q 261 799 255 802 q 299 788 278 791 q 340 787 320 785 q 421 801 384 790 q 485 824 458 813 q 510 835 499 830 q 529 845 522 841 q 546 854 538 850 l 556 857 m 88 857 q 85 856 86 856 q 83 856 85 856 q 80 855 82 855 q 76 854 78 854 q 69 853 73 854 q 30 838 47 849 q 0 840 1 838 q 12 845 -1 842 q 47 851 25 848 q 88 857 69 853 m 94 858 q 88 857 90 857 q 91 858 89 858 q 94 858 92 858 z "},"@":{"ha":1034,"x_min":22,"x_max":856,"o":"m 585 -50 q 593 -42 590 -45 q 599 -37 597 -40 q 626 -12 615 -21 q 644 -3 636 -3 q 659 -17 658 -3 q 650 -62 660 -31 q 639 -79 649 -65 q 611 -109 630 -92 q 570 -140 595 -123 q 510 -172 546 -156 q 432 -198 476 -187 q 340 -211 388 -208 q 320 -212 332 -212 q 301 -212 308 -212 q 235 -208 268 -212 q 176 -195 206 -204 q 117 -168 146 -186 l 117 -168 q 64 -119 88 -150 q 30 -50 40 -87 q 24 -19 25 -34 q 22 11 22 -3 q 33 95 22 53 q 87 224 51 163 q 169 342 122 285 q 273 445 217 397 q 395 529 329 494 q 498 572 443 555 q 614 588 553 588 q 706 575 658 588 q 787 530 751 561 q 818 492 804 513 q 840 451 832 472 q 851 404 847 429 q 856 357 856 379 q 854 322 856 339 q 850 290 853 304 q 831 216 844 252 q 803 147 819 179 q 785 115 794 130 q 763 83 775 99 q 739 53 751 68 q 708 26 726 39 q 689 14 700 20 q 665 3 677 8 q 635 -1 651 -1 q 624 -1 631 -1 q 614 -1 617 -1 q 572 10 593 3 q 532 31 550 17 q 504 59 515 43 q 485 92 492 74 q 470 82 478 87 q 455 73 463 78 l 456 73 q 403 45 430 57 q 347 27 376 33 q 334 25 342 26 q 317 24 326 24 q 295 26 306 24 q 275 31 284 28 q 241 55 256 39 q 220 85 227 70 q 211 118 213 100 q 210 151 208 135 q 218 181 211 167 q 234 206 226 194 q 267 237 250 226 q 299 258 283 249 q 332 274 319 268 q 354 283 344 279 q 395 295 378 292 q 419 300 411 299 q 431 301 425 301 q 442 301 437 301 q 492 274 492 301 q 486 257 492 266 q 470 241 480 249 q 453 231 465 236 q 423 217 441 225 q 420 215 422 216 q 417 214 419 215 l 418 214 q 413 211 415 213 q 408 209 410 210 l 394 203 q 368 190 383 198 q 340 174 353 183 q 317 158 328 167 q 303 140 307 149 l 303 140 q 302 133 302 137 q 304 125 302 129 q 314 115 306 118 q 322 114 315 113 q 335 115 328 114 q 377 126 356 118 q 413 142 393 132 q 456 167 433 152 q 458 168 456 167 q 464 172 459 169 q 470 176 468 174 l 470 178 q 470 188 470 181 q 471 202 470 194 l 472 222 q 491 213 479 218 q 506 203 502 208 q 511 207 508 205 q 517 211 515 209 q 522 215 518 212 q 531 221 526 217 q 540 228 536 225 q 545 231 544 231 l 544 174 l 544 156 q 542 157 544 155 l 542 156 q 543 156 543 156 q 544 155 544 156 q 545 151 545 153 q 546 148 545 149 q 545 155 546 153 q 568 145 557 149 q 587 141 579 142 q 556 147 570 141 l 547 138 q 549 129 548 133 q 553 120 550 124 q 567 96 557 107 q 592 78 578 85 q 605 73 597 75 q 622 70 613 72 q 630 69 625 69 q 638 69 635 69 q 644 71 642 70 q 651 73 647 72 q 683 95 669 81 q 708 125 697 109 q 733 162 722 143 q 753 201 744 181 q 768 242 760 219 q 781 289 775 265 q 786 325 784 307 q 789 359 789 343 q 789 369 789 364 q 788 381 788 375 l 788 385 q 777 430 785 408 q 753 471 769 453 q 716 500 739 489 q 672 517 694 512 q 641 522 656 520 q 615 523 626 523 q 540 515 576 523 q 469 492 503 507 q 376 441 422 472 q 292 376 331 410 q 220 302 253 342 q 158 219 187 262 q 113 131 132 176 q 88 38 94 86 q 86 11 86 22 q 97 -47 86 -18 q 117 -83 104 -67 q 144 -110 130 -99 l 144 -109 q 180 -128 162 -121 q 217 -140 199 -135 l 216 -139 q 292 -148 253 -147 q 361 -145 328 -149 q 422 -135 394 -142 q 473 -119 450 -128 q 515 -100 497 -110 q 563 -69 547 -82 q 582 -53 578 -56 l 585 -50 m 540 139 l 543 143 l 541 151 l 540 139 m 545 155 l 544 155 l 544 156 q 545 155 545 155 z "},"|":{"ha":367,"x_min":66,"x_max":344,"o":"m 94 -172 l 66 -172 q 67 -165 66 -167 q 87 -86 75 -140 q 114 41 99 -33 q 145 202 128 114 q 177 383 161 290 q 209 568 194 476 q 238 742 225 660 q 256 859 247 806 q 270 953 264 913 q 280 1015 276 992 q 284 1038 284 1038 l 269 1056 q 311 1089 292 1089 q 336 1072 327 1089 q 344 1024 344 1056 q 342 992 344 1011 q 333 952 339 974 q 320 906 328 930 q 301 859 312 883 q 284 808 293 839 q 264 737 274 776 l 265 737 q 239 624 252 686 q 212 495 225 563 q 185 358 199 428 q 160 221 172 288 q 138 92 148 153 q 119 -19 127 31 q 105 -104 110 -69 q 97 -156 99 -140 l 100 -156 l 94 -172 z "}}}
